<?xml version="1.0" encoding="utf-8"?>
<svg width="45" height="36" viewBox="0 0 45 36" fill="none" xmlns="http://www.w3.org/2000/svg">
<path d="M42.75 22.5H38.25V27H39.825C40.1977 27 40.5 27.2531 40.5 27.5625V28.6875C40.5 28.9969 40.1977 29.25 39.825 29.25H5.175C4.80234 29.25 4.5 28.9969 4.5 28.6875V27.5625C4.5 27.2531 4.80234 27 5.175 27H6.75V22.5H2.25C1.00547 22.5 0 23.5055 0 24.75V31.5C0 32.7445 1.00547 33.75 2.25 33.75H42.75C43.9945 33.75 45 32.7445 45 31.5V24.75C45 23.5055 43.9945 22.5 42.75 22.5ZM36 27V4.52109C36 3.2625 34.9805 2.25 33.7289 2.25H11.2781C10.0195 2.25 9 3.26953 9 4.52109V27H36ZM14.85 14.2031L16.643 12.4242C16.9383 12.1289 17.4164 12.1289 17.7117 12.4313L20.6156 15.3562L27.3094 8.71875C27.6047 8.42344 28.0828 8.42344 28.3781 8.72578L30.157 10.5188C30.4523 10.8141 30.4523 11.2922 30.15 11.5875L21.1289 20.5312C20.8336 20.8266 20.3555 20.8266 20.0602 20.5242L14.85 15.2719C14.5477 14.9766 14.5547 14.4984 14.85 14.2031Z" fill="#352245"/>
</svg>
