<?xml version="1.0" encoding="utf-8"?>
<svg width="124" height="73" viewBox="0 0 124 73" fill="none" xmlns="http://www.w3.org/2000/svg">
<path d="M119.973 72.9995H4.02737C0.211983 72.9995 -1.05981 70.2408 1.27181 66.8454L12.718 50.2931C14.2017 48.3832 17.3812 46.6855 20.1368 46.6855H103.863C106.619 46.6855 110.01 48.171 111.282 50.2931L122.728 66.8454C125.06 70.2408 123.788 72.9995 119.973 72.9995Z" fill="#FECC3D"/>
<path d="M119.973 72.9995H4.02737C0.211983 72.9995 -1.05981 70.2408 1.27181 66.8454L12.718 50.2931C14.2017 48.3832 17.3812 46.6855 20.1368 46.6855H103.863C106.619 46.6855 110.01 48.171 111.282 50.2931L122.728 66.8454C125.06 70.2408 123.788 72.9995 119.973 72.9995Z" fill="#FFCC00"/>
<path d="M84.9986 55.3867H39.002C35.8225 55.3867 33.067 56.0233 32.6431 56.8722L32.0072 58.5699C31.5832 59.4187 34.1268 60.2675 37.5183 60.2675H86.4824C89.8738 60.2675 92.2055 59.4187 91.9935 58.5699L91.1456 57.0844C90.9337 56.2356 87.9661 55.3867 84.9986 55.3867Z" fill="#355168"/>
<path d="M30.7354 30.7703L47.2687 60.0552L99.2003 29.2849L82.667 0L30.7354 30.7703Z" fill="#E8E8E8"/>
<path d="M44.5137 32.8924L47.4812 31.1947L52.3564 36.0755C53.4162 37.1365 54.4761 38.1976 55.7479 39.4708C55.3239 37.9854 54.9 36.4999 54.4761 35.0144L52.5684 28.436L55.3239 26.7383L58.9273 41.1685L55.5359 43.0784L44.5137 32.8924Z" fill="#352245"/>
<path d="M59.1388 32.4695C56.8072 28.4375 57.6551 24.8299 61.0465 22.92C64.438 21.0102 68.0414 21.859 70.373 25.891C72.7047 29.923 71.8568 33.5305 68.6773 35.6526C65.2859 37.3503 61.6824 36.2892 59.1388 32.4695ZM67.4055 27.3764C65.9217 25.0421 64.0141 24.1933 62.3183 25.0421C60.6226 25.891 60.4106 28.0131 61.8944 30.5596C63.3782 33.1061 65.2859 33.9549 66.9816 32.8939C68.8893 32.0451 68.8893 29.923 67.4055 27.3764Z" fill="#352245"/>
<path d="M72.4934 19.5239L69.1019 21.4338L67.6182 19.0995L77.1566 13.582L78.4284 15.9163L75.037 17.8262L80.972 27.8001L78.2165 29.4977L72.4934 19.5239Z" fill="#352245"/>
</svg>
