<?xml version="1.0" encoding="utf-8"?>
<svg width="83" height="83" viewBox="0 0 83 83" fill="none" xmlns="http://www.w3.org/2000/svg">
<path d="M5.35474 34.8057H21.4193V50.8702H5.35474V34.8057Z" fill="#F0BC5E"/>
<path d="M5.35474 57.5645H21.4193V73.629H5.35474V57.5645Z" fill="#F0BC5E"/>
<path d="M40.1612 26.7738H5.35474V13.3867H40.1612V26.7738Z" fill="#F0BC5E"/>
<path d="M58.9875 42.8387C59.7831 42.8387 60.5524 43.0714 61.2152 43.5133L70.5646 49.7467C71.6693 50.4814 72.9531 50.871 74.2781 50.871H83V48.1936H74.2794C73.4846 48.1936 72.7132 47.9608 72.0504 47.519L68.2742 45.001V0H17.4032V8.03226H0V83H50.871V74.9677H68.2742V63.7051C68.3585 63.6848 68.4455 63.6783 68.5298 63.658L74.7573 62.1016C76.1391 61.7558 77.5608 61.5806 78.9839 61.5806H83V58.9032H78.9839C77.3425 58.9032 75.7012 59.1052 74.1082 59.5033L67.8807 61.0597C64.6797 61.8591 61.2728 61.729 58.1456 60.6864L55.8898 59.9341C53.836 59.2497 51.6972 58.9032 49.5323 58.9032H37.8506C37.8506 56.6893 39.6527 54.8871 41.8667 54.8871H56.5925C58.8071 54.8871 60.6086 53.0849 60.6086 50.871C60.6086 48.8171 59.0529 47.1385 57.0625 46.9019L58.1613 42.8387H58.9875ZM57.2965 63.2259C59.3503 63.9116 61.4898 64.2581 63.6541 64.2581C64.3038 64.2581 64.9516 64.2019 65.5968 64.1391V72.2903H50.871V67.9114C51.341 67.3695 51.705 66.7283 51.9005 66.0027L52.9967 61.9421C53.6863 62.0827 54.37 62.25 55.0414 62.4749L57.2965 63.2259ZM50.314 61.6114L49.3165 65.3033C49.057 66.2648 48.1805 66.9355 47.1856 66.9355H46.7516C45.5351 66.9355 44.5454 65.9465 44.5454 64.7294C44.5454 64.5339 44.5709 64.3411 44.6219 64.1535L45.3168 61.5806H49.5323C49.7931 61.5806 50.0532 61.6009 50.314 61.6114ZM42.5426 61.5806L42.0367 63.4534C41.9242 63.8685 41.868 64.2966 41.868 64.7294C41.868 66.5394 42.8694 68.1042 44.3356 68.9475L43.9153 70.6261L46.5123 71.2758L46.9287 69.6129H47.1856C47.5307 69.6129 47.8654 69.5645 48.1936 69.4952V80.3226H2.67742V10.7097H20.0806V2.67742H65.5968V43.2165L62.701 41.2856C61.597 40.5509 60.3132 40.1613 58.9875 40.1613H58.8843L64.4561 19.5466C64.5686 19.1315 64.6248 18.7034 64.6248 18.2706C64.6248 15.5775 62.4337 13.3871 59.7412 13.3871H59.3072C57.1056 13.3871 55.1669 14.8716 54.5923 16.9973L50.871 30.7674V8.03226H22.7581V10.7097H48.1936V40.1613H45.424C43.9669 40.1613 42.5949 40.6444 41.4477 41.5H28.1129V44.1774H38.635L35.9576 46.8548H28.1129V49.5323H33.2814L31.0446 51.7691C30.255 52.5574 29.8196 53.6072 29.8196 54.725C29.8196 57.0292 31.6937 58.9032 33.9992 58.9032C34.4116 58.9032 34.8091 58.8241 35.1947 58.7091C35.1934 58.7745 35.1745 58.8366 35.1745 58.9032C35.1745 60.3799 36.3753 61.5806 37.8519 61.5806H42.5426ZM52.8548 52.2097H47.8497L53.5026 31.2936L58.0946 32.8239L52.8548 52.2097ZM42.5844 44.014C43.3329 43.2669 44.3676 42.8387 45.424 42.8387H47.6085L46.5162 46.879C44.8226 46.9405 43.2348 47.6098 42.0301 48.8145L35.0594 55.7852C34.7797 56.065 34.3927 56.2258 33.9979 56.2258C33.169 56.2258 32.4957 55.5525 32.4957 54.725C32.4957 54.3236 32.6526 53.9471 32.9363 53.6634L42.5844 44.014ZM43.9231 50.7076C44.4291 50.2016 45.0729 49.8565 45.7599 49.6767L45.0756 52.2097H42.4223L43.9231 50.7076ZM61.8709 18.8478L60.2315 24.9132L55.6395 23.383L57.1762 17.6967C57.4371 16.7352 58.313 16.0645 59.3072 16.0645H59.7412C60.9584 16.0645 61.9474 17.0535 61.9474 18.2706C61.9474 18.4661 61.9219 18.6589 61.8709 18.8478ZM54.9407 25.9721L59.5327 27.5024L58.7934 30.2347L54.2014 28.7045L54.9407 25.9721ZM56.5925 49.5323C57.3305 49.5323 57.9312 50.1336 57.9312 50.871C57.9312 51.6083 57.3305 52.2097 56.5925 52.2097H55.6277L56.352 49.5323H56.5925Z" fill="#9AABB4"/>
<path d="M10.7097 18.7422H13.3871V21.4196H10.7097V18.7422Z" fill="black"/>
<path d="M16.0645 18.7422H18.7419V21.4196H16.0645V18.7422Z" fill="black"/>
<path d="M21.4194 18.7422H24.0969V21.4196H21.4194V18.7422Z" fill="black"/>
<path d="M26.7742 18.7422H29.4516V21.4196H26.7742V18.7422Z" fill="black"/>
<path d="M32.1292 18.7422H34.8066V21.4196H32.1292V18.7422Z" fill="black"/>
<path d="M27.7207 31.7368L25.8277 29.8438L13.3871 42.2843L11.6562 40.5534L9.76318 42.4464L13.3871 46.0704L27.7207 31.7368Z" fill="black"/>
<path d="M25.8277 52.6016L13.3871 65.0422L11.6562 63.3112L9.76318 65.2043L13.3871 68.8282L27.7207 54.4946L25.8277 52.6016Z" fill="black"/>
<path d="M42.8386 73.6289H45.516V76.3063H42.8386V73.6289Z" fill="black"/>
<path d="M25.4355 73.6289H40.1613V76.3063H25.4355V73.6289Z" fill="black"/>
<path d="M28.113 36.1455H45.5163V38.8229H28.113V36.1455Z" fill="black"/>
</svg>
