<?xml version="1.0" encoding="utf-8"?>
<svg width="92" height="92" viewBox="0 0 92 92" fill="none" xmlns="http://www.w3.org/2000/svg">
<g clip-path="url(#clip0)">
<path d="M25.4657 58.4426L20.0761 56.4214C19.0517 56.0373 18.3729 55.058 18.3729 53.9637V51.8457H10.499V53.9639C10.499 55.058 9.82028 56.0373 8.79588 56.4214L3.40634 58.4426C1.35736 59.2109 0 61.1695 0 63.3577V72.8434C0 74.293 1.17516 75.4681 2.6247 75.4681H28.8718V63.3577C28.8718 61.1695 27.5145 59.2109 25.4657 58.4426Z" fill="#E6AF78"/>
<path d="M14.4358 55.7828C15.9094 55.7828 17.3149 55.4995 18.6169 55.0042C18.4744 54.6788 18.3727 54.334 18.3727 53.9637V51.8457H10.4988V53.9639C10.4988 54.334 10.3973 54.6788 10.2546 55.0041C11.5567 55.4995 12.9622 55.7828 14.4358 55.7828Z" fill="#D29B6E"/>
<path d="M2.6247 75.4685H28.8718V63.3581C28.8718 61.1698 27.5145 59.2112 25.4655 58.4429L20.2819 56.499L16.2919 60.489C15.267 61.5139 13.605 61.5139 12.5799 60.489L8.58996 56.499L3.40616 58.4429C1.35736 59.211 0 61.1696 0 63.3579V72.8436C0 74.2933 1.17516 75.4685 2.6247 75.4685Z" fill="#DBD9DC"/>
<path d="M14.4865 53.1588H14.3851C9.33949 53.1588 5.24927 49.0686 5.24927 44.023V39.9845C5.24927 34.9389 9.33949 30.8486 14.3851 30.8486H14.4865C19.5321 30.8486 23.6223 34.9389 23.6223 39.9845V44.0228C23.6223 49.0684 19.5321 53.1588 14.4865 53.1588Z" fill="#F0C087"/>
<path d="M10.4989 43.9723V40.0352C10.4989 35.8743 13.267 32.3639 17.0607 31.2341C16.2286 30.9863 15.3487 30.8486 14.436 30.8486C9.36256 30.8486 5.24951 34.9615 5.24951 40.0352V43.9723C5.24951 49.0458 9.36256 53.1588 14.436 53.1588C15.3488 53.1588 16.2286 53.0212 17.0607 52.7734C13.2668 51.6433 10.4989 48.1329 10.4989 43.9723Z" fill="#E6AF78"/>
<path d="M4.09634 63.8164L0.828539 60.5488C0.305289 61.3722 0 62.3371 0 63.3581V72.8438C0 74.2933 1.17516 75.4684 2.6247 75.4684H5.24939V66.6003C5.24939 65.5562 4.83467 64.5548 4.09634 63.8164Z" fill="#EDEBED"/>
<path d="M13.1238 60.8945V75.4684H15.7485V60.8945C14.937 61.3655 13.9351 61.3655 13.1238 60.8945Z" fill="#EDEBED"/>
<path d="M14.4362 36.0979C17.3349 36.0979 19.6848 33.748 19.6848 30.8493C19.6848 27.9505 17.3349 25.6006 14.4362 25.6006C11.5374 25.6006 9.1875 27.9505 9.1875 30.8493C9.1875 33.748 11.5374 36.0979 14.4362 36.0979Z" fill="#6E4B53"/>
<path d="M5.24927 40.0352V42.9802C6.70294 42.2917 8.48328 41.206 9.84567 39.5904C10.2437 39.1184 10.9245 39.021 11.4629 39.3234C13.1929 40.2953 17.2499 42.1465 23.6223 42.5653V40.0352C23.6223 34.9615 19.5094 30.8486 14.4358 30.8486C9.36231 30.8486 5.24927 34.9615 5.24927 40.0352Z" fill="#5C414B"/>
<path d="M9.42053 32.3438C6.91084 33.9836 5.24927 36.8131 5.24927 40.0347V42.9798C6.70276 42.2914 8.48346 41.2056 9.84567 39.59C10.0545 39.3424 10.3414 39.2044 10.6444 39.1667C9.67227 37.3193 8.91292 34.9099 9.42053 32.3438Z" fill="#503441"/>
<path d="M89.1174 55.1723L82.5196 52.1178C81.6431 51.712 81.0783 50.8066 81.0783 49.8073V45.1299H71.3702V49.8073C71.3702 50.8064 70.8054 51.7118 69.9289 52.1176L63.331 55.1723C61.5779 55.9837 60.4482 57.7946 60.4482 59.7927V75.4683H89.5729C90.9133 75.4683 91.9999 74.3365 91.9999 72.9401V59.7929C92.0001 57.7946 90.8704 55.9837 89.1174 55.1723Z" fill="#FAD7A5"/>
<path d="M89.1174 55.1725L82.5645 52.1389L77.9405 56.7629C76.9926 57.7108 75.4559 57.7108 74.5081 56.7629L69.884 52.1387L63.331 55.1725C61.5779 55.9842 60.4482 57.7949 60.4482 59.7932V75.4688L89.5731 75.4686C90.9135 75.4686 92.0001 74.3367 92.0001 72.9404V59.7932C92.0001 57.7949 90.8704 55.9842 89.1174 55.1725Z" fill="#DBD9DC"/>
<path d="M71.3702 45.1299V49.8073C71.3702 50.2704 71.2381 50.7072 71.0205 51.0896C72.5683 51.932 74.3415 52.411 76.2243 52.411C78.107 52.411 79.88 51.9321 81.4278 51.0898C81.2102 50.7074 81.0782 50.2704 81.0782 49.8073V45.1299H71.3702Z" fill="#F0C891"/>
<path d="M76.2242 49.984C71.5328 49.984 67.7295 46.1808 67.7295 41.4893V34.208H84.7189V41.4893C84.7189 46.1808 80.9159 49.984 76.2242 49.984Z" fill="#FFE1B4"/>
<path d="M72.5836 41.4893V34.208H67.7295V41.4893C67.7295 46.1808 71.5328 49.984 76.2242 49.984C77.0682 49.984 77.8818 49.8568 78.6513 49.6275C75.1432 48.5828 72.5836 45.3368 72.5836 41.4893Z" fill="#FAD7A5"/>
<path d="M77.4376 28.1406H75.0106C70.3191 28.1406 66.5159 31.9439 66.5159 36.6354V38.5767C66.5159 39.476 67.47 40.0866 68.2655 39.667C69.4967 39.0177 70.9407 37.8062 71.911 36.4993C72.3029 35.9716 73.0565 35.8932 73.5833 36.2864C77.434 39.16 82.7975 38.4994 84.9658 38.0711C85.5309 37.9595 85.9324 37.4585 85.9324 36.8826V36.6352C85.9324 31.9437 82.1291 28.1406 77.4376 28.1406Z" fill="#D59F63"/>
<path d="M68.2654 39.6666C69.4966 39.0172 70.9406 37.8058 71.9109 36.4989C72.0594 36.2989 72.2665 36.1848 72.4868 36.1151C70.7712 33.7269 70.6542 31.0646 70.8673 29.2227C68.2723 30.6763 66.5156 33.4489 66.5156 36.6349V38.5763C66.5156 39.4754 67.4698 40.086 68.2654 39.6666Z" fill="#CD915A"/>
<path d="M85.9324 64.841C85.9324 63.8753 86.3158 62.9494 86.9986 62.2666L91.5631 57.7021C91.8444 58.3469 92.0001 59.0566 92.0001 59.7928V72.94C92.0001 74.3364 90.9135 75.4682 89.573 75.4682H85.9324V64.841Z" fill="#EDEBED"/>
<path d="M75.0107 57.1377V75.4683H77.4378V57.1377C76.6874 57.5733 75.7609 57.5733 75.0107 57.1377Z" fill="#EDEBED"/>
<path d="M61.3916 50.194L53.1756 46.3902C52.0842 45.8849 51.3807 44.7574 51.3807 43.5132V37.6885L39.2913 37.6887V43.5134C39.2913 44.7576 38.588 45.8849 37.4964 46.3902L29.2802 50.194C27.0972 51.2046 25.6904 53.4597 25.6904 55.948V72.3202C25.6904 74.059 27.0437 75.4685 28.7128 75.4685H61.9591C63.6284 75.4685 64.9814 74.0589 64.9814 72.3202V55.9482C64.9814 53.4598 63.5747 51.2048 61.3916 50.194Z" fill="#B48764"/>
<path d="M28.713 75.4686L61.9593 75.4684C63.6286 75.4684 64.9816 74.0588 64.9816 72.3201V55.9481C64.9816 53.4596 63.5746 51.2047 61.3918 50.1939L53.2317 46.4162L47.4734 52.1745C46.293 53.3548 44.3794 53.3548 43.199 52.1745L37.4405 46.416L29.2802 50.1939C27.0972 51.2045 25.6904 53.4594 25.6904 55.9479V72.3201C25.6904 74.059 27.0437 75.4686 28.713 75.4686Z" fill="#5D5360"/>
<path d="M39.2913 37.6885V43.5132C39.2913 44.0898 39.1267 44.6339 38.856 45.1101C40.7835 46.1591 42.9915 46.7557 45.3362 46.7557C47.6808 46.7557 49.8886 46.1593 51.8163 45.1103C51.5453 44.6341 51.3809 44.0898 51.3809 43.5132V37.6885H39.2913Z" fill="#966D50"/>
<path d="M45.3362 43.7335C39.4938 43.7335 34.7578 38.9973 34.7578 33.1551V24.0879H55.9148V33.1551C55.9146 38.9973 51.1784 43.7335 45.3362 43.7335Z" fill="#C39772"/>
<path d="M40.8024 33.1551V24.0879H34.7576V33.1551C34.7576 38.9975 39.4938 43.7335 45.336 43.7335C46.387 43.7335 47.4002 43.575 48.3583 43.2897C43.9899 41.9885 40.8024 37.9465 40.8024 33.1551Z" fill="#B48764"/>
<path d="M46.8476 16.5312H43.8252C37.9829 16.5312 33.2468 21.2674 33.2468 27.1096V29.5271C33.2468 30.647 34.4351 31.4074 35.4255 30.885C36.9586 30.0764 38.7569 28.5678 39.9653 26.9404C40.4534 26.2831 41.3917 26.1857 42.0479 26.6753C46.8432 30.2536 53.5224 29.4312 56.2226 28.8979C56.9262 28.759 57.4263 28.1351 57.4263 27.418V27.1098C57.4259 21.2674 52.6897 16.5312 46.8476 16.5312Z" fill="#5C414B"/>
<path d="M35.4255 30.8857C36.9586 30.0771 38.7567 28.5684 39.9651 26.941C40.15 26.6919 40.4078 26.5498 40.6824 26.463C38.5459 23.489 38.4002 20.1738 38.6656 17.8799C35.4339 19.6902 33.2466 23.1428 33.2466 27.1104V29.5279C33.2466 30.6478 34.4349 31.4082 35.4255 30.8857Z" fill="#503441"/>
<path d="M33.2465 62.2346C33.2465 61.0321 32.7689 59.8791 31.9186 59.0288L26.2345 53.3447C25.8841 54.1476 25.6904 55.0315 25.6904 55.948V72.3203C25.6904 74.0591 27.0437 75.4688 28.7128 75.4688H33.2465V62.2346Z" fill="#6F6571"/>
<path d="M57.4255 62.2346C57.4255 61.0321 57.9031 59.8791 58.7534 59.0288L64.4375 53.3447C64.7879 54.1476 64.9816 55.0315 64.9816 55.948V72.3203C64.9816 74.0591 63.6283 75.4688 61.9592 75.4688H57.4255V62.2346Z" fill="#6F6571"/>
<path d="M43.8247 52.6416V75.4686L46.847 75.4684V52.6416C45.9128 53.1839 44.7591 53.1839 43.8247 52.6416Z" fill="#6F6571"/>
</g>
<defs>
<clipPath id="clip0">
<rect width="92" height="92" fill="white"/>
</clipPath>
</defs>
</svg>
