<?xml version="1.0" encoding="utf-8"?>
<svg width="95" height="95" viewBox="0 0 95 95" fill="none" xmlns="http://www.w3.org/2000/svg">
<g clip-path="url(#clip0)">
<path d="M6.55176 88.4482H88.4483V0H6.55176V88.4482Z" fill="#E6EEF3"/>
<path d="M0 95H95V88.4482H0V95Z" fill="#CAD3DB"/>
<path d="M16.3794 18.0171H29.4827V8.18945H16.3794V18.0171Z" fill="#9AABB4"/>
<path d="M16.3794 36.0347H29.4827V26.207H16.3794V36.0347Z" fill="#9AABB4"/>
<path d="M40.9482 36.0347H54.0517V26.207H40.9482V36.0347Z" fill="#9AABB4"/>
<path d="M65.5173 36.0347H78.6207V26.207H65.5173V36.0347Z" fill="#9AABB4"/>
<path d="M40.9482 54.0513H54.0517V44.2236H40.9482V54.0513Z" fill="#9AABB4"/>
<path d="M65.5173 54.0513H78.6207V44.2236H65.5173V54.0513Z" fill="#9AABB4"/>
<path d="M16.3794 54.0513H29.4827V44.2236H16.3794V54.0513Z" fill="#9AABB4"/>
<path d="M40.9482 18.0171H54.0517V8.18945H40.9482V18.0171Z" fill="#9AABB4"/>
<path d="M65.5173 18.0171H78.6207V8.18945H65.5173V18.0171Z" fill="#9AABB4"/>
<path d="M47.5 88.448H60.6035V68.793H47.5V88.448Z" fill="#9AABB4"/>
<path d="M34.3965 88.448H47.5V68.793H34.3965V88.448Z" fill="#788992"/>
<path d="M57.3282 63.8794H37.6731C36.7673 63.8794 36.0352 63.1472 36.0352 62.2415C36.0352 61.3357 36.7673 60.6035 37.6731 60.6035H57.3284C58.2341 60.6035 58.9663 61.3357 58.9663 62.2415C58.9661 63.1472 58.234 63.8794 57.3282 63.8794Z" fill="#9AABB4"/>
<g clip-path="url(#clip1)">
<path d="M34.7118 85.2362L30.9398 83.8216C30.2228 83.5527 29.7477 82.8673 29.7477 82.1015V80.6191H24.2369V82.1016C24.2369 82.8673 23.7619 83.5527 23.045 83.8216L19.2729 85.2362C17.8389 85.7739 16.8889 87.1447 16.8889 88.6762V95.315C16.8889 96.3295 17.7114 97.152 18.7259 97.152H37.0957V88.6762C37.0957 87.1447 36.1457 85.7739 34.7118 85.2362Z" fill="#E6AF78"/>
<path d="M26.9922 83.3747C28.0236 83.3747 29.0073 83.1763 29.9185 82.8297C29.8188 82.602 29.7476 82.3607 29.7476 82.1015V80.6191H24.2368V82.1016C24.2368 82.3607 24.1658 82.602 24.0659 82.8296C24.9772 83.1763 25.9609 83.3747 26.9922 83.3747Z" fill="#D29B6E"/>
<path d="M18.7259 97.1523H37.0957V88.6765C37.0957 87.145 36.1457 85.7742 34.7117 85.2364L31.0838 83.876L28.2913 86.6685C27.5739 87.3858 26.4108 87.3858 25.6933 86.6685L22.9009 83.876L19.2728 85.2364C17.8389 85.7741 16.8889 87.1448 16.8889 88.6763V95.3152C16.8889 96.3298 17.7114 97.1523 18.7259 97.1523Z" fill="#DBD9DC"/>
<path d="M27.0277 81.5373H26.9567C23.4254 81.5373 20.5627 78.6746 20.5627 75.1433V72.3168C20.5627 68.7855 23.4254 65.9229 26.9567 65.9229H27.0277C30.559 65.9229 33.4217 68.7855 33.4217 72.3168V75.1432C33.4217 78.6745 30.559 81.5373 27.0277 81.5373Z" fill="#F0C087"/>
<path d="M24.2367 75.1078V72.3523C24.2367 69.4402 26.174 66.9834 28.8292 66.1926C28.2468 66.0192 27.6309 65.9229 26.9922 65.9229C23.4414 65.9229 20.5627 68.8014 20.5627 72.3523V75.1078C20.5627 78.6586 23.4414 81.5373 26.9922 81.5373C27.6311 81.5373 28.2468 81.4409 28.8292 81.2675C26.1739 80.4766 24.2367 78.0198 24.2367 75.1078Z" fill="#E6AF78"/>
<path d="M19.7559 88.9969L17.4688 86.71C17.1026 87.2862 16.8889 87.9615 16.8889 88.6761V95.3149C16.8889 96.3294 17.7114 97.1519 18.7259 97.1519H20.5629V90.9453C20.5629 90.2145 20.2726 89.5136 19.7559 88.9969Z" fill="#EDEBED"/>
<path d="M26.074 86.9521V97.1521H27.9109V86.9521C27.343 87.2818 26.6418 87.2818 26.074 86.9521Z" fill="#EDEBED"/>
<path d="M26.9925 69.5969C29.0213 69.5969 30.666 67.9522 30.666 65.9234C30.666 63.8947 29.0213 62.25 26.9925 62.25C24.9637 62.25 23.3191 63.8947 23.3191 65.9234C23.3191 67.9522 24.9637 69.5969 26.9925 69.5969Z" fill="#6E4B53"/>
<path d="M20.5627 72.3523V74.4135C21.5801 73.9316 22.8262 73.1718 23.7797 72.0411C24.0582 71.7107 24.5347 71.6425 24.9115 71.8542C26.1223 72.5344 28.9617 73.83 33.4217 74.1231V72.3523C33.4217 68.8014 30.5431 65.9229 26.9922 65.9229C23.4414 65.9229 20.5627 68.8014 20.5627 72.3523Z" fill="#5C414B"/>
<path d="M23.4821 66.9697C21.7256 68.1174 20.5627 70.0977 20.5627 72.3525V74.4137C21.58 73.9319 22.8263 73.1719 23.7797 72.0412C23.9258 71.8679 24.1266 71.7714 24.3387 71.7449C23.6583 70.452 23.1269 68.7657 23.4821 66.9697Z" fill="#503441"/>
<path d="M79.2602 82.9474L74.6426 80.8096C74.0292 80.5256 73.6339 79.8919 73.6339 79.1926V75.9189H66.8394V79.1926C66.8394 79.8918 66.4441 80.5255 65.8306 80.8095L61.2129 82.9474C59.986 83.5153 59.1953 84.7827 59.1953 86.1812V97.1522H79.579C80.5172 97.1522 81.2777 96.36 81.2777 95.3827V86.1813C81.2778 84.7827 80.4872 83.5153 79.2602 82.9474Z" fill="#FAD7A5"/>
<path d="M79.2602 82.9466L74.6741 80.8234L71.4378 84.0597C70.7744 84.723 69.6989 84.723 69.0355 84.0597L65.7992 80.8232L61.2129 82.9466C59.986 83.5146 59.1953 84.7819 59.1953 86.1805V97.1515L79.5792 97.1514C80.5173 97.1514 81.2778 96.3592 81.2778 95.3819V86.1805C81.2778 84.7819 80.4872 83.5146 79.2602 82.9466Z" fill="#DBD9DC"/>
<path d="M66.8395 75.9189V79.1926C66.8395 79.5167 66.747 79.8224 66.5947 80.09C67.678 80.6796 68.919 81.0148 70.2367 81.0148C71.5544 81.0148 72.7953 80.6797 73.8786 80.0901C73.7263 79.8225 73.6339 79.5167 73.6339 79.1926V75.9189H66.8395Z" fill="#F0C891"/>
<path d="M70.2365 79.3157C66.9531 79.3157 64.2913 76.6539 64.2913 73.3704V68.2744H76.1818V73.3704C76.1818 76.6539 73.5201 79.3157 70.2365 79.3157Z" fill="#FFE1B4"/>
<path d="M67.6885 73.3704V68.2744H64.2913V73.3704C64.2913 76.6539 66.9531 79.3157 70.2365 79.3157C70.8272 79.3157 71.3967 79.2267 71.9352 79.0662C69.48 78.3351 67.6885 76.0632 67.6885 73.3704Z" fill="#FAD7A5"/>
<path d="M71.0861 64.0283H69.3874C66.104 64.0283 63.4421 66.6901 63.4421 69.9736V71.3323C63.4421 71.9617 64.1099 72.3891 64.6667 72.0954C65.5284 71.6409 66.539 70.7931 67.2181 69.8784C67.4923 69.509 68.0198 69.4542 68.3885 69.7294C71.0835 71.7405 74.8373 71.2782 76.3549 70.9784C76.7504 70.9003 77.0313 70.5497 77.0313 70.1466V69.9735C77.0313 66.69 74.3695 64.0283 71.0861 64.0283Z" fill="#D59F63"/>
<path d="M64.6665 72.0947C65.5282 71.6402 66.5389 70.7923 67.218 69.8777C67.3218 69.7377 67.4668 69.6578 67.621 69.609C66.4203 67.9376 66.3384 66.0743 66.4875 64.7852C64.6713 65.8026 63.4419 67.743 63.4419 69.9729V71.3316C63.4419 71.9609 64.1097 72.3882 64.6665 72.0947Z" fill="#CD915A"/>
<path d="M77.0312 89.7141C77.0312 89.0382 77.2996 88.3902 77.7775 87.9123L80.972 84.7178C81.169 85.169 81.2779 85.6657 81.2779 86.181V95.3824C81.2779 96.3597 80.5174 97.1519 79.5793 97.1519H77.0312V89.7141Z" fill="#EDEBED"/>
<path d="M69.3875 84.3223V97.1515H71.0861V84.3223C70.5609 84.6271 69.9125 84.6271 69.3875 84.3223Z" fill="#EDEBED"/>
<path d="M59.8557 79.4623L54.1054 76.8001C53.3416 76.4465 52.8492 75.6573 52.8492 74.7866V70.71L44.3881 70.7101V74.7867C44.3881 75.6575 43.8959 76.4465 43.1319 76.8001L37.3816 79.4623C35.8537 80.1696 34.8691 81.7479 34.8691 83.4894V94.948C34.8691 96.165 35.8162 97.1514 36.9844 97.1514H60.2528C61.4211 97.1514 62.3681 96.1648 62.3681 94.948V83.4895C62.3681 81.748 61.3835 80.1697 59.8557 79.4623Z" fill="#B48764"/>
<path d="M36.9845 97.1517L60.2529 97.1515C61.4212 97.1515 62.3682 96.165 62.3682 94.9481V83.4897C62.3682 81.748 61.3835 80.1699 59.8558 79.4625L54.1447 76.8185L50.1146 80.8486C49.2885 81.6747 47.9491 81.6747 47.123 80.8486L43.0928 76.8184L37.3816 79.4625C35.8537 80.1697 34.8691 81.7479 34.8691 83.4895V94.9481C34.8691 96.1651 35.8162 97.1517 36.9845 97.1517Z" fill="#5D5360"/>
<path d="M44.3882 70.71V74.7866C44.3882 75.1901 44.273 75.5709 44.0835 75.9042C45.4325 76.6384 46.9778 77.0559 48.6189 77.0559C50.2598 77.0559 51.805 76.6385 53.1541 75.9043C52.9645 75.5711 52.8494 75.1901 52.8494 74.7866V70.71H44.3882Z" fill="#966D50"/>
<path d="M48.6187 74.9409C44.5297 74.9409 41.2151 71.6262 41.2151 67.5374V61.1914H56.0224V67.5374C56.0223 71.6262 52.7075 74.9409 48.6187 74.9409Z" fill="#C39772"/>
<path d="M45.4458 67.5374V61.1914H41.2151V67.5374C41.2151 71.6263 44.5299 74.9409 48.6187 74.9409C49.3543 74.9409 50.0634 74.83 50.734 74.6303C47.6766 73.7197 45.4458 70.8907 45.4458 67.5374Z" fill="#B48764"/>
<path d="M49.6766 55.9033H47.5613C43.4724 55.9033 40.1577 59.2181 40.1577 63.3069V64.9989C40.1577 65.7826 40.9894 66.3148 41.6825 65.9492C42.7555 65.3833 44.0141 64.3274 44.8599 63.1884C45.2014 62.7284 45.8581 62.6603 46.3174 63.0029C49.6736 65.5073 54.3482 64.9317 56.238 64.5585C56.7304 64.4613 57.0804 64.0246 57.0804 63.5227V63.307C57.0802 59.2181 53.7654 55.9033 49.6766 55.9033Z" fill="#5C414B"/>
<path d="M41.6824 65.9492C42.7554 65.3832 44.0139 64.3274 44.8596 63.1884C44.989 63.0141 45.1695 62.9146 45.3617 62.8538C43.8664 60.7724 43.7644 58.4521 43.9501 56.8467C41.6883 58.1137 40.1575 60.5301 40.1575 63.3069V64.9989C40.1575 65.7826 40.9891 66.3149 41.6824 65.9492Z" fill="#503441"/>
<path d="M40.1575 87.8898C40.1575 87.0482 39.8232 86.2412 39.2281 85.6461L35.2499 81.668C35.0047 82.2299 34.8691 82.8485 34.8691 83.49V94.9486C34.8691 96.1655 35.8162 97.1521 36.9844 97.1521H40.1575V87.8898Z" fill="#6F6571"/>
<path d="M57.0798 87.8898C57.0798 87.0482 57.4141 86.2412 58.0092 85.6461L61.9873 81.668C62.2326 82.2299 62.3681 82.8485 62.3681 83.49V94.9486C62.3681 96.1655 61.421 97.1521 60.2529 97.1521H57.0798V87.8898Z" fill="#6F6571"/>
<path d="M47.5608 81.1758V97.1519L49.6761 97.1518V81.1758C49.0222 81.5553 48.2147 81.5553 47.5608 81.1758Z" fill="#6F6571"/>
</g>
</g>
<defs>
<clipPath id="clip0">
<rect width="95" height="95" fill="white"/>
</clipPath>
<clipPath id="clip1">
<rect width="64.3889" height="64.3889" fill="white" transform="translate(16.8889 44.333)"/>
</clipPath>
</defs>
</svg>
