<?xml version="1.0" encoding="utf-8"?>
<!-- Generator: Adobe Illustrator 21.1.0, SVG Export Plug-In . SVG Version: 6.00 Build 0)  -->
<svg version="1.1" id="Layer_1" xmlns="http://www.w3.org/2000/svg" xmlns:xlink="http://www.w3.org/1999/xlink" x="0px" y="0px"
	 viewBox="0 0 600.7 183.9" style="enable-background:new 0 0 600.7 183.9;" xml:space="preserve">
<style type="text/css">
	.st0{fill:#0000FA;}
	.st1{fill:#F2F2FE;}
	.st2{fill:#D8D8FE;}
	.st3{fill:#B2B2FC;}
	.st4{fill:#E5E5FE;}
</style>
<g>
	<polygon class="st0" points="73.7,3.8 47.6,7.7 0,92.1 47.6,176.3 73.7,180.3 22.9,92.1 	"/>
	<polygon class="st0" points="140.4,3.8 166.5,7.7 214.1,92.1 166.5,176.3 140.4,180.3 191.1,92.1 	"/>
	<path class="st1" d="M73.7,3.8L107,0v92.1H22.9L73.7,3.8z"/>
	<path class="st2" d="M73.7,180.3L107,184V92.1H22.9L73.7,180.3z"/>
	<path class="st3" d="M140.4,180.3L107,184V92.1h84.1L140.4,180.3z"/>
	<path class="st4" d="M140.4,3.8L107,0v92.1h84.1L140.4,3.8z"/>
	<path d="M300.6,77.6c-5.7,1.4-11.6,2.1-17.4,2.1c-4.2,0.2-8.5-0.4-12.5-1.8c-3-1.2-5.6-3.4-7.4-6.2c-1.9-3-3.1-6.4-3.8-9.9
		c-0.7-4.7-1-9.5-0.9-14.3c0-12,1.7-20.4,5.1-25.1s9.6-7.2,18.6-7.2c6.2,0.1,12.3,1,18.3,2.6l-0.5,10.1c-5-0.8-10-1.3-15-1.4
		c-4.1,0-6.9,0.6-8.6,1.7c-1.7,1.1-3,3-3.8,6c-0.8,3-1.4,8.1-1.4,15.3s0.9,12.2,2.6,15c1.7,2.9,5.1,4.1,10.1,4.1
		c5.4,0,10.8-0.4,16.1-1.2L300.6,77.6z M311.4,38.1c3.3-4.2,8.7-6.3,16.2-6.3c7.5,0,12.9,2.1,16.2,6.3s5,10.1,5,17.6
		c0,16.1-7.1,24-21.2,24c-14.1,0-21-8-21-24C306.6,48.1,308.2,42.3,311.4,38.1z M321,66c1.2,2.3,3.5,3.3,6.6,3.3s5.6-1.1,6.8-3.3
		c1.5-3.3,2.1-6.8,2-10.4c0.2-3.5-0.5-7-2-10.2c-1.2-2.1-3.5-3.3-6.8-3.3c-2.6-0.2-5.2,1-6.6,3.3c-1.4,2.1-2,5.6-2,10.2
		S319.6,63.7,321,66L321,66z M396.5,14.5v64.1h-12.2v-2c-3.4,1.8-7.2,2.9-11.1,3c-6.6,0-11.3-1.8-13.8-5.7
		c-2.6-3.9-3.9-9.9-3.9-18.3s1.5-14.3,4.7-18.2s7.8-5.7,14.3-5.7c2.7,0.1,5.4,0.4,8.1,0.9l1.8,0.5V14.5H396.5z M383,67.6l1.4-0.3
		v-24c-3-0.6-6-0.9-9-0.9c-5,0-7.4,4.4-7.4,13.2c0,4.7,0.5,8.1,1.7,10.1c1,2,3.2,3.2,5.4,3C377.8,68.7,380.4,68.3,383,67.6z
		 M420.3,67c1.7,1.4,3.9,2.1,6.2,2c5.7,0,10.7-0.3,15.2-0.6l2.6-0.3v9c-6.2,1.7-12.5,2.6-18.9,2.7c-6.9,0-12-2-15-5.6
		c-3-3.6-4.7-9.6-4.7-17.9c0-16.4,6.6-24.6,20.1-24.6c13.5,0,20,6.9,20,20.7l-0.9,8.6H418C417.8,63.3,418.6,65.5,420.3,67z
		 M433.8,51.6c0-3.6-0.6-6.2-1.8-7.7c-1.1-1.4-3.2-2.1-6-2.1c-2.9,0-5,0.8-6.2,2.3c-1.2,1.5-1.8,4.1-2,7.5H433.8z M489.2,43.3v35.3
		h-12.3V43.3h-4.8V32.8h4.8v-2c0-6.6,1.1-11.1,3-13.7c2-2.6,5.4-3.8,10.5-3.8c2.8,0.1,5.6,0.4,8.4,0.9l2,0.3v10.1l-6.8-0.3
		c-1.4-0.1-2.8,0.4-3.8,1.5c-0.7,1.6-1,3.4-0.9,5.1v1.8h11.1v10.5L489.2,43.3z M509.6,38.1c3.2-4.2,8.6-6.3,16.1-6.3
		s13.1,2.1,16.2,6.3c3.2,4.2,5,10.1,5,17.6c0,16.1-7.1,24-21.2,24c-14.1,0-21-8-21-24C504.7,48.1,506.3,42.3,509.6,38.1L509.6,38.1z
		 M519.1,66c1.2,2.3,3.5,3.3,6.6,3.3c3.2,0,5.6-1.1,6.8-3.3c1.2-2.3,2-5.7,2-10.4s-0.6-8.1-2-10.2c-1.4-2.1-3.5-3.2-6.8-3.2
		c-3.3,0-5.4,1.1-6.6,3.2c-1.2,2.1-2,5.6-2,10.2S517.7,63.7,519.1,66L519.1,66z M555.7,78.6V32.8h12.2v5c4.5-2.9,9.5-4.9,14.7-6
		v12.3c-4.3,0.9-8.6,2-12.8,3.3l-1.8,0.6v30.6H555.7z M273.7,149.4v20.9h-12.6v-62.3h24.2c14.7,0,21.9,6.9,21.9,20.6
		c0,8.1-3,14.1-9.2,17.9l8.9,23.9h-13.8l-7.2-20.9H273.7z M292.2,135.8c1.5-2.1,2.3-4.7,2.1-7.4c0.1-2.5-0.7-5.1-2.3-7.1
		c-1.7-1.9-4.2-2.9-6.8-2.7h-11.6v19.8h11.7C287.9,138.7,290.4,137.7,292.2,135.8z M318.4,129.5c3.3-4.1,8.7-6.2,16.2-6.2
		c7.5,0,13.1,2.1,16.2,6.2c3.2,4.1,4.8,10.1,4.8,17.7c0,16.1-6.9,24-21,24c-14.1,0-21-8-21-24C313.6,139.6,315.3,133.7,318.4,129.5z
		 M327.9,157.6c1.5,2.2,4.1,3.5,6.8,3.3c3.3,0,5.6-1.2,6.8-3.3c1.5-3.3,2.1-6.8,2-10.4c0.2-3.6-0.5-7.1-2-10.4
		c-1.2-2.1-3.5-3.2-6.8-3.2c-2.7-0.3-5.2,1-6.8,3.2c-1.2,2.3-1.8,5.6-1.8,10.4S326.7,155.4,327.9,157.6L327.9,157.6z M377,170.2
		h-12.3v-45.8h12.2v2.6c3.2-2.1,7-3.3,10.8-3.6c5,0,8.7,1.4,11.4,4.2c4.8-2.6,10.1-4,15.5-4.2c6,0,10.2,1.7,12.6,5.3
		c2.4,3.6,3.5,9,3.5,16.8v24.8h-12.3v-24.5c0.2-3-0.2-5.9-1.2-8.7c-1-1.9-3-2.9-5.1-2.7c-2.4,0.1-4.9,0.5-7.2,1.2l-1.4,0.5
		c0.3,4.7,0.5,8.1,0.5,10.5v23.7h-12.3v-23.6c0.1-3.2-0.3-6.5-1.2-9.6c-0.8-1.8-2.6-2.7-5.3-2.7c-2.4,0-4.8,0.4-7.1,1.2L377,136
		V170.2z M476.6,138.7v19.1c0,1,0.2,2.1,0.8,3c0.5,0.8,1.3,1.2,2.3,1.2l-0.3,9.3c-2.5,0.1-5-0.1-7.5-0.6c-2-0.5-3.9-1.4-5.6-2.6
		c-4.2,2-8.8,3.1-13.5,3.2c-9.5,0-14.3-5-14.3-15c0-4.9,1.4-8.4,4.1-10.4c2.6-2.1,6.6-3.3,12-3.6l9.8-0.8v-2.9
		c0.1-1.4-0.3-2.8-1.2-3.9c-1.2-0.8-2.7-1.2-4.2-1.1l-17.1,0.8l-0.5-8.6c6.1-1.7,12.3-2.6,18.6-2.7c6,0,10.2,1.4,12.8,3.8
		S476.6,133.3,476.6,138.7L476.6,138.7z M456,150.9c-3.5,0.3-5.1,2.1-5.1,5.4s1.5,5.1,4.5,5.1c2.5-0.1,5.1-0.5,7.5-1.2l1.4-0.3v-9.8
		L456,150.9z M500.6,170.2h-12.3v-45.8h12.2v2.6c3.4-2.2,7.4-3.4,11.4-3.6c6.2,0,10.4,1.8,12.6,5.4c2.4,3.6,3.6,9.2,3.6,16.5v24.9
		h-12.3v-24.5c0.2-3-0.3-5.9-1.4-8.7c-0.9-1.8-2.9-2.7-5.6-2.7c-2.5-0.1-4.9,0.3-7.2,1.2l-1.1,0.5L500.6,170.2z M538.9,118.6v-12.5
		h12.3v12.5L538.9,118.6z M538.9,170.2v-45.8h12.3v45.8L538.9,170.2z M597.7,138.7v19.1c0,1,0.2,2.1,0.8,3c0.5,0.8,1.3,1.2,2.3,1.2
		l-0.3,9.3c-2.5,0.1-5-0.1-7.5-0.6c-2-0.5-4-1.4-5.7-2.6c-4.2,2-8.7,3.1-13.4,3.2c-9.5,0-14.3-5-14.3-15c0-5,1.4-8.4,3.9-10.4
		c2.6-2,6.8-3.3,12.2-3.6l9.8-0.8v-2.9c0.1-1.4-0.3-2.8-1.2-3.9c-1.2-0.8-2.7-1.2-4.2-1.1l-17.1,0.8l-0.5-8.6
		c6.1-1.7,12.3-2.6,18.6-2.7c6,0,10.2,1.4,12.8,3.8C596.3,129.4,597.7,133.3,597.7,138.7L597.7,138.7z M577.1,150.9
		c-3.5,0.3-5.1,2.1-5.1,5.4s1.5,5.1,4.4,5.1c2.6-0.1,5.2-0.5,7.7-1.2l1.4-0.3v-9.8L577.1,150.9z"/>
</g>
</svg>
