<svg xmlns="http://www.w3.org/2000/svg" x="0px" y="0px" viewBox="0 0 1000 1000"><path d="M500 10C229.4 10 10 229.4 10 500s219.4 490 490 490 490-219.4 490-490S770.6 10 500 10zm-64.7 733.6c-49.3 49.3-129.6 49.3-179 0-49.3-49.3-49.3-129.6 0-178.9l126.8-126.8c49.3-49.3 129.6-49.3 179 0 1.3 1.3 2.6 2.7 3.9 4.1.7.6 1.5 1.3 2.2 2 2 2 3.6 4.2 5 6.5.2.2.3.4.5.6l-.1.1c6.1 11.5 4.3 26-5.4 35.6-9.7 9.7-24.4 11.5-35.9 5.2-.8.8-8.7-7.1-13-11.3-25.8-25.8-67.3-26-93.1-.2l-127 127c-25.8 25.8-25.8 67.5 0 93.3 25.8 25.8 67.5 25.8 93.3 0l76.4-76.4c26.5 13 57.7 13.4 84.5 1.1L435.3 743.6zm308.3-308.3L616.9 562.1c-49.3 49.3-129.6 49.3-179 0-1.3-1.3-2.6-2.7-3.9-4.1-.7-.6-1.5-1.3-2.1-2-2-2-3.6-4.2-5-6.5-.2-.2-.3-.4-.5-.6l.1-.1c-6.1-11.5-4.3-26 5.4-35.6 9.7-9.7 24.4-11.4 35.9-5.2.8-.8 8.7 7.1 13 11.3 25.8 25.8 67.3 26 93.1.2l127-127c25.8-25.8 25.8-67.5 0-93.3-25.8-25.8-67.5-25.8-93.3 0L531 375.6c-26.4-12.9-57.7-13.4-84.5-1.1l118.1-118.1c49.3-49.3 129.6-49.3 179 0 49.4 49.3 49.4 129.6 0 178.9z"/></svg>