<?xml version="1.0"?>
<svg xmlns="http://www.w3.org/2000/svg" xmlns:xlink="http://www.w3.org/1999/xlink" xmlns:svgjs="http://svgjs.com/svgjs" version="1.1" width="512" height="512" x="0" y="0" viewBox="0 0 512 512" style="enable-background:new 0 0 512 512" xml:space="preserve" class=""><g>
<circle xmlns="http://www.w3.org/2000/svg" style="" cx="256" cy="256" r="256" fill="#352245" data-original="#25b7d3"/>
<path xmlns="http://www.w3.org/2000/svg" style="" d="M387.016,131.565l-6.582-6.582c-23.654-23.65-61.919-23.645-85.574,0l-58.307,58.307  c-2.616,2.616-4.091,6.167-4.091,9.872c0,3.705,1.471,7.256,4.091,9.872l21.9,21.904l-33.778,33.778l-21.904-21.9  c-5.236-5.236-14.513-5.236-19.749,0l-58.14,58.145c-23.645,23.65-23.65,61.924,0,85.574l6.586,6.586  c23.64,23.645,61.919,23.65,85.574,0l58.145-58.149c5.455-5.455,5.455-14.294,0-19.749l-24.176-24.176l33.778-33.778l24.176,24.176  c2.616,2.616,6.167,4.091,9.872,4.091c3.705,0,7.256-1.471,9.872-4.091l58.307-58.308  C410.61,193.545,410.61,155.159,387.016,131.565z M245.56,319.102l-48.272,48.272c-6.153,6.153-14.336,9.542-23.035,9.542  c-8.704,0-16.887-3.389-23.04-9.542l-6.586-6.582c-6.153-6.153-9.542-14.336-9.542-23.04c0-8.699,3.389-16.882,9.542-23.035  l48.272-48.277l12.027,12.027l-17.092,17.091c-7.27,7.27-7.27,19.06,0,26.331s19.06,7.27,26.331,0l17.091-17.091L245.56,319.102z   M367.267,197.39l-48.431,48.431l-14.303-14.303l14.881-14.881c7.27-7.27,7.27-19.06,0-26.331s-19.06-7.27-26.331,0l-14.881,14.885  l-12.023-12.027l48.431-48.431c6.153-6.153,14.336-9.546,23.04-9.546s16.882,3.393,23.04,9.546l6.582,6.582  C379.974,164.017,379.974,184.688,367.267,197.39z" fill="#e2e4e5" data-original="#e2e4e5"/>
<path xmlns="http://www.w3.org/2000/svg" style="" d="M380.332,124.779c-23.654-23.65-61.919-23.645-85.574,0l-58.307,58.307  c-2.616,2.616-4.091,6.167-4.091,9.872s1.471,7.256,4.091,9.872l22.011,22.011l-33.778,33.778l-22.011-22.011  c-5.236-5.236-14.513-5.236-19.749,0l-58.145,58.149c-23.645,23.65-23.65,61.924,0,85.574l4.105,4.105l19.749-19.749l-4.11-4.101  c-6.153-6.158-9.542-14.336-9.542-23.04c0-8.699,3.389-16.882,9.542-23.035l48.272-48.277l12.134,12.134l-17.203,17.203  c-7.27,7.27-7.27,19.06,0,26.331c0.619,0.619,1.313,1.112,1.992,1.624l131.216-131.216c-0.512-0.68-1.005-1.368-1.624-1.992  c-7.27-7.27-19.06-7.27-26.331,0l-14.774,14.774l-12.134-12.134l48.435-48.431c6.153-6.153,14.336-9.546,23.04-9.546  s16.882,3.393,23.04,9.546l4.105,4.105l19.749-19.749L380.332,124.779z" fill="#ffffff" data-original="#ffffff"/>
<g xmlns="http://www.w3.org/2000/svg">
</g>
<g xmlns="http://www.w3.org/2000/svg">
</g>
<g xmlns="http://www.w3.org/2000/svg">
</g>
<g xmlns="http://www.w3.org/2000/svg">
</g>
<g xmlns="http://www.w3.org/2000/svg">
</g>
<g xmlns="http://www.w3.org/2000/svg">
</g>
<g xmlns="http://www.w3.org/2000/svg">
</g>
<g xmlns="http://www.w3.org/2000/svg">
</g>
<g xmlns="http://www.w3.org/2000/svg">
</g>
<g xmlns="http://www.w3.org/2000/svg">
</g>
<g xmlns="http://www.w3.org/2000/svg">
</g>
<g xmlns="http://www.w3.org/2000/svg">
</g>
<g xmlns="http://www.w3.org/2000/svg">
</g>
<g xmlns="http://www.w3.org/2000/svg">
</g>
<g xmlns="http://www.w3.org/2000/svg">
</g>
</g></svg>
