<?xml version="1.0" encoding="utf-8"?>
<svg width="77" height="77" viewBox="0 0 77 77" fill="none" xmlns="http://www.w3.org/2000/svg">
<path d="M38.5 0C17.2702 0 0 17.2702 0 38.5C0 59.7298 17.2702 77 38.5 77C59.7298 77 77 59.7298 77 38.5C77 17.2702 59.7298 0 38.5 0Z" fill="#5D5360"/>
<path d="M52.6779 48.1412C53.9322 49.396 53.9322 51.4234 52.6779 52.6782C52.0523 53.3038 51.231 53.6181 50.4092 53.6181C49.5879 53.6181 48.7666 53.3038 48.141 52.6782L38.5001 43.0367L28.8592 52.6782C28.2336 53.3038 27.4123 53.6181 26.5911 53.6181C25.7692 53.6181 24.9479 53.3038 24.3223 52.6782C23.068 51.4234 23.068 49.396 24.3223 48.1412L33.9637 38.5004L24.3223 28.8595C23.068 27.6047 23.068 25.5773 24.3223 24.3225C25.5771 23.0683 27.6044 23.0683 28.8592 24.3225L38.5001 33.964L48.141 24.3225C49.3958 23.0683 51.4231 23.0683 52.6779 24.3225C53.9322 25.5773 53.9322 27.6047 52.6779 28.8595L43.0365 38.5004L52.6779 48.1412Z" fill="#FAFAFA"/>
</svg>
