<?xml version="1.0" encoding="utf-8"?>
<svg width="85" height="75" viewBox="0 0 85 75" fill="none" xmlns="http://www.w3.org/2000/svg">
<g clip-path="url(#clip0)">
<path d="M40.1736 43.3616C40.0326 44.3503 40.0326 45.4802 39.7507 46.4689C39.4688 47.3164 38.9049 48.0226 38.764 49.0113C38.623 49.7175 38.764 50.565 38.764 51.4124C38.764 51.8362 38.764 52.1187 38.764 52.2599C38.764 52.4011 38.764 52.5424 38.764 52.5424C38.623 52.5424 38.4821 52.5424 38.3411 52.5424H37.4953C36.6496 52.5424 36.7905 52.8249 35.9447 52.9661C34.1122 52.9661 32.4207 52.6836 30.5882 52.8249C28.8967 52.8249 28.3328 51.6949 27.3461 50.4237C25.9364 48.3051 23.5401 46.3277 22.9762 43.7853C22.6943 42.7966 22.4124 41.6667 22.4124 40.5367C22.4124 39.8305 22.4124 39.2656 22.4124 38.5593C22.4124 38.4181 22.4124 38.1356 22.4124 37.9944C22.2714 37.4294 21.8486 36.4407 22.1305 36.017C22.2714 35.8757 22.4124 35.7345 22.8353 35.7345C23.2582 35.7345 23.822 35.8757 24.1039 36.1582C24.6678 36.5819 25.0907 37.4294 25.2316 38.1356C25.3726 38.7006 25.2316 39.2656 25.3726 39.6893C25.5136 40.3955 25.9365 41.1017 26.2184 41.6667C26.3593 39.9718 26.3593 38.4181 26.3593 36.5819C26.3593 35.1695 26.3593 33.7571 26.3593 32.2034C26.3593 30.0848 26.5003 25.9887 26.5003 25.9887C26.5003 25.7062 26.5003 25.565 26.5003 25.2825C26.6413 24.7175 26.7822 24.1526 27.3461 24.0113C27.769 23.8701 28.3328 23.8701 28.7557 24.0113C29.3195 24.2938 29.3195 24.8588 29.4605 25.565C29.4605 26.9774 29.4605 28.3898 29.4605 29.8023C29.4605 30.791 29.4605 31.7797 29.4605 32.6271C29.4605 33.4746 29.6015 34.887 29.8834 35.1695C30.0243 35.0283 30.0243 34.6045 30.0243 34.322C30.0243 34.0396 30.0243 33.7571 30.0243 33.4746C30.0243 33.0509 30.0243 22.3164 30.1653 21.7514C30.4472 20.904 31.8568 20.7627 32.5617 21.1865C33.2665 21.6102 33.2665 32.7684 33.2665 33.4746C33.2665 33.7571 33.5484 34.4633 33.6894 34.1808C33.9713 33.4746 33.6894 23.0226 34.1122 22.7401C34.6761 22.0339 35.6628 22.0339 36.3676 22.5989C37.3544 23.3051 37.0724 35.1695 37.4953 35.1695C37.7772 35.3108 37.7772 27.4011 38.0592 27.1187C38.3411 26.8362 38.9049 26.8362 39.3278 26.8362C41.0194 26.6949 40.4555 35.7345 40.5965 36.8644C40.3146 39.1243 40.3146 41.243 40.1736 43.3616Z" fill="#E7B088"/>
<path d="M39.6097 50.5645L27.2051 50.8469V53.6718L39.6097 53.3893V50.5645Z" fill="#D1E9F5"/>
<path d="M26.6416 24.7173V25.706C26.6416 26.271 27.0645 26.6947 27.4874 26.836C28.1922 26.9772 28.897 26.4122 28.897 25.706V24.7173C28.897 24.4348 28.6151 24.1523 28.3331 24.1523H27.2054C26.9235 24.1523 26.6416 24.4348 26.6416 24.7173Z" fill="#F2C4A5"/>
<path d="M37.4956 27.6841V28.3903C37.4956 28.8141 37.7775 29.2378 38.2004 29.2378C38.7643 29.2378 39.1871 28.8141 39.1871 28.2491V27.5429C39.1871 27.2604 38.9052 27.1191 38.7643 27.1191L37.9185 27.2604C37.6366 27.2604 37.4956 27.4016 37.4956 27.6841Z" fill="#F2C4A5"/>
<path d="M22.6945 37.9936C22.6945 38.2761 22.4126 38.4174 22.1307 38.4174C22.1307 38.2761 22.1307 37.9936 22.1307 37.8524C21.9897 37.2874 21.5668 36.2987 21.8487 35.875C22.1307 36.1575 22.8355 37.1462 22.6945 37.9936Z" fill="#F2C4A5"/>
<path d="M29.7424 52.9668H24.9497V75.0007H29.7424V52.9668Z" fill="#22152D"/>
<path d="M41.583 52.9668H29.7422V75.0007H41.583V52.9668Z" fill="#352245"/>
<path d="M30.0244 22.1743V23.163C30.0244 23.728 30.4473 24.293 31.0111 24.293C31.716 24.4342 32.4208 23.8693 32.4208 23.163V22.1743C32.4208 21.8919 32.1388 21.6094 31.8569 21.6094H30.5883C30.3063 21.6094 30.0244 21.8919 30.0244 22.1743Z" fill="#F2C4A5"/>
<path d="M33.8306 23.3052V24.2939C33.8306 24.8589 34.2535 25.4239 34.6763 25.4239C35.3811 25.5651 36.086 25.0001 36.086 24.2939V23.3052C36.086 23.0227 35.804 22.7402 35.5221 22.7402H34.2535C34.1125 22.8815 33.8306 23.0227 33.8306 23.3052Z" fill="#F2C4A5"/>
<path d="M18.325 32.3442C18.184 33.3329 18.184 34.4629 17.9021 35.4516C17.6202 36.299 17.0563 37.0052 16.9153 37.9939C16.7744 38.7001 16.9153 39.5476 16.9153 40.3951C16.9153 40.8188 16.9153 41.1013 16.9153 41.2425C16.9153 41.3838 16.9153 41.525 16.9153 41.525C16.7744 41.525 16.6334 41.525 16.4925 41.525H15.6467C14.8009 41.525 14.9419 41.8075 14.0961 41.9487C12.2636 41.9487 10.5721 41.6662 8.73956 41.8075C7.04802 41.8075 6.48417 40.6775 5.49744 39.4064C4.08782 37.2877 1.69147 35.3103 1.12762 32.7679C0.845694 31.7792 0.56377 30.6493 0.56377 29.5194C0.56377 28.8131 0.56377 28.2482 0.56377 27.542C0.56377 27.4007 0.56377 27.1182 0.56377 26.977C0.422809 26.412 -7.7039e-05 25.4233 0.281847 24.9996C0.422809 24.8583 0.56377 24.7171 0.986656 24.7171C1.40954 24.7171 1.97339 24.8583 2.25531 25.1408C2.81916 25.5646 3.24205 26.412 3.38301 27.1182C3.52397 27.6832 3.38301 28.2482 3.52397 28.6719C3.66493 29.3781 4.08782 30.0843 4.36974 30.6493C4.36974 28.6719 4.36974 27.2595 4.22878 25.4233C4.22878 24.0109 4.22878 22.5985 4.22878 21.0448C4.22878 18.9261 4.36974 14.8301 4.36974 14.8301C4.36974 14.5476 4.36974 14.4064 4.36974 14.1239C4.5107 13.5589 4.65166 12.9939 5.21551 12.8527C5.6384 12.7114 6.34321 12.7114 6.76609 12.9939C7.32994 13.2764 7.32994 13.8414 7.4709 14.5476C7.4709 15.96 7.4709 17.3725 7.4709 18.7849C7.4709 19.7736 7.4709 20.7623 7.4709 21.6098C7.4709 22.4572 7.61186 23.8696 7.89379 24.1521C8.03475 24.0109 8.03475 23.5872 8.03475 23.3047C8.03475 23.0222 8.03475 22.7397 8.03475 22.4572C8.03475 22.0335 8.03475 11.299 8.17571 10.734C8.45763 10.0278 9.72629 9.74534 10.4311 10.3103C11.1359 10.734 11.1359 21.8922 11.1359 22.5985C11.1359 22.8809 11.4178 23.5872 11.5588 23.3047C11.8407 22.5985 11.5588 12.1465 11.9817 11.864C12.5455 11.1578 13.5323 11.1578 14.2371 11.7227C15.2238 12.429 14.9419 24.2934 15.3648 24.2934C15.6467 24.4346 15.6467 16.525 15.9286 16.2425C16.2105 15.96 16.7744 15.96 17.1973 15.96C18.8888 15.8188 18.325 24.8583 18.4659 25.9883C18.6069 28.1069 18.6069 30.2256 18.325 32.3442Z" fill="#E7B088"/>
<path d="M17.7612 39.5469L5.49756 39.6881V42.513L17.7612 42.2305V39.5469Z" fill="#D1E9F5"/>
<path d="M4.93359 13.6997V14.6884C4.93359 15.2534 5.35648 15.6771 5.77936 15.8184C6.48417 15.9596 7.18898 15.3947 7.18898 14.6884V13.6997C7.18898 13.4173 6.90706 13.1348 6.62514 13.1348H5.35648C5.07456 13.1348 4.93359 13.276 4.93359 13.6997Z" fill="#F2C4A5"/>
<path d="M15.7876 16.5259V17.2321C15.7876 17.6559 16.0695 18.0796 16.4924 18.0796C17.0563 18.0796 17.4791 17.6559 17.4791 17.0909V16.3847C17.4791 16.1022 17.1972 15.9609 17.0563 15.9609L16.2105 16.1022C15.9286 16.1022 15.7876 16.3847 15.7876 16.5259Z" fill="#F2C4A5"/>
<path d="M0.986505 26.9761C0.986505 27.2585 0.704581 27.3998 0.422657 27.3998C0.422657 27.2585 0.422657 26.9761 0.422657 26.8348C0.281695 26.2698 -0.14119 25.2812 0.140733 24.8574C0.281695 25.1399 1.12747 26.1286 0.986505 26.9761Z" fill="#F2C4A5"/>
<path d="M8.0344 41.9492H3.2417V75.1413H8.0344V41.9492Z" fill="#E2B500"/>
<path d="M19.7344 41.9492H7.89355V75.1413H19.7344V41.9492Z" fill="#FFCC00"/>
<path d="M8.17578 11.0161V12.0048C8.17578 12.5698 8.59867 13.1348 9.16251 13.1348C9.86732 13.276 10.5721 12.7111 10.5721 12.0048V11.0161C10.5721 10.7337 10.2902 10.4512 10.0083 10.4512H8.73963C8.4577 10.4512 8.17578 10.7337 8.17578 11.0161Z" fill="#F2C4A5"/>
<path d="M11.9814 12.2876V13.2763C11.9814 13.8413 12.4043 14.4063 12.8272 14.4063C13.532 14.5475 14.2368 13.9825 14.2368 13.2763V12.2876C14.2368 12.0051 13.9549 11.7227 13.673 11.7227H12.5453C12.2634 11.7227 11.9814 12.0051 11.9814 12.2876Z" fill="#F2C4A5"/>
<path d="M61.8821 22.3167C61.7411 23.3054 61.7411 24.4353 61.4592 25.424C61.1773 26.2715 60.6134 26.9777 60.4725 27.9664C60.3315 28.6726 60.4725 29.5201 60.4725 30.3675C60.4725 30.7913 60.4725 31.0737 60.4725 31.215C60.4725 31.3562 60.4725 31.4975 60.4725 31.4975C60.3315 31.4975 60.1905 31.4975 60.0496 31.4975H59.2038C58.358 31.4975 58.499 31.78 57.6532 31.9212C55.8207 31.9212 54.1292 31.6387 52.2967 31.78C50.6051 31.78 50.0413 30.65 49.0546 29.3788C47.6449 27.2602 45.2486 25.2828 44.6847 22.7404C44.4028 21.7517 44.1209 20.6218 44.1209 19.4918C44.1209 18.7856 44.1209 18.2206 44.1209 17.5144C44.1209 17.3732 44.1209 17.0907 44.1209 16.9494C43.9799 16.3845 43.5571 15.3958 43.839 14.972C43.9799 14.8308 44.1209 14.6896 44.5438 14.6896C44.9667 14.6896 45.5305 14.8308 45.8124 15.1133C46.3763 15.537 46.7992 16.3845 46.9401 17.0907C47.0811 17.6557 46.9401 18.2206 47.0811 18.6444C47.2221 19.3506 47.6449 20.0568 47.9269 20.6218C47.9269 18.7856 47.9269 17.2319 47.9269 15.537C47.9269 14.1246 47.9269 12.7122 47.9269 11.1585C47.9269 9.03984 48.0678 4.94379 48.0678 4.94379C48.0678 4.66131 48.0678 4.52007 48.0678 4.23758C48.2088 3.67261 48.3498 3.10764 48.9136 2.96639C49.3365 2.82515 49.9003 2.82515 50.3232 2.96639C50.8871 3.24888 50.8871 3.81385 51.028 4.52007C51.028 5.9325 51.028 7.34492 51.028 8.75735C51.028 9.74605 51.028 10.7348 51.028 11.5822C51.028 12.4297 51.169 13.8421 51.4509 14.1246C51.5919 13.9833 51.5919 13.5596 51.5919 13.2771C51.5919 12.9946 51.5919 12.7122 51.5919 12.4297C51.5919 12.0059 51.5919 1.27148 51.7328 0.706507C52.0148 -0.140951 53.4244 -0.282194 54.1292 0.141535C54.834 0.565264 54.834 11.7235 54.834 12.4297C54.834 12.7122 55.1159 13.4184 55.2569 13.1359C55.5388 12.4297 55.2569 1.97769 55.6798 1.69521C56.2436 0.988992 57.2304 0.988992 57.9352 1.55396C58.9219 2.26018 58.64 14.1246 59.0629 14.1246C59.3448 14.2658 59.3448 6.35622 59.6267 6.07374C59.9086 5.79125 60.4725 5.79125 60.8954 5.79125C62.5869 5.65001 62.0231 14.6896 62.164 15.8195C62.164 18.0794 62.164 20.198 61.8821 22.3167Z" fill="#E7B088"/>
<path d="M61.3184 29.5195L49.0547 29.802V32.4856L61.3184 32.3444V29.5195Z" fill="#D1E9F5"/>
<path d="M48.4907 3.67239V4.66109C48.4907 5.22607 48.9136 5.64979 49.3365 5.79104C50.0413 5.93228 50.7461 5.36731 50.7461 4.66109V3.67239C50.7461 3.38991 50.4642 3.10742 50.1823 3.10742H49.0546C48.6317 3.10742 48.4907 3.38991 48.4907 3.67239Z" fill="#F2C4A5"/>
<path d="M59.3447 6.49661V7.20283C59.3447 7.62656 59.6267 8.05029 60.0495 8.05029C60.6134 8.05029 61.0363 7.62656 61.0363 7.06158V6.35537C61.0363 6.07288 60.7544 5.93164 60.6134 5.93164L59.7676 6.07288C59.4857 6.07288 59.3447 6.35537 59.3447 6.49661Z" fill="#F2C4A5"/>
<path d="M44.5436 16.9487C44.5436 17.2312 44.2617 17.3725 43.9798 17.3725C43.9798 17.2312 43.9798 16.9487 43.9798 16.8075C43.8388 16.2425 43.4159 15.2538 43.6979 14.8301C43.8388 15.1126 44.6846 16.1013 44.5436 16.9487Z" fill="#F2C4A5"/>
<path d="M51.5915 31.9219H46.7988V75.1422H51.5915V31.9219Z" fill="#E2B500"/>
<path d="M63.2915 31.9219H51.4507V75.1422H63.2915V31.9219Z" fill="#FFCC00"/>
<path d="M51.8735 0.9888V1.9775C51.8735 2.54247 52.2964 3.10744 52.8603 3.10744C53.5651 3.24869 54.2699 2.68372 54.2699 1.9775V0.9888C54.2699 0.706314 53.988 0.423828 53.706 0.423828H52.4374C52.0145 0.565071 51.8735 0.706314 51.8735 0.9888Z" fill="#F2C4A5"/>
<path d="M55.5386 2.26028V3.24898C55.5386 3.81396 55.9615 4.37893 56.3843 4.37893C57.0892 4.52017 57.794 3.9552 57.794 3.24898V2.26028C57.794 1.9778 57.512 1.69531 57.2301 1.69531H55.9615C55.8205 1.69531 55.5386 1.9778 55.5386 2.26028Z" fill="#F2C4A5"/>
<path d="M83.7312 48.305C83.5903 49.2937 83.5903 50.4236 83.3083 51.4123C83.0264 52.2598 82.4626 52.966 82.3216 53.9547C82.1806 54.6609 82.3216 55.5083 82.3216 56.3558C82.3216 56.7795 82.3216 57.062 82.3216 57.2033C82.3216 57.3445 82.3216 57.4857 82.3216 57.4857C82.1806 57.4857 82.0397 57.4857 81.8987 57.4857H81.0529C80.2072 57.4857 80.3481 57.7682 79.5024 57.9095C77.6699 57.9095 75.9783 57.627 74.1458 57.7682C72.4543 57.7682 71.8904 56.6383 70.9037 55.3671C69.4941 53.2485 67.0977 51.2711 66.5339 48.7287C66.2519 47.74 65.97 46.61 65.97 45.4801C65.97 44.7739 65.97 44.2089 65.97 43.5027C65.97 43.3615 65.97 43.079 65.97 42.9377C65.8291 42.3728 65.4062 41.3841 65.6881 40.9603C65.8291 40.8191 65.97 40.6778 66.3929 40.6778C66.8158 40.6778 67.3796 40.8191 67.6616 41.1016C68.2254 41.5253 68.6483 42.3728 68.7893 43.079C68.9302 43.6439 68.7893 44.2089 68.9302 44.6326C69.0712 45.3389 69.4941 46.0451 69.776 46.61C69.917 44.7739 69.917 43.3615 69.917 41.5253C69.917 40.1129 69.917 38.7004 69.917 37.1468C69.917 35.0281 70.0579 30.9321 70.0579 30.9321C70.0579 30.6496 70.0579 30.5083 70.0579 30.2259C70.1989 29.6609 70.3398 29.0959 70.9037 28.9547C71.3266 28.8134 71.8904 28.8134 72.3133 28.9547C72.8772 29.2372 72.8772 29.8021 73.0181 30.5083C73.0181 31.9208 73.0181 33.3332 73.0181 34.7456C73.0181 35.7343 73.0181 36.723 73.0181 37.5705C73.0181 38.418 73.1591 39.8304 73.441 40.1129C73.3 39.9716 73.3 39.5479 73.3 39.2654C73.3 38.9829 73.3 38.7004 73.3 38.418C73.3 37.9942 73.3 27.2598 73.441 26.6948C73.7229 25.8473 75.1325 25.7061 75.8373 26.1298C76.5422 26.5535 76.5422 37.7117 76.5422 38.418C76.5422 38.7004 76.8241 39.4067 76.965 39.1242C77.247 38.418 77.106 27.966 77.3879 27.6835C77.9518 26.9773 78.9385 26.9773 79.6433 27.5422C80.6301 28.2485 80.3481 40.1129 80.771 40.1129C81.0529 40.2541 81.0529 32.3445 81.3349 32.062C81.6168 31.7795 82.1806 31.7795 82.6035 31.7795C84.2951 31.6383 83.7312 40.6778 83.8722 41.8078C83.8722 43.9264 84.0131 46.1863 83.7312 48.305Z" fill="#E7B088"/>
<path d="M83.1675 55.5078L70.9038 55.6491V58.4739L83.1675 58.1914V55.5078Z" fill="#D1E9F5"/>
<path d="M70.1987 29.52V30.5088C70.1987 31.0737 70.6216 31.4975 71.0445 31.6387C71.7493 31.7799 72.4541 31.215 72.4541 30.5088V29.52C72.4541 29.2376 72.1722 28.9551 71.8903 28.9551H70.7626C70.4807 29.0963 70.1987 29.2376 70.1987 29.52Z" fill="#F2C4A5"/>
<path d="M81.0527 32.4849V33.1911C81.0527 33.6148 81.3347 34.0386 81.7575 34.0386C82.3214 34.0386 82.7443 33.6148 82.7443 33.0499V32.3436C82.7443 32.0612 82.4624 31.9199 82.3214 31.9199L81.4756 32.0612C81.1937 32.0612 81.0527 32.3436 81.0527 32.4849Z" fill="#F2C4A5"/>
<path d="M66.3928 42.937C66.3928 43.2195 66.1108 43.3607 65.8289 43.3607C65.8289 43.2195 65.8289 42.937 65.8289 42.7958C65.6879 42.2308 65.2651 41.2421 65.547 40.8184C65.6879 41.1008 66.3928 42.0895 66.3928 42.937Z" fill="#F2C4A5"/>
<path d="M73.3 57.9102H68.5073V75.1418H73.3V57.9102Z" fill="#22152D"/>
<path d="M85.1406 57.9102H73.2998V75.1418H85.1406V57.9102Z" fill="#352245"/>
<path d="M73.582 26.9771V27.9658C73.582 28.5308 74.0049 29.0957 74.5688 29.0957C75.2736 29.237 75.9784 28.672 75.9784 27.9658V26.9771C75.9784 26.6946 75.6965 26.4121 75.4145 26.4121H74.1459C73.864 26.4121 73.582 26.6946 73.582 26.9771Z" fill="#F2C4A5"/>
<path d="M77.3877 28.2486V29.2373C77.3877 29.8022 77.8106 30.3672 78.2335 30.3672C78.9383 30.5085 79.6431 29.9435 79.6431 29.2373V28.2486C79.6431 27.9661 79.3612 27.6836 79.0792 27.6836H77.8106C77.6696 27.6836 77.3877 27.9661 77.3877 28.2486Z" fill="#F2C4A5"/>
</g>
<defs>
<clipPath id="clip0">
<rect width="85" height="75" fill="white"/>
</clipPath>
</defs>
</svg>
