<?xml version="1.0" encoding="utf-8"?>
<!-- Generator: Adobe Illustrator 23.0.3, SVG Export Plug-In . SVG Version: 6.00 Build 0)  -->
<svg version="1.1" id="Layer_2" xmlns="http://www.w3.org/2000/svg" xmlns:xlink="http://www.w3.org/1999/xlink" x="0px" y="0px"
	 viewBox="0 0 1923.3 1350.6" enable-background="new 0 0 1923.3 1350.6" xml:space="preserve">
<g>
	<polygon fill="currentColor" points="1786.8,1022.2 1785.6,1025.5 1783.1,1028.7 1778.8,1039.5 1788.3,1023.5 1786.8,1022.2 	"/>
	<polygon fill="currentColor" points="1922.3,874.7 1916.8,875.7 1911.3,871.2 1908.3,864.7 1913.3,860.7 1918.5,861.9 1916.7,843.9 
		1907.6,822.2 1892.8,809.2 1857.8,797.5 1838.6,799 1836.6,801.5 1832.8,803 1828.3,801.7 1824.1,802 1803.3,818.7 1785.1,823.2 
		1767.8,836 1765.8,839.2 1766.1,843.7 1764.1,848 1740.3,833.7 1736.3,833.5 1732.8,835.5 1736.8,842.5 1737.3,846.2 1728.1,848.7 
		1726.6,852 1729.1,855.2 1733.1,858 1734.1,861.7 1711.3,868 1701.1,863.5 1686.1,862.7 1642.8,841.2 1626.3,807.2 1618.8,802.5 
		1614.6,801.2 1610.5,801.8 1606.7,794.2 1603.6,791.6 1597.6,770.9 1591.4,765.9 1590.5,761.8 1592.6,758.8 1596.4,759.2 
		1599.5,757.6 1600,754.2 1601.4,750.9 1602.6,739 1601,735.7 1601.7,724.5 1599.3,721.7 1598.1,718.8 1597.2,711.2 1591.4,708.6 
		1590.2,706 1590.5,702.4 1588.1,699.1 1587.9,688.4 1590,685.8 1591.2,682.7 1590.2,680.1 1590,677 1591.2,673.4 1582.4,643.5 
		1582.4,639.7 1584.6,632.5 1583.1,629.2 1582.9,625.7 1585,622.3 1585,618.5 1588.8,612.6 1589.1,609.2 1588.3,606.2 1591.2,595.2 
		1585,581 1585.3,576.7 1587.9,574.5 1589.3,567.9 1593.3,563.4 1598.8,559.8 1600.7,557.7 1602.2,554.3 1599.3,547.9 1598.8,544.8 
		1599.5,541.5 1607.6,530.3 1607.1,527 1611.2,520.6 1611.2,515.8 1601.7,499.2 1604.8,482.6 1603.1,479.7 1603.8,476.6 
		1606.9,474.2 1608.3,469 1602.4,448.6 1600.2,445.7 1598.3,439.3 1592.4,431.9 1590.5,420.8 1588.3,417.4 1581.9,412.4 
		1577.2,402.4 1578.3,401 1578.6,399.1 1576.2,397 1577.2,390.6 1574.1,388.2 1572.7,385.3 1574.6,382.9 1575.5,382.2 1575.5,380.6 
		1570.5,367 1572.4,364.4 1571,361.8 1561.5,352.8 1560.5,350.4 1553.2,349.7 1522.3,324.5 1520.6,321.4 1517.8,319.5 1514,318.3 
		1511.8,316.2 1513.7,310.9 1507.8,295.2 1502.8,290 1499,276.5 1491.6,273.4 1488.5,275.3 1485.7,273.8 1483.5,271.2 1480.2,271 
		1471.9,265.8 1472.1,258.6 1465.7,248.9 1465.9,241.3 1464.3,238.2 1461.7,235.8 1461.4,231.5 1463.3,228.9 1463.8,225.8 
		1458.1,221.8 1454.5,221.1 1450.7,222 1442.7,217.3 1441.5,214.2 1441.9,209.7 1437.7,204.2 1436.9,200.4 1434.1,198.7 
		1433.1,196.1 1433.4,193.5 1423.9,188.3 1420.5,181.6 1415.1,178 1402.2,156.7 1401.8,153.1 1405.3,152.1 1407,150 1407.7,146.9 
		1405.3,145 1403.7,141.9 1402.8,137.8 1399.7,133.3 1397.1,131.4 1395.5,129.1 1395.3,126.4 1392.6,121.9 1396.8,120.7 
		1388.6,113.5 1388.4,110.6 1389.1,108.1 1385.4,98.5 1378.3,94.3 1378.7,91.8 1380.8,89.1 1380.7,86.6 1376.5,83.4 1376.6,80.7 
		1378,78.7 1378.5,76 1377.5,74 1374.8,74 1371.6,72.6 1370.4,70.6 1370.4,68.9 1367.1,68.9 1364.2,66.1 1366.6,63.7 1365.2,62 
		1361.6,60.4 1362.1,57.1 1353,48.2 1352.8,45.4 1354.7,42.8 1353.3,39 1350.9,35.7 1348.5,34 1345.9,36.4 1341.8,34.9 1338.3,31.8 
		1340.4,30 1343.8,29 1342.3,26.2 1338.3,27.1 1334,26.2 1334,22.3 1335.9,19 1335.2,16.2 1330.9,15.5 1327.3,16.2 1329.5,18.3 
		1329.5,21.2 1326.2,19.2 1325.2,16.4 1318.1,8.6 1314.8,7.1 1309.3,1.7 1306.4,1.4 1302.9,2.8 1287.7,1.2 1284.3,1.9 1276.2,0 
		1272.4,1.4 1270.8,4.8 1268.2,4.3 1263.9,5 1260.6,10.5 1257,12.1 1241.3,13.3 1239.4,16.2 1229.4,20.9 1226.1,20.2 1223.7,18.8 
		1221.1,20.9 1217.3,22.1 1214.9,23.8 1216.1,26.6 1216.1,30 1207.6,42.6 1205.2,52.5 1195.9,58.2 1188.5,77 1174.5,82.7 
		1166.4,80.3 1161.9,80.3 1151,84.4 1135.8,82.7 1131,87 1123.7,86.1 1119.8,87 1110.6,93.7 1018.8,101.8 1016,102.9 1011.9,108.4 
		1008.3,110.1 1005,107.7 1002.2,108.9 995.3,125.8 992.7,128.1 989.6,138.6 986,139.5 978.6,149.8 975.3,151.7 968.7,153.3 
		967,156.7 963.7,157.1 960.8,155.7 957,157.4 935.4,156.9 932.1,148.6 924.7,141 923,130.5 915.4,128.4 912.8,124.8 912.1,124.6 
		907.6,126 905.4,123.8 902.8,124.3 899.2,123.4 897.8,119.8 894.7,118.4 891.4,115.3 890.9,112.2 892.1,109.6 892.3,106.2 
		881.9,92.2 878.3,91.8 873.6,87.2 861,91.3 857.4,91.3 854.6,89.8 851.2,89.2 847.7,87 840.1,89.4 831.8,100.3 828.4,100.1 
		825.1,98.9 822,99.6 817.2,103.7 809.4,105.1 806.8,106.5 803,104.8 800.4,102.7 796.6,101 793,100.8 790.1,101.8 786.1,101.5 
		782.3,99.6 779.2,93.9 776.1,92 767.8,91.3 764.5,88.2 761.4,87 758.5,88 754.7,87 748.8,90.8 738.6,92.9 736.7,94.8 734,93.9 
		732.6,91.3 729.1,89.4 727.2,83.2 724.5,80.8 720.2,80.3 716.1,77.5 710.7,77.5 707.3,80.2 702.6,78.5 697.6,80.5 688.8,74.8 
		678.4,76.2 675.1,73.5 670.8,72.3 669.7,72.5 665.3,82.5 662.4,83.9 660.2,83.9 655.9,82.2 652.5,78.8 647.2,77.5 639.4,71.1 
		634,69.4 630,62.4 625,61 622.6,56.7 624.6,51.6 617.9,45.2 613.2,47.2 608.2,46.9 604.8,43.5 602.4,38.8 599.4,38.5 596.7,39.8 
		596.1,45.2 592,46.6 592,50.3 588.7,53.6 587.3,58.7 588.3,63.4 584.6,66.1 585.6,70.1 575.9,71.8 572.2,74.1 563.8,70.1 
		558.1,70.1 553.3,67.1 551,71.1 554.4,74.1 554.7,84.2 549.3,84.2 545.3,86.2 539.9,95.3 535.9,98.7 530.5,99 525.5,102 
		520.1,102.4 518.7,106.1 519.8,115.5 516.7,119.2 511,118.2 503.3,131.6 498.9,134.3 477.7,136 464.6,125.9 460.9,125.9 
		456.2,128.9 451.2,142.7 447.1,142 443.1,144.1 437.7,141.4 433.7,137 430,139.7 429.3,143.7 424.6,146.4 419.9,147.4 417.9,156.2 
		413.2,158.2 410.2,160.9 410.5,165.9 409.1,167.6 404.8,181.4 401.4,184.4 393.3,185.8 391.7,190.1 387.3,192.8 384.9,195.5 
		381.6,194.2 377.5,198.2 379.6,202.2 375.8,202.2 371.8,203.9 367.8,213.3 367.1,218 371.5,234.2 370.2,241.9 370.2,242.4 
		367.1,246.2 356.7,247.2 353,249.3 339.2,274.8 340.6,278.9 334.5,285.9 332.8,289.6 335.2,294.3 334.8,299 332.8,302.4 
		325.8,309.1 323.8,312.5 321.4,320.9 318.7,324.6 313.3,325.2 305.2,330 299.6,340 291.8,344.4 294.2,349.8 297.2,352.8 
		295.2,361.9 295.5,366.2 291.8,368.3 288.5,372 283.1,373 280.1,376.3 280.4,382.1 282.1,386.8 279.4,389.8 279.4,393.8 
		265.2,400.2 262.6,404.6 262.6,410.3 260.6,415.7 256.8,418.4 255.8,423.1 259.5,426.1 262.9,430.8 263.2,435.5 258.9,439.2 
		256.7,442.8 242.7,441.9 242.2,445.5 247.5,450.2 247.4,452.8 247,454 239.6,455.7 237.9,457.8 237.9,460.7 230.8,458.1 
		221.3,460.9 219.2,463.3 216.3,469.7 218,472.8 217.8,475.9 215.8,478 214.7,480.7 212.8,482.8 208.9,484.4 205.6,495.8 
		208.2,502.3 212.3,503.5 215.8,510.1 215.4,513.9 211.6,519.9 211.6,523 208.9,524.4 205.6,522.2 198,521.8 195.2,524.2 
		191.6,541.5 188.5,542.9 185.9,548.4 188,551.5 185.2,554.3 177.8,552.7 174.5,553.9 172.6,556.9 171.9,561.2 167.1,566.5 
		164,568.4 160.7,567.4 155.5,562.4 151.4,563.4 143.6,561.9 139.1,557.7 135.7,558.4 133.8,561.2 130.8,560.3 126.2,554.3 
		106,556.7 102.7,558.8 100.8,562.4 100.3,570 102,574.1 99.4,575.7 95.6,576 89.6,589.3 87.2,591.2 86.6,592.2 85.6,593.1 
		82.2,593.6 78.9,592.1 78.2,595.7 75.8,598.6 55.9,580.2 52.1,580 50.2,577.9 47.5,579.3 46.8,585.5 43,589.8 39.9,591.4 
		35.7,590.9 29,586.9 20.9,586.2 20,583.3 16.4,584.3 13.6,586.2 7.1,587.1 0,593.6 1.2,596.4 0,598.1 0.5,601.9 3.6,604 7.4,605.2 
		8.1,608.5 9.8,611.6 12.6,614.2 13.3,615.4 13.8,615.7 16.7,634 26.4,643 30.2,641.6 34.5,641.6 36.4,644.7 39.7,647.3 45.7,664.9 
		49.4,666.1 55.2,661.8 58.2,663 58.9,669.6 60.2,672.2 63,674.1 66.6,675.1 69.7,677.5 74.2,683.7 75.3,687.2 73.9,689.8 
		73.7,693.2 75.6,695.5 79.6,697.4 81.1,700.5 81.5,707.2 85.6,708.6 94.1,707.4 97.9,708.4 99.4,701 102.4,699.6 107.4,704.6 
		107,708.1 102.9,713.6 100.3,726.4 102.6,735.4 98.2,741.8 97.5,746.5 94.2,750.5 103.2,764.3 104.9,770 104.6,774 94.8,781.4 
		93.2,785.1 95.8,787.8 109.9,792.5 114,795.6 114.3,800.6 113.3,804.3 116.3,807.3 121.7,807.7 123.7,812 124.4,816.7 132.5,823.5 
		135.5,827.8 139.5,831.2 140.9,836.9 145.2,834.2 149.6,835.9 152.7,838.6 154,838.9 157,844.3 161.1,842.3 165.8,842.3 
		168.4,838.9 173.2,837.6 175.8,851.3 179.2,853.4 177.8,857.4 191,864.1 199,862.4 204.1,864.5 207.8,868.5 213.2,867.5 
		216.8,869.8 220.2,869.2 223.9,873.9 233.7,879.2 235.3,885 240.4,886.3 243.1,890.7 240.7,894.4 231.7,899.4 231,904.8 
		232.3,909.2 225.6,916.2 225.9,920.3 223.2,923 208.4,925.7 207.1,929.7 216.8,940.1 217.5,943.1 243.4,956.2 244.4,965.3 
		209.8,973.1 206.1,976.1 203.4,980.1 203.5,987.1 206.8,987.8 209.8,993.6 235.7,1002.6 246.1,1003.3 250.5,1006 253.2,1010 
		254.5,1027.8 256.8,1032.2 261.9,1034.9 307.6,1039.3 312.7,1041.6 318,1042 327.8,1045.7 333.5,1045.3 337.2,1048.7 342.2,1059.1 
		342.6,1068.8 344.9,1072.9 349,1076.2 351,1079.9 351.7,1086.3 355,1089.7 355.3,1090.4 368.5,1093.4 373.2,1092.1 392,1056.4 
		391.7,1052.1 395.7,1049 398.7,1045 400.4,1040.3 409.1,1035.6 414.8,1035.2 419.9,1032.9 426.6,1026.2 432.3,1027.5 461.6,1054.8 
		478.7,1057.4 493.2,1076.2 491.8,1080.6 482.1,1084 476.4,1083.7 466.3,1076.6 455.5,1074.9 452.2,1078.6 450.5,1090 447.1,1093.7 
		431,1094.8 429.3,1098.8 430.3,1103.2 437,1110.2 437.4,1124.3 448.5,1142.2 452.2,1145.5 468.3,1150.2 474,1153.9 474.7,1155 
		474.7,1159.1 472.3,1165.7 472.8,1170 475.4,1173.3 484,1175.7 525.1,1205.9 546,1211.1 548.6,1213.2 549.1,1216.6 544.1,1226.3 
		517.5,1237.5 514.9,1239.7 510.8,1254.4 507,1260.1 504.7,1267.2 507,1275.3 510.8,1281 543.6,1294.3 554.6,1295.5 590.5,1280.8 
		606.9,1280.3 610.9,1282 627.8,1281.2 634.2,1283.4 634.9,1284.2 669.2,1298.3 682.1,1296.1 787.9,1331.9 811.2,1326.5 
		821.2,1327.5 852.6,1310.8 877,1316.2 896.7,1330.3 952,1322.1 980.1,1333.4 991.8,1330.3 1044.6,1350.6 1049.6,1349.3 
		1058.8,1344.1 1067.9,1342.1 1076.9,1342.7 1082.7,1340.3 1086.6,1336.1 1100,1330.5 1108.8,1330 1197.3,1245.5 1251.3,1228 
		1255.8,1229 1330.3,1213.2 1345.8,1202.7 1381.7,1194.4 1423.3,1200.6 1430.9,1198.8 1433.5,1196.9 1435.3,1201 1435.6,1203.7 
		1434.8,1207.2 1436.8,1210.2 1439.8,1212.5 1447.3,1214.5 1460.8,1229 1465.1,1229 1472.6,1226.2 1501.1,1227.5 1504.6,1226.5 
		1509.3,1221 1512.8,1219.5 1518.8,1224.7 1524.6,1241.5 1532.3,1243.5 1550.8,1241.2 1567.3,1230.2 1571.3,1229.2 1587.3,1274.5 
		1634.1,1296.2 1661.8,1297 1679.3,1302.2 1710.8,1299.5 1711.7,1299 1711.6,1274.5 1715.1,1266.5 1716.1,1253.7 1720.3,1247.2 
		1720.8,1238.5 1727.1,1225.5 1715.8,1179.7 1719.1,1178 1720.8,1176 1718.6,1164 1714.3,1159 1710.3,1143.2 1715.3,1129 
		1718.8,1125.2 1724.1,1122.7 1776.1,1047.7 1776.6,1044.2 1778.2,1040.7 1768.8,1054.2 1765.1,1055.2 1762.8,1057.5 1759.8,1059 
		1758.6,1062.7 1751.8,1067.5 1748.1,1074 1746.6,1081 1743.8,1084 1742.3,1081.2 1745.1,1061.5 1741.3,1060.7 1737.1,1066.7 
		1736.1,1070.2 1736.1,1078.7 1734.1,1077.2 1733.3,1073 1730.6,1069.7 1729.3,1066.2 1731.8,1064.7 1735.1,1065.7 1735.8,1058.5 
		1739.1,1056.7 1741.3,1059.7 1745.8,1055.2 1745.6,1054 1742.3,1053.7 1742.6,1047.2 1740.3,1044.2 1743.1,1042 1746.8,1041 
		1749.1,1041.7 1745.8,1045.2 1746.8,1048 1770.3,1024.7 1774.3,1024 1778.3,1025.7 1783.1,1022.5 1783.3,1021.3 1781.6,1019.7 
		1777.8,1020 1767.3,1015.5 1763.8,1016 1767.1,1017 1769.6,1019.7 1769.1,1023 1750.8,1036.2 1747.6,1034.7 1745.3,1032.2 
		1744.3,1028.7 1745.3,1026 1748.3,1023.2 1746.8,1021.2 1742.8,1020.7 1742.3,1019.2 1742.8,1017.2 1738.3,1017.5 1734.6,1016.5 
		1733.3,1020.2 1731.1,1020.7 1730.6,1017.2 1731.3,1014.2 1729.1,1010.2 1732.1,1010.7 1735.1,1014.2 1739.1,1015.7 1742.3,1014.7 
		1743.1,1010.5 1749.3,1011.7 1762.3,1003.2 1770.3,1003.2 1775.3,1001.7 1770.1,995.7 1770.1,992.2 1773.6,990.7 1775.3,988 
		1770.6,987.5 1770.8,984.5 1775.1,983.5 1777.1,981 1758.1,965.7 1757.1,962 1758.1,958.7 1756.6,955.2 1757.1,951.5 1756.3,947.5 
		1756.8,944 1770.1,936.2 1773.3,935.7 1776.1,934 1777.6,929.7 1777.1,926.2 1781.6,926 1783.3,927.7 1786.1,929 1790.1,928.5 
		1805.3,936 1803.8,938.5 1803.6,941.7 1795.8,944.2 1792.8,946.7 1791.3,950 1791.1,954 1795.1,972 1800.1,979 1802.3,977 
		1806.8,975.5 1806.8,973 1803.6,970.5 1802.6,965.7 1805.6,965.2 1816.8,979 1814.3,986.7 1793.8,1000.2 1782.1,1003.7 
		1788.8,1018.5 1791.1,1019.5 1813.1,995 1898.8,976.2 1908.3,968.2 1907.3,974.2 1910.3,972.2 1911.3,965.7 1908.3,960.7 
		1912.3,955.7 1918.3,883.7 1923.3,877.2 1922.3,874.7 	"/>
</g>
</svg>
