<?xml version="1.0" encoding="utf-8"?>
<svg width="122" height="88" viewBox="0 0 122 88" fill="none" xmlns="http://www.w3.org/2000/svg">
<path d="M33.3203 33.844L33.5772 34.1715L34.2282 34.344L34.9831 33.9989L35.9086 34.0891L36.1635 34.4146L36.2479 35.0186L36.4655 35.1225L36.3832 35.6009L36.9459 35.6127L37.1342 35.1813L37.8205 34.8754L38.0911 34.8421L38.1577 35.1009L38.7793 35.2205L40.0382 34.5382L40.297 34.1813L40.65 34.1323L41.5657 34.6852L41.9265 35.1774L42.1441 35.1029L42.5324 35.3578L43.2775 35.1303L43.5697 35.5343L43.1912 36.0029L43.1226 36.4931L43.2304 36.6735L43.8364 36.8441L44.3501 36.7304L44.0324 36.35L44.3344 36.3814L44.2344 36.1127L44.6128 35.8304L44.9697 35.9049L46.0443 35.6343L46.2776 35.699L46.3658 35.9912L46.6855 36.0441L47.9875 35.7853L48.1306 36.2088L48.4404 36.2225L48.711 35.799L48.9522 35.7715L48.7522 36.7833L48.4463 37.1069L48.5738 37.3932L49.4895 38.054L50.1562 38.0579L50.3248 38.7363L50.9934 39.0873V39.3756L51.268 39.3364L51.6935 39.703L50.9503 40.1462L51.0601 40.3109L50.8483 40.8266L51.1935 41.1051L51.1503 41.2756L50.3699 41.6698L49.9228 41.7031L49.5934 42.2835L49.1973 42.5423L49.2718 42.7149L48.9267 43.1757L49.015 43.5483L48.5071 43.8561L48.4953 44.1404L48.0012 43.3483L47.0914 43.3463L46.556 43.9306L46.8129 44.0993L46.6698 44.4777L46.7659 44.8326L46.3972 45.0522L46.1247 45.5091L45.0736 45.6483L45.1933 45.7562L45.0501 46.0385L45.2835 46.2287L45.0207 47.3915L44.6521 47.3151L43.9285 47.7229L43.7756 48.0602L44.3305 48.5171L44.0618 48.6014L43.8775 48.968L43.3697 49.17L43.2344 49.5838L43.2677 50.0936L43.9971 50.7407L43.8579 51.176L44.0305 51.4093L43.6775 51.6564L43.5442 52.0721L43.8677 52.3623L44.056 52.8682L44.1344 53.7329L43.7854 53.8388L43.3285 53.7623L43.0285 52.7721L42.5402 52.3015L42.2618 52.3231L42.1206 51.8211L41.1618 51.627L41.1794 50.9485L40.6578 50.6779L41.0794 50.072L40.3617 49.3896L40.6186 48.6171L40.2186 48.2014L39.9519 47.2935L39.9872 46.2346L39.6578 45.6562L39.1362 45.3483L38.4734 43.8757L38.5715 43.5169L37.9832 43.6483L37.5773 43.2934L37.2695 43.3522L36.8773 43.1286L36.744 42.6071L36.8949 42.3423L36.5008 41.5443L36.7538 41.4109L37.0204 41.5325L36.9538 40.7815L36.6793 40.6854L36.4243 40.2933L36.1851 40.4423L35.5439 40.0736L35.087 39.2893L35.2655 38.9364L34.8988 38.1618L33.3595 38.2108L32.9517 37.7598L32.6321 37.7265L31.9693 37.5265L31.7595 37.1363L31.583 36.2931L31.8575 35.8892L31.6085 35.3029L31.6516 34.6088L32.2477 34.1813L31.8869 33.9578L31.8948 33.7205L32.5026 33.2793L33.3203 33.844Z" fill="#FFCC00" stroke="white" stroke-width="0.5"/>
<path d="M57.1976 51.3656L58.8741 51.2676L59.1251 51.5617L59.8349 51.4813L60.3526 51.6872L60.6546 51.5186L61.2507 51.6696L61.6056 51.5009L62.4585 51.7421L63.439 52.6853L64.1135 52.9147L64.1821 53.6324L64.4311 54.003L64.4037 54.5873L64.8135 54.7069L65.0174 54.5834L65.0645 55.1873L65.239 55.3481L65.292 55.8226L65.0253 56.954L64.7037 57.356L64.8527 58.1737L64.2645 58.4011L64.3272 58.9718L63.9743 59.1247L63.6801 58.9286L63.1115 58.0207L62.8605 58.2855L62.8664 58.6541L63.137 58.707L62.988 59.6208L63.188 59.713L63.1252 59.9169L63.3841 60.3169L63.2135 60.8248L62.9095 60.7051L62.7703 61.0973L62.9997 61.4699L63.2448 61.4111L63.3703 61.6738L63.5547 61.6699L63.6919 62.1013L63.388 62.4346L63.2644 63.1268L63.6547 64.6915L63.7056 65.7935L63.439 67.2348L64.0253 67.5661L63.6017 68.2073L63.2488 68.2564L63.7292 68.7329L63.6272 69.0819L64.5704 70.08L64.6429 70.5447L64.4331 70.8663L64.6861 71.4643L64.537 71.6408L64.6017 72.0487L64.4488 72.1761L63.8625 72.0643L62.0624 72.8722L61.1016 72.8055L60.6644 73.2408L59.3212 73.3408L59.0996 73.1232L58.7506 73.2487L58.6643 73.0859L58.0329 73.0977L57.7603 72.7134L57.7996 71.7859L57.6231 71.1957L57.778 70.58L57.7211 69.8349L57.5447 69.576L57.7172 69.1937L57.1701 67.6544L57.4094 67.372L57.425 66.9426L56.3721 66.9897L55.9799 66.5759L55.9152 65.8053L55.7328 65.7524L55.3544 64.7327L55.3583 64.1013L55.1112 64.0856L54.6897 64.87L54.7053 65.3269L53.8955 65.3876L54.0524 65.0308L53.9014 64.8896L54.4916 64.0307L54.3622 63.7621L54.6348 63.1033L54.3798 63.1287L54.8504 62.264L54.7112 62.0366L54.9622 61.3228L54.6034 60.9757L54.9171 60.6855L54.8308 60.4718L54.6406 60.4777L54.6524 60.2091L54.9485 60.2267L55.0583 59.7777L54.8171 59.4051L55.0171 59.2737L55.0563 58.9404L54.3877 58.0619L54.7936 56.8619L54.6818 56.3227L54.4524 56.2795L54.6524 56.1168L54.7171 55.556L54.3936 55.3736L53.9955 53.7618L54.7073 52.6323L54.6642 51.8853L54.8642 51.6813L55.6367 51.7852L56.2897 51.4029L56.9995 51.4931L57.1976 51.3656Z" fill="#FFCC00" stroke="white" stroke-width="0.5"/>
<path d="M15.9856 32.166L16.8346 32.121L16.9032 32.4994L17.0621 32.4092L17.2307 32.6386L17.3915 32.4994L17.5013 32.6249L17.6327 32.2445L18.2464 32.3151L18.5641 31.968L20.4543 32.1229L21.2661 31.917L21.5093 31.6621L21.9309 32.0111L21.574 32.5563L22.474 32.8367L23.0446 32.6759L23.3603 32.1327L23.5309 32.4131L23.7603 32.4268L23.7642 32.6523L24.4643 32.8347L24.5172 33.0818L25.2114 33.1014L25.1564 33.6779L25.3506 34.4132L25.8722 35.2661L26.1075 35.1191L26.3702 35.2936L27.7291 35.4407L27.8056 36.1211L28.5311 36.9799L29.0546 36.9682L29.2213 37.2427L29.4468 37.0995L29.5448 36.7329L31.7606 37.1368L31.9704 37.527L32.6332 37.727L32.2116 38.1113L31.6645 38.2976L31.3939 39.9408L30.2135 39.9349L30.1037 40.1173L29.635 40.2114L29.3115 39.7428L28.6232 40.3153L28.8232 40.9173L29.3409 41.3389L28.9076 41.5409L28.8821 41.7879L28.2762 42.3291L28.5154 42.5291L28.5644 43.9586L28.0644 43.9566L27.9467 44.2253L27.4703 44.1723L27.3859 44.3782L27.6997 44.9155L28.4664 44.9841L28.5428 45.139L28.2507 45.6136L27.4801 45.1429L27.3506 44.6292L27.1114 44.6429L26.8879 45.3528L26.1114 45.0292L25.7976 45.6724L25.2486 45.4449L24.727 45.6371L24.68 45.288L23.1172 44.6292L23.0544 44.1684L22.1662 44.3743L22.0112 44.7763L21.6857 45.0174L21.4014 44.8135L21.0995 45.0822L20.87 44.8665L20.4641 45.3939L20.1818 45.3547L20.1837 45.139L19.7151 45.088L19.568 44.7253L19.1621 45.3037L19.1406 45.6939L18.8602 45.8469L18.7562 45.2998L18.4052 45.1076L18.419 44.6253L17.0032 43.9331L17.0542 43.3566L16.7326 42.8958L15.8758 43.7194L15.1051 44.0802L14.9247 44.537L14.7522 44.5468L14.5757 44.0919L14.0404 43.7841L14.1247 44.0213L13.7071 44.1292L13.4933 44.6861L12.7737 44.3841L12.4227 43.8841L12.2247 43.8978L12.1501 44.2331L11.7482 44.5233L11.4266 44.1527L11.2305 43.4154L10.6834 43.5919L10.1403 43.335L9.62653 43.4429L9.30299 42.7938L8.23237 42.5193L7.55587 41.8762L7.45391 41.5389L6.89115 41.535L6.74212 41.2585L6.51074 41.233L6.73232 41.1056L6.9284 40.333L7.31665 40.3781L7.199 39.5996L7.52646 39.0898L8.74415 38.8761L9.29711 39.3349L9.40103 39.0859L9.65006 39.0467L9.73634 39.2996L10.6462 39.2565L10.8089 39.5643L11.156 39.6683L11.6521 39.3271L11.8011 38.6329L12.5502 38.6565L12.6011 38.0055L12.8913 37.7447L12.9737 36.7701L13.1874 36.5603L14.0992 36.6858L14.0306 36.5289L14.3228 36.0466L14.1188 35.4211L13.8384 35.3975L13.6698 34.9505L13.8561 34.2034L14.058 34.1289L14.4228 33.4622L14.2032 33.3014L14.3463 32.8073L15.0208 32.4445L15.5699 32.717L15.6954 32.2896L15.9856 32.166Z" fill="#FFCC00" stroke="white" stroke-width="0.5"/>
<path d="M73.5767 31.4711L73.8414 31.2456L74.7473 31.2025L74.8453 32.0672L75.1296 32.2437L75.6316 32.0339L75.8297 32.3496L76.5375 32.1339L76.8454 31.4476L77.216 31.2241L77.6023 32.1123L78.2592 32.3496L79.3592 31.6672L80.0475 31.6476L80.273 31.3829L80.5632 31.4221L80.9593 31.8672L81.4906 31.2398L82.3711 30.6986L82.5201 30.0378L83.1476 30.0966L83.2436 29.8064L83.728 30.7594L84.1162 30.6437L84.2397 30.1142L84.6123 29.8495L84.6751 29.4064L84.8947 29.2671L84.9025 28.8809L85.4829 29.075L85.3888 29.4711L85.2006 29.4926L85.4633 29.5613L85.5574 29.9005L85.7418 29.724L85.8771 30.2535L87.1144 29.9613L87.33 30.1966L87.734 29.9378L88.032 30.3888L88.3889 30.3182L88.4517 30.6437L88.7654 30.2182L89.0242 30.1809L90.5302 31.3653L90.3086 31.7927L90.538 32.177L90.0458 32.6947L90.7125 33.4124L91.3968 34.7614L91.8929 36.3595L92.2479 36.8105L92.5969 38.1282L92.3734 38.5223L92.5126 39.6675L92.7224 40.5008L92.9793 40.6832L92.6459 41.4577L92.3655 41.2126L92.2243 40.7401L91.9635 40.6342L91.5047 40.6361L91.238 41.246L90.6458 40.9891L90.5419 40.4342L90.3145 40.5518L89.8615 40.4185L89.9556 40.7714L89.7282 40.9165L89.2595 40.6891L89.036 41.0342L88.7301 40.8322L88.7085 41.0499L88.0987 41.4636L88.1242 41.6793L88.4046 41.7323L88.2948 41.997L88.4124 42.1205L88.2752 42.244L87.6556 42.0244L87.5595 42.546L86.4241 42.0401L85.6947 42.9499L84.9339 42.597L84.2397 42.8558L83.1515 42.4166L82.1554 42.7088L81.0298 43.7147L79.4082 43.3421L79.2514 42.9049L79.42 42.6813L79.2337 42.3676L78.7082 42.3813L78.1415 41.9264L78.1729 40.4597L77.9317 39.8538L77.1611 39.6243L77.0611 39.1577L77.414 38.6871L77.4748 38.0341L77.1454 37.9008L76.5042 38.4243L75.8257 38.4302L76.1316 37.1733L76.0081 37.038L76.2081 36.7693L74.6316 36.6909L73.6806 36.1223L74.1375 35.7125L74.0296 35.5634L74.1904 35.3321L74.6924 35.0752L74.7591 34.834L74.6394 34.3399L73.8061 33.0732L73.7433 32.781L73.9767 32.2771L73.5767 31.4711Z" fill="#FFCC00" stroke="white" stroke-width="0.5"/>
<path d="M25.4323 14.3438L25.9127 14.5732L26.1108 15.1183L26.3735 15.2046L26.3127 15.6614L26.7461 15.6712L26.7441 16.283L27.503 16.636L27.3206 16.787L27.6226 17.7752L28.2363 17.6537L28.5461 17.9105L29.203 17.6282L29.6422 17.8458L29.805 18.3066L30.1893 18.3556L30.307 18.8027L30.7737 19.2655L30.7717 19.6106L30.0717 19.9028L29.9815 21.3067L29.6677 21.5008L29.5579 22.1558L29.3226 22.3695L29.4658 22.5597L29.7834 22.5715L29.8717 23.1087L30.2031 23.4382L30.054 23.6558L30.358 24.299L30.7697 24.2009L31.0952 24.7382L31.758 24.8245L31.8933 25.0539L32.2012 24.9676L32.2463 25.6382L31.7051 26.3167L31.7031 26.8755L32.96 27.7148L32.258 29.1854L31.558 29.456L31.3992 29.8913L32.111 30.2325L32.0482 30.5698L32.5482 31.4914L32.1678 31.8482L31.7423 31.7129L31.309 31.9777L31.709 32.2934L32.109 31.9855L32.5325 32.0561L33.0129 32.4012L33.0502 32.6718L33.2933 32.5953L33.4581 33.1326L33.3208 33.8444L32.5031 33.2797L31.8953 33.7209L31.8874 33.9581L32.2482 34.1817L31.6521 34.6091L31.609 35.3033L31.858 35.8895L31.5835 36.2935L31.76 37.1366L29.5442 36.7327L29.4462 37.0994L29.2207 37.2425L29.054 36.968L28.5304 36.9798L27.8049 36.1209L27.7285 35.4405L26.3696 35.2935L26.1068 35.1189L25.8715 35.266L25.35 34.413L25.1558 33.6777L25.2107 33.1012L24.5166 33.0816L24.4636 32.8345L23.7636 32.6522L23.7597 32.4267L23.5303 32.413L23.3597 32.1326L23.044 32.6757L22.4734 32.8365L21.5734 32.5561L21.9302 32.011L21.5086 31.662L21.2655 31.9169L20.4537 32.1228L18.5635 31.9679L18.2458 32.3149L17.6321 32.2443L17.5007 32.6247L17.3909 32.4992L17.2301 32.6385L17.0614 32.409L16.9026 32.4992L16.834 32.1208L15.9849 32.1659L16.1438 31.911L15.9477 31.8149L15.8418 31.4071L16.3516 31.3796L16.6144 31.5541L17.0654 30.9188L17.0418 30.5698L16.5065 30.0698L16.9575 29.4187L16.9752 28.7521L17.9889 28.2462L18.1576 27.8422L17.9693 27.0755L18.4497 26.9638L18.9988 26.403L18.8242 26.25L19.0929 25.7088L18.587 24.9774L19.0066 24.8774L19.5694 23.9029L20.4165 23.7146L20.7263 22.5342L21.2479 22.2303L21.1596 21.3126L21.6224 20.6341L21.5126 20.3675L22.2832 18.7713L23.1695 18.7066L23.4715 18.0733L23.4538 17.3184L23.1401 16.8478L23.3126 16.0967L23.6264 15.6673L23.8283 15.8595L23.946 15.7085L23.7558 15.4791L24.2715 15.2693L24.6911 14.5771L25.2205 14.6791L25.4323 14.3438Z" fill="#FFCC00" stroke="white" stroke-width="0.5"/>
<path d="M48.7342 19.016L48.8774 18.769L49.2009 18.6768L49.3911 18.1082L49.8186 17.7964L50.0774 16.4218L50.9735 16.2905L51.5304 16.4258L51.6323 16.1179L51.9794 15.9218L52.2971 15.0179L52.9814 15.0787L53.3559 14.4492L54.252 14.6375L55.5109 15.2296L56.4227 15.0826L57.0051 15.3708L57.6365 15.0257L58.713 15.0728L58.7855 14.6669L59.211 14.4688L59.413 14.6904L59.8365 14.51L60.4993 14.6296L60.7503 14.6512L61.4836 15.2532L61.3562 15.5512L61.7052 16.114L62.315 16.516L61.7562 17.0022L62.019 17.2454L61.9229 17.6709L61.6091 17.7846L61.3954 17.6062L61.2523 17.8474L61.2464 18.1101L61.6621 18.6709L62.0209 18.82L61.9386 19.1258L62.1366 19.8808L61.6091 20.3239L61.9111 20.8514L61.6582 21.871L61.9052 22.0357L62.0229 23.1868L61.4346 23.6456L60.5464 23.5515L60.313 23.8417L59.6522 23.8182L58.8698 24.4299L58.4581 24.9692L58.2071 25.8084L57.8286 26.1751L57.609 27.0026L57.8875 27.234L57.7031 27.2692L57.6737 27.5261L57.3639 27.5947L56.7462 27.3614L56.3501 26.6241L56.3109 26.8359L55.9933 26.8477L55.8501 27.3281L55.4835 27.3477L55.5697 27.5418L55.2266 27.5124L55.1168 28.4732L54.8442 28.4967L54.8658 28.7379L54.4187 28.934L54.203 30.0733L53.8305 29.8987L53.1324 30.3595L52.952 30.1713L52.2088 30.3242L50.7539 29.4085L50.8402 28.9144L51.1166 28.7595L51.1657 27.8889L51.4931 27.8104L50.9245 27.2849L50.9147 27.0281L50.497 27.0594L50.3578 26.5359L49.895 26.4535L49.7715 25.7417L49.9323 25.4084L49.7068 25.2496L50.1813 24.2103L49.6989 23.3319L49.1146 23.4397L48.8656 23.177L48.9126 22.8318L48.6754 22.4436L48.4891 22.4828L48.4773 22.6867L48.2969 22.4142L47.8146 22.371L47.6401 22.0789L47.5361 20.1847L47.8048 19.9396L48.2165 20.2063L48.8028 19.7337L48.7342 19.016Z" fill="#FFCC00" stroke="white" stroke-width="0.5"/>
<path d="M76.9648 72.3957L76.1158 72.1173L76.3844 71.6996L75.504 71.5624L75.3628 70.6074L74.6392 70.6506L74.0412 70.9133L73.9922 71.2349L73.6941 71.3722L73.6627 71.8055L74.1216 72.0741L74.1628 72.3251L73.502 72.3565L73.6529 72.9742L74.1784 73.0624L74.6196 73.5271L75.2432 73.8154L75.451 73.6742L75.8158 74.2134L76.1707 74.0821L75.8648 73.5016L76.106 73.0487L76.6903 72.9389L76.9648 72.3957Z" fill="#FFCC00" stroke="white" stroke-width="0.5"/>
<path d="M63.3434 41.0968L63.5611 41.034L64.367 41.5988L64.5121 41.0909L64.9749 40.8242L65.2572 41.0223L65.4768 40.9634L65.8474 41.3066L65.8788 41.689L66.6651 41.7733L66.9161 42.0321L66.8063 42.6282L67.424 43.4125L68.1612 43.189L68.5377 43.6518L68.2691 44.2596L68.1083 44.2165L67.9946 45.1852L68.226 45.5832L68.1573 45.9714L68.8044 46.1224L68.6926 46.344L68.2652 46.3813L68.4456 46.5499L68.3416 46.8185L68.5005 47.2597L68.8338 47.2636L69.1025 47.6362L69.3319 47.6343L69.2554 47.7578L69.6652 48.0343L69.7868 48.5147L69.9907 48.4892L70.075 48.2284L70.4809 48.1911L70.6907 48.4676L71.1476 48.4539L71.5967 48.6951L71.577 48.9029L72.1261 49.4657L72.6928 49.4225L72.7555 49.5873L73.4202 49.8128L73.581 50.1834L73.3497 50.4932L74.0811 50.7089L73.9928 51.0775L74.5379 51.0755L75.0105 51.5618L75.0066 52.9109L74.4085 53.5795L73.7752 52.9501L72.8536 52.9403L72.5692 53.2501L72.4026 54.1933L72.1477 54.5717L71.6653 54.4384L71.4476 53.8325L71.1594 53.5972L70.3907 53.9168L70.3339 53.7423L69.3417 53.4619L68.8377 53.6364L68.6358 53.907L67.5142 53.8266L67.0298 54.0168L66.8632 54.2737L66.3945 54.5129L66.2984 55.2404L65.2396 55.3482L65.0651 55.1874L65.018 54.5835L64.8141 54.707L64.4043 54.5874L64.4317 54.0031L64.1827 53.6325L64.1141 52.9148L63.4395 52.6854L62.4591 51.7422L61.6061 51.501L61.2512 51.6697L60.6551 51.5187L60.3532 51.6873L59.8355 51.4814L59.1257 51.5618L58.8747 51.2677L57.1981 51.3657L57.0825 49.3931L56.4785 47.7343L57.2158 47.1538L58.255 47.0715L58.3119 46.6636L57.5805 46.0362L57.3707 45.2557L57.6021 45.14L58.0531 45.3597L58.255 44.6087L59.0923 44.5302L59.0629 44.0322L59.4551 43.9479L59.7688 43.3165L60.4708 42.9204L60.4316 42.689L60.5787 42.1498L61.3493 41.4654L61.9061 41.5988L62.4022 41.387L62.9454 41.6262L63.0689 41.2615L63.3434 41.0968Z" fill="#FFCC00" stroke="white" stroke-width="0.5"/>
<path d="M79.1234 70.7652L79.7646 70.2808L79.3783 70.2318L79.9509 69.622L80.3803 69.9083L80.7627 70.522L81.3509 70.7338L82.2372 69.3926L82.4196 69.5063L82.3274 69.7593L82.7824 69.92L82.7314 70.3632L82.9039 70.5436L83.3745 70.6632L83.4745 70.2063L83.702 70.224L83.6491 70.7828L84.0765 70.9515L84.3804 70.6103L84.5569 70.6397L84.5295 70.8162L85.1805 70.6632L85.1942 70.8416L85.9805 70.5887L86.9041 70.5671L86.8805 70.9867L87.6472 70.922L87.659 71.3672L88.2296 71.3966L88.3021 71.075L89.1786 71.3691L89.2669 70.8691L89.4826 70.9907L89.4316 71.2495L89.8747 71.3417L90.0473 70.9044L90.2493 70.9358L90.2434 71.2926L91.0532 71.3809L91.1415 70.8416L91.5513 71.0397L91.5336 71.2064L93.1317 71.1691L93.2239 70.3456L93.4709 70.375L93.5102 70.0063L93.6651 70.0024L93.818 70.0828L93.9023 71.5731L94.8141 71.7162L94.8808 72.3495L95.8181 72.6201L96.3102 73.0064L96.0475 73.2143L96.2102 73.479L96.0789 73.5751L96.3946 73.9319L96.5907 73.7476L96.726 73.9653L97.026 74.0084L97.4142 73.279L99.4594 73.977L99.1751 74.6222L98.4221 75.5614L96.7769 75.7202L95.82 76.4987L94.7043 76.3732L94.1847 76.5026L92.3258 77.8027L91.0866 77.7419L90.5532 77.5321L90.0453 77.7948L89.1512 77.9027L87.2923 77.3399L86.4354 77.6105L85.302 77.6634L83.2706 78.6654L82.6471 78.6458L81.4647 79.0596L80.6548 79.0105L79.4744 79.336L78.5018 79.2635L78.2783 78.2007L79.1391 77.6948L79.2685 77.4438L79.0783 76.7536L78.9097 76.6771L79.0979 76.4301L78.9175 76.0575L78.4489 76.0301L78.3665 75.7124L77.7332 75.5144L77.4606 75.0085L77.0469 74.7379L77.3626 74.3731L77.09 74.1359L77.9391 73.6045L77.8253 73.5849L78.0195 73.3986L77.8528 73.3868L77.7587 73.0319L78.0763 73.1064L77.9508 72.9241L78.2332 72.9103L78.4548 72.6064L78.9646 72.575L79.7372 72.0652L79.5783 71.7868L78.8548 71.8672L78.4587 71.3789L79.1234 70.7652Z" fill="#FFCC00" stroke="white" stroke-width="0.5"/>
<path d="M28.4728 50.1875L28.8199 50.362L29.7258 51.8974L30.4454 51.715L30.6239 52.0974L31.118 51.9738L31.0494 52.5895L31.2729 52.5268L31.8063 53.4209L32.069 54.821L31.5729 55.9857L30.5886 56.8505L30.7337 57.3289L30.5592 57.8446L30.9768 57.8309L31.2945 58.0485L31.0494 58.4584L30.5376 58.6839L30.1964 59.4545L30.4043 59.731L31.3278 59.9388L31.4572 60.3133L30.1415 61.9683L29.2846 62.6918L29.6042 62.9212L29.2826 63.2193L29.2846 64.4135L28.1669 66.1665L26.4688 66.0841L25.7315 65.488L25.5296 65.9763L25.6296 66.5174L25.4335 66.8096L25.0649 66.8547L24.8256 68.2234L25.2884 68.6175L25.0943 69.4881L24.9256 69.6117L24.7747 69.3234L24.4472 69.4038L24.0962 68.9254L23.6903 69.3568L23.2295 69.0842L23.1648 69.2215L22.9648 68.7077L22.0628 68.4469L20.598 68.3253L20.4196 68.1626L19.5333 68.3273L19.1529 68.1293L18.3744 68.1802L17.7744 66.4488L17.1372 66.2155L15.4332 66.137L15.1998 65.5723L14.8783 65.3194L14.7959 64.9723H14.9234L15.0096 64.5095L16.0469 64.3821L16.243 64.537L17.4274 64.1566L17.2372 63.4036L15.8763 62.8781L14.8841 61.8075L16.0979 61.4663L16.1195 60.9094L16.4489 60.5486L16.2959 60.2918L16.3881 60.0114L17.0234 59.6662L16.8626 59.129L16.5783 59.0976L16.4587 58.7819L16.894 58.5878L16.8195 58.3015L17.1175 57.4721L17.3509 57.3309L17.3646 56.9309L16.9705 56.5093L16.845 56.0622L16.4332 55.8602L16.0822 55.3622L15.9803 54.8073L16.8077 54.6328L16.592 54.3798L16.3371 54.4465L16.1959 53.6641L17.5293 53.1307L17.9176 52.0052L19.1215 51.7778L19.2882 52.115L19.7823 52.2582L20.0235 52.6856L20.9079 52.5131L21.404 52.5994L21.4255 52.1621L21.8922 52.0738L21.6844 52.5758L21.8118 52.7268L22.3118 52.5895L22.4785 52.8523L22.2961 53.2719L22.7275 53.4582L23.4079 53.4406L23.755 52.9817L23.6295 51.9189L23.855 51.7738L23.9864 51.9307L24.3844 51.564L24.7845 51.4817L25.11 50.8816L26.459 51.7189L27.11 50.2855L27.414 50.4993L28.0159 50.2797L28.1748 50.4875L28.4728 50.1875Z" fill="#FFCC00" stroke="white" stroke-width="0.5"/>
<path d="M111.262 67.7933L111.501 67.9305L111.417 68.1854L111.333 67.8619L111.154 68.0776L111.262 67.7933ZM109.664 67.9325L109.598 68.1933L109.65 67.9854L109.472 67.9697L109.862 67.7129L109.664 67.9325ZM111.519 67.7011L111.766 67.909L112.027 67.7403L111.07 69.0874L111.76 68.0384L111.337 67.6423L111.519 67.7011ZM110.247 67.4266L111.294 67.658L110.513 68.1168L109.899 68.7815L109.833 68.6109L110.07 68.3266L110.864 67.7521L110.39 67.454L109.821 67.6266L110.247 67.4266ZM100.189 65.7363L100.711 65.8952L101.203 65.7697L101.701 66.1148L101.548 66.4187L101.807 66.5893L102.054 66.3814L102.55 66.3952L102.529 67.1932L103.427 67.6501L103.554 67.9227L104.378 68.0286L104.244 68.4207L104.621 68.509L104.67 68.3443L105.019 68.4031L105.056 68.2207L105.321 68.1835L105.484 68.6992L106.127 68.5599L106.172 68.2031L108.225 68.1462L108.199 67.7717L108.564 67.6834L108.823 68.0384L109.111 67.9737L109.278 68.6325L109.805 68.6149L109.894 68.7894L109.19 69.4012L109.394 68.9227L108.933 68.9913L108.939 69.6757L109.311 69.6718L108.962 70.0031L108.621 69.8816L108.425 70.2678L108.525 70.4463L108.717 70.1737L109.125 70.2247L108.792 71.1796L108.868 71.7738L110.021 70.0816L110.749 69.7659L110.896 69.5247L110.064 71.0738L108.76 72.6366L108.027 73.8346L107.668 73.8444L107.286 74.217L107.172 75.521L107.707 76.9269L107.388 77.1818L107.727 77.3818L107.48 77.4622L107.723 77.9779L107.503 77.9701L107.584 77.8034L107.433 77.6701L107.395 78.1289L107.188 78.1799L107.701 78.2367L107.37 78.6348L107.735 80.125L107.041 81.7388L106.974 82.5643L106.592 83.4134L106.717 83.6369L106.611 84.4977L104.923 84.5879L103.662 84.2605L102.217 84.1428L99.1776 82.6663L98.556 80.2133L98.205 79.7682L97.2755 80.4996L95.9186 80.7251L95.5735 80.6231L95.1225 79.4525L94.75 79.1407L94.3441 79.7682L92.5734 79.5976L91.6577 79.776L91.1067 78.9838L90.2733 78.6819L90.0479 77.7975L90.5537 77.5348L91.0891 77.7446L92.3283 77.8073L94.1852 76.5073L94.7068 76.3759L95.8225 76.5014L96.7794 75.7229L98.4246 75.5661L99.1756 74.6268L99.4599 73.9817L99.7325 73.2817L100.621 72.1346L100.399 71.3287L99.8776 70.8463L99.407 69.8051L99.6776 68.9992L99.5207 68.5835L98.8677 67.9227H98.4697L97.7716 67.4266L97.6246 67.0815L97.7128 66.4658L98.6246 66.1285L99.2285 66.4814L99.6854 66.4442L100.189 65.7363Z" fill="#FFCC00" stroke="white" stroke-width="0.5"/>
<path d="M66.916 42.0336L67.316 41.8689L67.6376 40.7649L68.4082 40.31L68.7337 39.7786L69.6474 39.4021L69.8965 38.959L70.2357 38.9962L70.5612 39.3178L70.3827 39.5766L71.9612 41.9473L72.8338 41.7571L74.0731 41.7885L74.2907 41.1689L74.9123 41.2649L75.5123 41.0159L75.9967 41.2355L76.1241 40.8473L76.5104 40.9061L76.6653 40.4355L77.1398 40.2061L77.1614 39.6257L77.932 39.8551L78.1732 40.461L78.1418 41.9277L78.7085 42.3826L79.234 42.3689L79.4203 42.6826L79.2517 42.9062L79.4085 43.3434V44.3219L78.8046 44.9023L78.8418 45.5631L78.6124 45.9023L78.7516 46.369L78.5752 47.4279L78.8065 47.7691L78.7536 48.9613L78.2967 49.1887L78.0242 50.8809L77.7967 51.2653L77.3987 51.681L76.9614 51.0751L76.5516 51.0496L76.2025 51.2908L76.1163 51.9143L75.5751 52.832L75.0064 52.9124L75.0103 51.5633L74.5378 51.077L73.9927 51.079L74.0809 50.7103L73.3495 50.4947L73.5809 50.1848L73.4201 49.8142L72.7554 49.5887L72.6926 49.424L72.1259 49.4672L71.5769 48.9044L71.5965 48.6966L71.1475 48.4554L70.6906 48.4691L70.4808 48.1926L70.0749 48.2299L69.9906 48.4907L69.7866 48.5162L69.6651 48.0357L69.2553 47.7593L69.3317 47.6357L69.1023 47.6377L68.8337 47.2651L68.5003 47.2612L68.3415 46.82L68.4454 46.5514L68.265 46.3828L68.6925 46.3455L68.8043 46.1239L68.1572 45.9729L68.2258 45.5847L67.9944 45.1866L68.1082 44.218L68.2689 44.2611L68.5376 43.6533L68.1611 43.1905L67.4238 43.414L66.8062 42.6297L66.916 42.0336Z" fill="#FFCC00" stroke="white" stroke-width="0.5"/>
<path d="M66.8628 54.2734L67.0961 54.5303L67.2452 55.1695L67.0471 56.2029L67.8569 56.6657L68.1491 57.0696L68.1844 57.3755L67.9177 57.5971L67.7628 58.2108L67.8746 58.8304L68.2785 58.8618L68.3256 59.2716L68.7276 59.5285L68.9648 60.2227L69.7492 60.8501L69.8178 62.9835L70.0374 62.8188L70.4747 62.8874L70.657 63.1992L71.0296 63.111L71.5688 63.7934L71.3571 64.0032L71.4924 64.4208L71.1727 64.8032L71.7708 65.4267L72.2512 65.2346L73.2571 66.6817L72.7453 67.1444L72.9748 67.5484L73.2748 67.1503L73.4865 67.1582L73.5042 67.5013L73.7081 67.619L73.4865 67.7758L73.6022 68.0896L73.1277 68.2582L73.0728 68.4837L73.7375 69.0484L72.661 69.9602L72.2728 69.5877L72.0159 70.4485L71.9257 70.6426L71.6237 70.3426L71.012 70.5602L70.2394 70.2994L69.806 70.6936L69.2021 70.1034L68.6609 70.67L68.3452 70.4426L67.4197 70.925L66.9804 71.6191L66.6844 71.4485L66.9138 71.1014L66.7 70.9622L66.4667 71.0054L66.153 70.7818L65.602 70.8367L65.8177 71.576L64.949 72.3701L65.0059 72.4838L64.3411 72.6878L63.8627 72.0642L64.449 72.176L64.6019 72.0485L64.5372 71.6407L64.6863 71.4642L64.4333 70.8661L64.6431 70.5446L64.5706 70.0798L63.6274 69.0818L63.7294 68.7327L63.249 68.2562L63.6019 68.2072L64.0254 67.566L63.4392 67.2346L63.7058 65.7934L63.6549 64.6914L63.2646 63.1267L63.3882 62.4345L63.6921 62.1011L63.5548 61.6698L63.3705 61.6737L63.245 61.4109L62.9999 61.4698L62.7705 61.0972L62.9097 60.705L63.2137 60.8246L63.3843 60.3168L63.1254 59.9168L63.1882 59.7128L62.9882 59.6207L63.1372 58.7069L62.8666 58.654L62.8607 58.2853L63.1117 58.0206L63.6803 58.9285L63.9745 59.1246L64.3274 58.9716L64.2647 58.401L64.8529 58.1736L64.7039 57.3559L65.0255 56.9539L65.2922 55.8225L65.2392 55.348L66.2981 55.2401L66.3942 54.5127L66.8628 54.2734Z" fill="#FFCC00" stroke="white" stroke-width="0.5"/>
<path d="M41.5292 69.862L42.0155 69.7482L42.6018 69.1796L43.2254 69.0953L43.4705 69.4757L44.5489 69.2972L44.7764 69.6012L44.9117 67.3481L45.1215 67.2227L45.4607 67.3834L45.6019 67.7442L45.4862 68.158L45.6686 68.2521L45.7705 68.7521L45.9156 68.4286L46.1117 68.6325L47.1882 68.907L47.1039 69.5835L47.3569 69.7227L47.551 70.5875L47.0823 70.9424L47.2216 71.1836L46.7372 71.6738L47.1274 71.8522L47.0294 72.2522L47.6471 72.8522L47.8569 72.6189L48.1353 72.7405L47.9628 73.2013L49.0118 73.4954L48.904 73.7542L49.7746 74.7856L49.8001 75.1308L50.3707 75.3347L50.7864 75.8425L51.108 75.7818L51.2354 76.2073L51.3668 76.2014L51.1786 76.872L51.457 76.9249L50.9236 79.5878L51.3962 80.0427L51.2825 80.3682L51.408 80.5643L51.1864 80.5035L51.1178 80.6799L51.4178 80.9505L51.2903 81.127L51.4119 81.2133L51.1374 82.429L50.1138 83.733L49.8981 85.0134L50.3099 85.3781L48.1137 84.433L46.7078 84.2389L45.4862 83.7252L45.247 83.433L44.6391 83.38L43.5509 83.6075L42.8685 83.3761L42.2979 82.8526L41.188 82.5624L39.2193 82.6428L37.586 83.3251L36.5938 83.535L34.2035 82.8545L33.9329 82.6055L33.7388 81.9996L34.2525 80.3054L34.8819 79.8897L35.8879 79.7211L36.3271 78.9799L36.18 78.3662L35.3741 78.1897L35.5114 77.7642L36.2428 77.0112L37.0408 77.3269L37.2722 75.8445L36.7957 75.5955L36.8173 75.3896L37.1369 75.2974L37.4663 74.2503L38.0526 74.119L38.1997 73.4621L38.8389 73.3679L38.8056 73.1268L37.7036 72.5209L37.7918 72.3503L38.1213 72.3718L38.2683 71.6934L38.7821 71.3914L38.788 71.2032L39.2782 71.0973L38.984 70.6463L40.0605 70.6757L40.2684 70.4404L40.5135 70.5855L40.7782 70.409L41.037 70.6404L41.3684 70.3541L41.5292 69.862Z" fill="#FFCC00" stroke="white" stroke-width="0.5"/>
<path d="M43.2487 55.8652L43.6663 56.2045L43.9016 55.9025L44.4526 56.2692L44.9821 56.3496L45.8095 55.9103L46.4958 56.3182L45.8782 57.5614L46.6292 59.5752L46.1115 59.9222L46.135 60.9066L45.7174 61.9517L45.3762 62.1439L45.3527 62.3557L45.5389 63.0929L45.3644 64.5283L45.6154 64.5557L45.8841 65.2048L45.6076 65.5656L45.6978 66.7381L45.4605 67.3833L45.1213 67.2225L44.9115 67.348L44.7762 69.601L44.5487 69.297L43.4702 69.4755L43.2251 69.0951L42.6016 69.1794L42.0153 69.748L41.529 69.8618L40.8486 69.4755L40.9819 69.1539L39.7623 68.4206L38.6407 67.9323L36.8857 67.6244L36.5739 67.344L36.5641 67.0185L35.8014 66.697L35.4072 65.9715L35.2641 65.9028L35.0798 66.1205L34.8739 65.9773L35.0053 65.6656L34.5817 65.3675L34.1268 63.2145L34.4523 62.8262L34.3876 62.6047L34.166 62.34L33.8895 62.3498L33.6091 61.785L32.8581 61.1654L32.0934 60.9674L31.7973 60.4007L31.4581 60.3144L31.3287 59.9399L30.4051 59.732L30.1973 59.4555L30.5385 58.6849L31.0502 58.4594L31.2953 58.0496L31.7032 57.728L33.5444 57.1261L34.017 57.4947L35.2327 57.3104L35.5367 56.9947L36.0524 58.13L36.2641 58.1692L36.821 57.681L36.8955 56.9908L37.923 57.3241L38.9446 56.681L39.778 56.7966L40.0074 56.2907L40.4956 56.2692L40.5466 56.1005L40.7741 56.4829L41.4643 56.9104L43.2487 55.8652Z" fill="#FFCC00" stroke="white" stroke-width="0.5"/>
<path d="M92.6572 41.729L92.9964 41.7486L93.2043 42.0408L93.1435 42.6251L93.32 42.9173L93.1004 43.1428L93.418 43.733L93.8592 44.0487L94.2259 43.8075L94.2357 43.1546L94.5161 43.031L93.9984 41.9565L94.1749 41.9133L93.9729 41.7055L94.0416 41.4212L95.0279 41.8447L95.3083 41.6192L95.6122 41.7859L96.1514 41.7329L96.3946 42.1251L97.0887 41.9879L97.3397 41.6231L97.3279 41.2623L97.6554 41.1035L97.6711 41.5427L98.1299 41.3525L98.4868 41.6741L98.8202 41.5741L98.9966 42.1545L99.3202 41.982L99.5025 42.231L100.232 42.0016L100.724 42.1133L100.797 42.2447L100.548 42.3349L100.616 42.6957L100.412 42.6781L100.516 42.9546L100.369 43.0546L100.563 43.3251L100.322 43.9605L100.606 44.3252L100.514 44.5095L100.856 45.5233L100.697 46.2527L100.95 46.3841L100.887 46.6292L100.603 46.7017L100.636 47.4782L100.82 47.7959L100.693 47.9077L100.963 48.1645L101.218 48.1037L101.089 48.49L101.381 48.9449L101.428 49.4293L101.289 49.5391L101.436 49.9862L101.271 50.494L101.465 50.5979L101.252 50.745L101.265 50.9685L100.912 51.0607L100.714 50.9254L100.389 51.3313L100.805 51.9117L101.02 51.8176L101.118 52.0215L101.244 51.8588L101.148 52.0999L101.365 52.4L101.367 52.8686L101.226 53.0333L101.636 53.6863L102.016 53.8157L101.75 54.1118L101.652 54.7706L100.995 54.3549L100.465 54.2824L99.6104 54.9432L99.1613 54.9902L99.0417 55.1706L97.7848 54.6392L97.4436 54.9628L97.5299 55.0608L96.8926 55.1001L96.5083 54.8647L96.4671 54.6098L95.9671 54.751L96.0652 54.151L95.8338 54.2432L95.8181 54.0706L95.5573 54.1373L95.6338 53.9255L95.2338 53.8863L95.3083 53.5471L94.9416 53.7157L94.9024 53.3647L94.32 53.8863L94.1729 53.4882L93.7161 53.3529L93.5847 53.4941L93.4768 53.2569L93.2239 53.2667L93.4239 53.0882L93.1651 52.7627L93.2651 52.3882L92.9592 52.1274L93.02 51.8529L93.3494 51.7568L93.0866 51.3431L92.867 51.3038L93.0651 51.0587L92.7749 50.998L92.7101 50.6901L92.4552 50.7587L92.2474 50.0097L91.9219 50.1646L91.1454 49.0861L91.0866 48.3743L90.7258 47.9057L90.3571 46.4743L89.6904 45.1213L89.4395 44.1879V43.7722L90.1277 43.3997L90.0924 43.1016L90.3493 42.7271L91.9376 42.5192L91.867 41.7074L91.9689 41.6251L92.5533 42.0565L92.6572 41.729Z" fill="#FFCC00" stroke="white" stroke-width="0.5"/>
<path d="M66.9814 71.6193L67.4207 70.9251L68.3462 70.4428L68.6619 70.6702L69.2031 70.1035L69.807 70.6937L70.2404 70.2996L71.0129 70.5604L71.6247 70.3427L71.9267 70.6427L72.0169 70.4486L72.4659 70.3937L72.6875 70.6251L72.8679 70.8722L72.5757 71.4271L72.7875 71.4977L72.5444 71.9761L72.2306 71.8487L72.1698 71.4996L71.9796 71.6487L72.1757 72.5801L71.6581 73.0409L72.5071 73.6429L72.6032 73.9252L73.5111 74.1409L73.7366 74.3586L73.8111 74.5997L73.5268 75.1939L73.9601 74.637L74.6091 75.2507L74.9543 75.239L74.9758 75.5233L75.6464 75.8312L75.9013 75.7704L76.0308 75.5625L76.1523 75.6213L76.4229 75.2233L76.5327 75.3429L76.7994 75.0801L77.0484 74.737L77.4622 75.0076L77.7347 75.5135L78.3681 75.7115L78.4504 76.0292L78.9191 76.0567L79.0995 76.4292L78.9112 76.6763L79.0799 76.7528L79.2701 77.443L79.1407 77.694L78.2799 78.1999L78.5034 79.2626L77.7504 79.447L76.419 80.1627L75.7504 80.1646L75.2288 80.4882L74.5797 81.5372L73.262 82.3471L72.311 83.802L71.462 84.3706L71.0992 85.0099L70.4365 85.3628L69.6756 85.3726L69.4325 83.0765L69.0129 82.9216L69.0501 82.6275L68.7541 82.1765L68.9874 81.9961L69.0776 81.0156L68.8344 80.6313L68.9933 80.5392L68.8286 80.3372L68.7148 79.1666L69.1599 79.0489L68.9815 78.6234L69.2874 78.1273L69.4717 78.2175L69.5227 77.8861L69.7188 78.2528L69.8698 77.7959L70.209 77.6842L69.4698 77.039L69.5796 76.2723L69.9659 75.4664L69.6482 75.2174L69.6325 74.8076L69.4776 74.7586L69.3756 75.0841L69.0188 74.8527L69.1305 74.6017L68.6521 74.3703L68.4168 74.486L67.1069 74.2272L67.154 73.7605L67.4285 73.4036L67.3089 73.2526L67.654 72.8762L67.0442 72.435L67.256 71.984L66.9814 71.6193Z" fill="#FFCC00" stroke="white" stroke-width="0.5"/>
<path d="M32.6325 37.7266L32.9521 37.7599L33.36 38.2109L34.8992 38.1619L35.2659 38.9364L35.0875 39.2894L35.5443 40.0737L36.1855 40.4423L36.4248 40.2933L36.6797 40.6855L36.9542 40.7816L37.0209 41.5326L36.7542 41.411L36.5012 41.5443L36.8954 42.3424L36.7444 42.6071L36.8777 43.1287L37.2699 43.3522L37.5777 43.2934L37.9836 43.6483L38.5719 43.517L38.4738 43.8758L39.1366 45.3484L39.6582 45.6562L39.9876 46.2347L39.9523 47.2936L40.219 48.2014L40.619 48.6171L40.3621 49.3897L41.0798 50.0721L40.6582 50.678L41.1798 50.9486L41.1622 51.627L42.121 51.8211L42.2622 52.3231L42.5407 52.3016L43.0289 52.7722L43.3289 53.7624L43.0642 54.5506L43.2838 54.633L43.3975 55.2409L43.2485 55.8644L41.4641 56.9095L40.7739 56.4821L40.5465 56.0997L40.4955 56.2683L40.0072 56.2899L39.7778 56.7958L38.9445 56.6801L37.9229 57.3233L36.8954 56.9899L36.8209 57.6802L36.264 58.1684L36.0522 58.1292L35.5365 56.9939L35.2326 57.3096L34.0168 57.4939L33.5443 57.1252L31.703 57.7272L31.2952 58.0488L30.9775 57.8311L30.5599 57.8449L30.7344 57.3292L30.5893 56.8507L31.5736 55.986L32.0697 54.8212L31.807 53.4212L31.2736 52.5271L31.0501 52.5898L31.1187 51.9741L30.6246 52.0976L30.4461 51.7153L29.7265 51.8976L28.8206 50.3623L28.4735 50.1878L28.9755 49.5191L29.0363 49.0465L29.6343 48.8877L30.001 48.1798L29.7128 47.8622L29.4049 48.0759L29.1637 48.0034L29.1049 47.1308L28.5931 46.7759L28.3147 46.8622L27.8382 46.2014L28.2206 45.8798L28.25 45.6131L28.5422 45.1386L28.4657 44.9837L27.699 44.915L27.3853 44.3778L27.4696 44.1719L27.9461 44.2248L28.0637 43.9562L28.5637 43.9581L28.5147 42.5287L28.2755 42.3287L28.8814 41.7875L28.9069 41.5404L29.3402 41.3385L28.8226 40.9169L28.6225 40.3149L29.3108 39.7423L29.6343 40.211L30.103 40.1168L30.2128 39.9345L31.3932 39.9404L31.6638 38.2972L32.2109 38.1109L32.6325 37.7266Z" fill="#FFCC00" stroke="white" stroke-width="0.5"/>
<path d="M64.1786 24.0931L65.0904 23.5147L66.1826 24.0578L66.4453 23.4323L67.0669 23.2559L67.8728 23.6892L67.9414 24.2069L68.7944 24.3559L69.0689 24.0049L69.5219 24.1226L70.4847 24.4363L70.9906 25.2108L70.9219 25.4677L71.3514 26.4069L71.5573 26.1854L71.8788 26.2011L72.171 26.5971L71.9004 26.6403L71.6612 27.1834L71.3435 27.1168L70.8278 27.9207L71.0729 28.2482L70.8749 28.707L71.4259 29.0502L71.5337 29.858V30.362L71.1592 30.8502L71.2278 31.0404L72.1886 32.1934L72.6965 32.1209L72.3886 31.5032L72.4887 31.3012L73.5769 31.4718L73.9769 32.2777L73.7436 32.7817L73.8063 33.0738L74.6397 34.3405L74.7593 34.8347L74.6926 35.0759L74.1907 35.3327L74.0299 35.5641L74.1377 35.7131L73.6809 36.1229L74.6319 36.6916L76.2084 36.77L76.0084 37.0387L76.1319 37.174L75.826 38.4309L76.5045 38.425L77.1457 37.9014L77.4751 38.0348L77.4143 38.6877L77.0614 39.1583L77.1614 39.625L77.1398 40.2054L76.6653 40.4349L76.5104 40.9055L76.1241 40.8466L75.9966 41.2349L75.5123 41.0153L74.9123 41.2643L74.2907 41.1682L74.073 41.7878L72.8338 41.7565L71.9612 41.9467L70.3827 39.576L70.5611 39.3172L70.2356 38.9956L69.8964 38.9583L69.6474 39.4015L68.7336 39.778L68.4081 40.3094L67.6375 40.7643L67.3159 41.8682L66.9159 42.0329L66.6649 41.7741L65.8786 41.6898L65.8473 41.3074L65.4767 40.9643L65.257 41.0231L64.9747 40.8251L64.5119 41.0917L64.3668 41.5996L63.5609 41.0349L63.3433 41.0976L62.7903 40.6976L62.4785 39.8839L62.1491 39.8878L62.0236 39.6564L60.5138 39.6348L60.3098 39.5505L60.2432 39.127L59.8059 38.8466L59.551 38.9407L59.3196 38.5191L59.6627 38.0603L59.3627 38.0112L59.1294 37.3446L59.2961 37.1602L59.7941 37.2857L59.9667 37.1661L60.3706 37.4446L60.8275 37.2034L60.3804 36.3994L61.2099 35.8288L61.555 35.2366L61.2099 35.0915L61.051 35.5033L60.904 35.1974L60.9746 34.9288L61.3177 34.717L61.4432 34.268L61.9903 34.0131L62.253 33.6248L63.0805 33.6405L64.1609 32.1346L64.8884 31.6071L64.7708 31.1659L65.1002 29.7129L64.7962 29.4855L64.7766 28.8776L64.3864 28.6933L64.759 26.9521L64.6119 25.1814L64.1158 24.6422L64.1786 24.0931Z" fill="#FFCC00" stroke="white" stroke-width="0.5"/>
<path d="M78.9737 70.5889L78.8521 70.8202L78.7717 70.5497L78.456 70.6281L78.258 70.1869L78.654 69.6437L78.5521 69.5026L79.007 69.0908L79.2697 69.3457L79.5952 69.1123L79.5992 68.6751L78.6129 68.9378L78.1325 67.979L78.5148 67.7123L78.5168 67.4064L78.2599 66.9044L77.6815 66.373L77.2226 66.5534L77.0618 66.8966L76.1951 66.5181L76.0383 66.6613L75.6069 66.4907L75.4481 66.6554L75.0245 66.3907L75.0912 66.8319L74.7618 66.626L74.4755 66.928L74.4539 66.7946L73.8598 66.8848L73.6264 66.7574L73.3833 66.8456L73.4852 67.1652L73.5029 67.5064L73.7068 67.626L73.4852 67.7829L73.6009 68.0966L73.1264 68.2653L73.0715 68.4888L73.7362 69.0535L72.6578 69.9653L72.2715 69.5928L72.0126 70.4536L72.4617 70.3987L72.6833 70.63L72.8656 70.8791L72.5715 71.434L72.7833 71.5026L72.5401 71.9811L72.2264 71.8536L72.1656 71.5046L71.9754 71.6536L72.1715 72.585L71.6538 73.0458L72.5029 73.6478L72.5989 73.9302L73.5068 74.1459L73.7323 74.3635L73.8088 74.6047L73.5245 75.1988L73.9558 74.6419L74.6069 75.2557L74.95 75.2459L74.9716 75.5302L75.6441 75.8381L76.15 75.6283L76.4206 75.2302L76.6089 75.3125L77.0461 74.7439L77.3618 74.3792L77.0893 74.1419L77.9403 73.6105L77.8266 73.5909L78.0187 73.4046L77.854 73.3929L77.7599 73.038L78.0775 73.1144L77.9521 72.9321L78.2344 72.9184L78.456 72.6144L78.9658 72.585L79.7384 72.0752L79.5796 71.7967L78.856 71.8771L78.4599 71.3889L79.1246 70.7752L78.9737 70.5889ZM76.754 72.8184L76.6893 72.9399L76.1069 73.0497L75.8657 73.5027L76.1716 74.0811L75.8167 74.2125L75.452 73.6752L75.2441 73.8164L74.6206 73.5262L74.1794 73.0635L73.6539 72.9733L73.5029 72.3576L74.1637 72.3262L74.1225 72.0752L73.6617 71.8065L73.6951 71.3732L73.9931 71.2359L74.0421 70.9144L74.6382 70.6497L75.3637 70.6085L75.503 71.5634L76.3834 71.7007L76.1147 72.1183L76.9638 72.3968L76.754 72.8184Z" fill="#FFCC00" stroke="white" stroke-width="0.5"/>
<path d="M81.5832 64.7266L81.8578 65.5423L83.6304 65.5109L83.897 65.9109L84.3343 66.0756L84.5422 65.7952L84.9559 65.7658L85.1206 65.458L86.5403 66.1501L86.4932 65.905L86.803 65.4874L87.9658 66.1207L87.807 66.7482L88.2619 66.9149L88.3188 66.7913L88.8502 66.9972L89.0188 66.6188L88.4345 66.3874L88.4972 65.9933L89.1737 65.8815L89.2698 66.2462L89.96 66.7541L90.5659 65.6854L91.1012 65.7246L91.0345 65.9227L91.5404 66.2168L91.9914 65.9678L92.0267 66.1207L92.913 66.258L93.1621 66.2756L93.1836 66.0717L93.9091 66.0619L95.5935 66.405L97.1132 66.156L97.6602 66.2345L97.7093 66.4619L97.623 67.0776L97.7701 67.4247L98.4681 67.9208H98.8662L99.5191 68.5816L99.676 68.9973L99.4054 69.8012L99.876 70.8424L100.398 71.3248L100.619 72.1307L99.7329 73.2778L99.4603 73.9778L97.4151 73.2798L97.0269 74.0092L96.7269 73.9661L96.5916 73.7484L96.3955 73.9327L96.0798 73.5759L96.2112 73.4798L96.0484 73.2151L96.3112 73.0072L95.819 72.6209L94.8817 72.3503L94.8151 71.717L93.9033 71.5739L93.8189 70.0836L93.666 70.0032L93.5111 70.0071L93.4719 70.3758L93.2248 70.3464L93.1326 71.1699L91.5346 71.2072L91.5522 71.0405L91.1424 70.8424L91.0541 71.3817L90.2443 71.2934L90.2502 70.9366L90.0482 70.9052L89.8757 71.3425L89.4325 71.2503L89.4835 70.9915L89.2678 70.8699L89.1796 71.3699L88.3031 71.0758L88.2305 71.3974L87.6599 71.368L87.6482 70.9228L86.8815 70.9875L86.905 70.5679L85.9814 70.5895L85.1951 70.8424L85.1814 70.664L84.5304 70.817L84.5579 70.6405L84.3814 70.6111L84.0774 70.9523L83.65 70.7836L83.7029 70.2248L83.4755 70.2071L83.3755 70.664L82.9049 70.5444L82.7323 70.364L82.7833 69.9208L82.3284 69.7601L82.4205 69.5071L82.2382 69.3934L81.3519 70.7346L80.7636 70.5228L80.3812 69.9091L79.9518 69.6228L79.3793 70.2326L79.7655 70.2816L79.1243 70.766L78.9734 70.5895L78.8518 70.8209L78.7694 70.5503L78.4537 70.6268L78.2557 70.1875L78.6518 69.6444L78.5498 69.5012L79.0047 69.0894L79.2675 69.3444L79.593 69.111L79.5969 68.6738L78.6106 68.9365L78.1302 67.9777L78.5126 67.711L78.5145 67.4051L78.2577 66.9031L77.6792 66.3717L78.1106 65.8854L78.1498 66.1521L78.4792 66.0854L78.9086 66.3423L79.6675 65.5756L80.1322 65.8933L80.5244 65.5403L80.7146 65.6658L81.0636 65.0717L81.5832 64.7266Z" fill="#FFCC00" stroke="white" stroke-width="0.5"/>
<path d="M91.6691 14.897L91.9848 14.9323L91.8495 15.2205L92.0338 15.2774L92.0181 15.6303L92.3397 15.7519L92.1828 15.8558L92.275 16.0343L92.473 15.9402L92.3162 16.2931L92.5475 16.697L92.8083 16.6519L92.9652 16.8461L93.0868 16.6127V16.9186L93.3593 16.8382L93.3848 16.6461L93.6554 17.1206L93.8201 17.099L93.5652 17.6814L93.9731 18.1343L93.7731 18.7716L93.9476 18.6893L93.824 18.8579L94.026 18.9403L94.1162 18.805L94.0986 19.2599L94.3652 19.4089L93.9417 19.6383L94.1672 19.8403L94.2397 19.6246L94.2496 19.8422L94.4476 19.6736L94.7574 20.156L94.8417 20.0011L95.1241 20.154L95.1712 19.9717L95.2574 20.4344L95.5143 20.3481L95.4986 20.1521L95.8065 20.2462L95.9065 20.5952L96.0437 20.5854L96.0084 20.8168L96.181 20.9521L95.9947 20.958L96.1653 21.0854L96.0222 21.2443L96.5339 21.6737L96.4241 21.9502L96.5849 21.8894L96.5379 22.207L96.7398 22.2208L96.6653 22.5737L96.8614 22.7031L96.5202 22.9561L96.7143 23.1071L96.479 23.1208L97.2849 23.2286L97.3712 23.4267L97.232 23.3169L97.1085 23.5835L97.483 23.8267L97.6516 23.7404L97.9673 24.3777L98.7183 24.6738L98.5595 24.8169L99.1889 25.0679L99.2105 25.2444L99.8556 25.3091L99.9223 25.5169L99.7595 25.413L99.6517 25.5718L100.483 26.1503L100.248 26.4483L100.501 26.7386L100.281 26.9268L100.667 27.2209L100.305 27.5798L100.679 27.7425L100.736 28.019L100.501 28.1602L100.795 28.4072L100.705 28.619L99.4282 28.7484L99.1536 28.6994L98.9752 28.3994L98.4654 28.3425L98.2458 28.4739L98.5634 29.0484L98.3477 29.0778L97.3242 28.2464L96.9693 28.2151L96.9594 27.8758L96.0947 27.8445L95.1574 26.3817L94.5613 25.9934L94.3084 26.4876L94.3515 27.2131L94.528 27.1601L94.73 27.5601L94.1594 27.7719L93.2103 27.6092L93.326 27.966L92.7319 28.0229L92.6966 28.3582L92.4632 28.0759L91.7318 28.0935L91.4397 27.8327L90.7357 28.0053L90.7239 28.2112L90.4592 28.3406L90.2926 28.0857L89.3533 28.1366L89.0513 27.9209L88.8925 27.3837L88.0709 26.7229L88.2297 26.4523L88.4631 26.4778L88.4454 26.2699L88.869 25.7542L89.1259 25.9836L89.6043 25.6718L88.8768 25.1718L88.7298 24.2836L88.267 24.3365L88.0337 24.1247L87.2846 24.1993L86.9572 25.0287L86.5689 24.9836L86.2277 24.311L86.0728 24.8895L85.163 25.2209L84.2845 25.0483L84.11 24.5502L83.3727 23.7639L82.8629 24.0404L82.5453 23.6541L81.9825 24.1345L81.704 23.2012L81.8629 23.062L81.6452 22.1109L80.5628 20.9795L81.1766 20.256L81.0334 19.907L80.5079 19.5011L80.3511 19.5658L80.106 18.4618L80.4981 18.2893L80.6962 18.705L81.0864 18.6873L81.6197 19.1207L82.4413 19.0716L82.3158 18.8873L82.457 18.6814L82.0256 18.2814L82.4766 18.0245L82.3472 17.7657L82.4884 16.9853L82.7256 16.5716L83.1668 16.5814L83.0747 16.199L83.3061 16.0362L84.5924 16.5245L86.5277 16.5931L87.0768 17.5559L87.3631 17.0265L87.565 17.099L87.5317 16.3794L87.7964 15.4833L88.365 15.948L88.6611 15.6637L88.6984 15.9735L89.4161 15.9558L89.9141 15.7774L89.718 15.2931L89.8337 15.1637L90.2024 15.295L90.6338 14.9656L91.5142 14.7695L91.6691 14.897Z" fill="#FFCC00" stroke="white" stroke-width="0.5"/>
<path d="M23.1646 69.2226L23.2293 69.0853L23.6901 69.3579L24.096 68.9265L24.4469 69.4049L24.7744 69.3246L24.9254 69.6128L25.094 69.4893L25.2881 68.6187L24.8254 68.2245L25.0646 66.8558L25.4333 66.8107L25.6293 66.5186L25.5293 65.9774L25.7313 65.4891L26.4686 66.0852L28.1667 66.1676L29.2844 64.4146L29.2824 63.2204L29.604 62.9224L29.2844 62.693L30.1413 61.9694L31.457 60.3145L31.7962 60.4007L32.0923 60.9674L32.857 61.1655L33.608 61.7851L33.8884 62.3498L34.1649 62.34L34.3865 62.6047L34.4512 62.8263L34.1257 63.2146L34.5806 65.3676L35.0042 65.6656L34.8728 65.9774L35.0787 66.1205L35.263 65.9029L35.4061 65.9715L35.8003 66.697L36.563 67.0186L36.5728 67.3441L36.8846 67.6245L38.6396 67.9324L39.7612 68.4206L40.9808 69.154L40.8475 69.4755L41.5279 69.8618L41.3671 70.354L41.0357 70.6403L40.7769 70.4089L40.5122 70.5854L40.2671 70.4403L40.0592 70.6756L38.9827 70.6462L39.2768 71.0972L38.7866 71.203L38.7807 71.3913L38.267 71.6933L38.1199 72.3717L37.7905 72.3501L37.7023 72.5207L38.8043 73.1266L38.8376 73.3678L38.1984 73.4619L38.0513 74.1188L37.465 74.2502L37.1356 75.2973L36.816 75.3895L36.7944 75.5953L37.2709 75.8444L37.0395 77.3268L36.2415 77.0111L35.5101 77.764L35.3728 78.1896L34.7453 78.0758L33.31 77.166L32.5237 76.4209L31.6786 76.1699L31.6903 75.0404L30.1569 74.5286L29.702 73.8678L29.4099 72.5403L28.9138 71.9697L28.9804 71.5148L29.653 71.6325L30.0275 71.456L30.2373 70.5168L30.4962 70.2422L31.0354 70.252L31.8923 70.8364L32.6845 70.4658L32.6472 69.9873L32.0648 69.2893L31.604 69.0128L30.7295 68.9775L29.0883 67.297L28.8569 67.2519L28.353 67.4637L28.0216 67.8872L27.3784 67.95L27.0372 68.1794L26.5588 68.8794L25.4097 71.4521L24.9332 71.6266L24.0665 71.154L23.9293 70.6089L23.5175 70.3324L23.3822 69.454L23.1646 69.2226Z" fill="#FFCC00" stroke="white" stroke-width="0.5"/>
<path d="M42.9642 6.91721L43.5838 6.82701L44.2426 7.28389L45.6643 7.08193L46.227 7.39566L46.5349 8.10745L46.7721 8.25647L46.98 8.07215L47.733 7.97411L47.8741 7.68587L48.582 7.60351L48.882 7.94077L49.2565 7.87803L49.6742 8.16235L49.8938 8.58786L50.9095 8.52707L51.3723 8.91924L52.5919 8.36824L52.9096 8.58198L53.3175 8.36236L53.4645 7.85254L53.9939 7.54272L54.9528 7.8996L55.743 7.57998L56.0823 8.00352L56.4391 7.92901L56.5529 8.40746L57.0215 8.94473L56.998 9.53299L57.3862 9.74084L57.4274 9.9781L57.8117 9.93496L58.0215 10.184L58.2019 10.0154L58.4196 10.284L58.9823 10.3762L58.898 10.6428L59.0804 11.1193L59.602 11.6331L59.6902 12.1841L60.4589 12.086L60.5373 12.6096L60.9157 12.737L61.9001 13.6508L61.8177 13.8116L61.2628 13.9312L60.5 14.6292L59.8373 14.5096L59.4137 14.69L59.2118 14.4684L58.7863 14.6665L58.7137 15.0724L57.6372 15.0253L57.0058 15.3704L56.4234 15.0822L55.5116 15.2293L54.2528 14.6371L53.3567 14.4488L52.9821 15.0783L52.2978 15.0175L51.9802 15.9214L51.6331 16.1175L51.5311 16.4254L50.9742 16.2901L50.0781 16.4214L49.8193 17.796L49.3918 18.1078L49.2016 18.6764L48.8781 18.7686L48.735 19.0156L48.4526 18.8921L47.2467 19.1431L46.9937 18.8509L46.6329 18.8588L46.3388 19.2588L46.4721 19.4961L46.0015 19.3098L45.4172 19.5529L44.7976 19.5392L44.8289 19.1882L44.4858 19.1608L44.3172 18.7392L44.0015 18.5647L42.9152 18.9333L41.3092 18.6588L40.8621 18.3823L40.2288 18.3176L40.1994 18.0666L39.917 18.0862L39.766 17.8058L38.5934 17.6097L38.5778 17.4215L38.066 17.2372L37.0208 17.8038L36.7561 17.4764L35.9953 17.8136L35.3561 17.5509L35.3247 16.6607L35.7169 16.7568L35.9051 16.5528L36.3483 16.6058L36.4444 15.3861L37.5836 14.0704L38.1366 14.8586L38.5856 14.9802L38.9993 15.3783L39.3817 15.3665L39.5366 13.6939L40.0053 13.6194L40.7504 12.937L40.6249 12.8056L40.4661 12.9155L40.1151 12.4017L39.6739 12.3939L39.5013 12.1154L38.8444 12.188L38.7542 11.6919L39.1229 10.8566L39.3739 10.7958L40.2327 11.1723L40.5994 11.0801L41.5249 11.4664L41.8818 11.0938L42.8955 10.6644L43.3367 9.83103L43.576 9.9075L43.9662 9.50161L43.7505 9.01924L43.3093 8.83492L42.9603 8.0349L42.6799 8.05254L42.1269 7.5741L42.4916 6.61328L42.9642 6.91721Z" fill="#FFCC00" stroke="white" stroke-width="0.5"/>
<path d="M62.0228 23.1875L62.3757 23.5052L62.9562 23.5503L63.3601 23.3228L64.1778 24.0934L64.115 24.6425L64.6111 25.1817L64.7582 26.9523L64.3856 28.6936L64.7758 28.8779L64.7954 29.4857L65.0994 29.7132L64.7699 31.1662L64.8876 31.6074L64.1601 32.1349L63.0797 33.6408L62.2522 33.6251L61.9894 34.0133L61.4424 34.2683L61.3169 34.7173L60.9737 34.9291L60.9031 35.1977L61.0502 35.5036L61.209 35.0918L61.5541 35.2369L61.209 35.8291L60.3796 36.3997L60.8267 37.2036L60.3698 37.4448L59.9659 37.1664L59.7933 37.286L59.2952 37.1605L59.1286 37.3448L59.3619 38.0115L59.6619 38.0605L59.3188 38.5194L59.5502 38.941L59.8051 38.8468L60.2423 39.1272L60.309 39.5508L60.5129 39.6351L62.0228 39.6567L62.1483 39.888L62.4777 39.8841L62.7895 40.6979L63.3424 41.0979L63.0679 41.2626L62.9444 41.6273L62.4012 41.3881L61.9051 41.5999L61.3483 41.4665L60.5776 42.1509L60.4306 42.6901L60.0953 42.645L59.7188 42.143L58.6737 42.4489L58.3187 42.2842L58.205 42.5548L57.7246 42.5234L57.5481 42.7195L57.1658 42.5372L56.9991 42.2666L57.156 40.5959L57.1403 40.1665L56.8971 39.8273L57.0579 39.6057L56.952 38.9782L56.6148 39.0782L56.3775 39.5253L56.052 39.6057L55.6187 39.3567L54.7735 39.6939L54.6402 39.4331L53.8578 39.3449L53.2696 39.6998L52.3225 39.4822L51.8715 39.4978L51.693 39.7037L51.2675 39.337L50.993 39.3763V39.088L50.3244 38.737L50.1557 38.0586L49.489 38.0547L48.5733 37.3938L48.4459 37.1076L48.7518 36.784L48.9518 35.7722L48.7106 35.7997L48.44 36.2232L48.1302 36.2095L47.987 35.786L47.9321 34.6585L48.3361 34.2075L48.8282 34.3565L48.8459 33.9467L49.3361 33.0153L48.7224 32.8349V32.5957L49.2518 32.0819L49.7518 32.0192L49.9714 31.5035L49.9969 31.278L49.4479 31.0034L49.2733 30.6211L50.842 29.5975L50.7538 29.4093L52.2087 30.325L52.9519 30.172L53.1323 30.3603L53.8304 29.8995L54.2029 30.074L54.4186 28.9347L54.8657 28.7387L54.8441 28.4975L55.1167 28.474L55.2265 27.5131L55.5696 27.5425L55.4834 27.3484L55.85 27.3288L55.9932 26.8484L56.3108 26.8366L56.3501 26.6249L56.7461 27.3621L57.3638 27.5955L57.6736 27.5269L57.703 27.27L57.8874 27.2347L57.6089 27.0033L57.8285 26.1758L58.207 25.8092L58.458 24.9699L58.8697 24.4307L59.6521 23.8189L60.3129 23.8424L60.5463 23.5522L61.4345 23.6463L62.0228 23.1875Z" fill="#FFCC00" stroke="white" stroke-width="0.5"/>
<path d="M69.522 24.1221L69.6161 23.5593L69.9769 23.126L70.0181 22.6416L70.3142 22.4985L70.22 22.071L70.4985 21.7397L71.3534 21.6671L71.6828 21.0867L70.8593 19.8514L70.9808 19.7317L71.7711 19.9043L72.5319 20.8416L72.7417 20.8769L73.0025 20.571L73.575 20.3631L74.7261 20.5769L75.3143 20.2357L76.1496 20.3259L76.2751 20.1239L77.0379 20.5318L77.2673 20.171L77.6732 20.2337L78.985 19.4082L79.4301 19.6082L79.589 20.0965L80.5635 20.9788L81.6459 22.1103L81.8636 23.0613L81.7047 23.2005L81.9832 24.1338L82.5459 23.6534L82.8636 24.0397L83.3734 23.7632L84.1107 24.5495L84.2852 25.0476L85.1637 25.2202L86.0735 24.8888L86.2284 24.3103L86.5696 24.9829L86.9578 25.028L87.2853 24.1986L88.0343 24.124L88.2677 24.3358L88.7304 24.2829L88.8775 25.1711L89.605 25.6712L89.1265 25.9829L88.8697 25.7535L88.4461 26.2692L88.4638 26.4771L88.2304 26.4516L88.0716 26.7222L88.8932 27.383L89.052 27.9202L88.9167 28.0928L89.2893 28.5281L89.3363 29.1144L89.2795 29.9968L89.0246 30.1811L88.7657 30.2184L88.452 30.6439L88.3893 30.3184L88.0324 30.389L87.7343 29.938L87.3304 30.1968L87.1147 29.9615L85.8774 30.2537L85.7421 29.7242L85.5578 29.9007L85.4637 29.5615L85.2009 29.4928L85.3892 29.4713L85.4833 29.0752L84.9029 28.8811L84.895 29.2673L84.6754 29.4066L84.6127 29.8497L84.2401 30.1144L84.1166 30.6439L83.7283 30.7596L83.244 29.8066L83.1479 30.0968L82.5204 30.038L82.3714 30.6988L81.491 31.24L80.9596 31.8674L80.5635 31.4223L80.2733 31.3831L80.0478 31.6478L79.3596 31.6674L78.2595 32.3498L77.6026 32.1125L77.2163 31.2243L76.8457 31.4478L76.5379 32.1341L75.83 32.3498L75.632 32.0341L75.13 32.2439L74.8457 32.0674L74.7476 31.2027L73.8417 31.2458L73.577 31.4713L72.4887 31.3007L72.3887 31.5027L72.6966 32.1204L72.1887 32.1929L71.2279 31.04L71.1593 30.8498L71.5338 30.3615V29.8576L71.426 29.0497L70.875 28.7065L71.073 28.2477L70.8279 27.9202L71.3436 27.1163L71.6613 27.183L71.9005 26.6398L72.1711 26.5967L71.8789 26.2006L71.5573 26.1849L71.3514 26.4065L70.922 25.4672L70.9907 25.2104L70.4847 24.4358L69.522 24.1221Z" fill="#FFCC00" stroke="white" stroke-width="0.5"/>
<path d="M47.5511 70.5864L48.4844 70.4629L48.8295 70.5864L48.7982 70.7943L48.9962 70.6629L48.9393 70.9531L49.1805 71.2021L49.5727 71.21L50.2257 70.006L50.6865 69.9099L50.9669 70.1511L51.461 70.0923L51.5237 69.7256L52.1002 69.6766L52.059 69.3139L52.6355 69.7158L52.4061 68.0981L51.9277 67.5236L52.012 66.5687L52.1571 66.1451L52.4375 66.1098L52.4473 65.1451L52.8042 64.8568L52.6983 64.5196L53.4277 64.249L53.614 64.0137L53.8356 64.1549L53.9022 64.8902L54.0532 65.0314L53.8964 65.3882L54.7062 65.3274L54.6905 64.8706L55.1121 64.0862L55.3592 64.1019L55.3552 64.7333L55.7337 65.7529L55.916 65.8059L55.9807 66.5765L56.3729 66.9902L57.4259 66.9432L57.4102 67.3726L57.171 67.655L57.7181 69.1942L57.5455 69.5766L57.722 69.8354L57.7788 70.5806L57.6239 71.1963L57.8004 71.7865L57.7612 72.714L58.0338 73.0983L58.6651 73.0865L58.7514 73.2493L59.0063 74.1022L59.2377 74.3258L58.9926 74.4826L58.9534 75.7611L58.824 75.8494L59.1083 75.967L58.5534 76.5906L58.671 77.1553L59.1671 77.6102L59.2985 78.2553L57.5592 78.8749L57.7102 79.2279L56.8886 79.3828L55.9062 79.8691L56.2121 80.5123L56.471 80.577L56.5102 80.8946L56.6906 80.9593L56.5004 81.1083L56.8141 81.4907L56.8553 81.8476L57.6592 82.8339L57.169 83.081L58.071 83.1261L57.6671 83.3476V83.6614L57.2808 83.7496L57.1631 84.1633L56.7925 84.283L56.7416 84.7673L55.9945 84.3006L54.8454 84.1026L53.6062 84.5732L52.7885 85.2536L50.8276 85.5046L50.31 85.3771L49.8982 85.0124L50.1139 83.732L51.1374 82.428L51.412 81.2123L51.2904 81.126L51.4179 80.9495L51.1178 80.6789L51.1865 80.5024L51.408 80.5632L51.2826 80.3672L51.3963 80.0416L50.9237 79.5867L51.4571 76.9239L51.1786 76.871L51.3669 76.2003L51.2355 76.2062L51.108 75.7807L50.7865 75.8415L50.3708 75.3337L49.8002 75.1297L49.7747 74.7846L48.904 73.7532L49.0119 73.4944L47.9628 73.2003L48.1354 72.7394L47.857 72.6179L47.6471 72.8512L47.0295 72.2512L47.1275 71.8512L46.7373 71.6727L47.2216 71.1825L47.0824 70.9414L47.5511 70.5864Z" fill="#FFCC00" stroke="white" stroke-width="0.5"/>
<path d="M66.8628 54.2748L67.0295 54.0179L67.5138 53.8277L68.6354 53.9081L68.8374 53.6375L69.3413 53.463L70.3335 53.7434L70.3904 53.9179L71.159 53.5983L71.4473 53.8336L71.6649 54.4395L72.1473 54.5728L72.4022 54.1944L72.5689 53.2512L72.8532 52.9414L73.7748 52.9512L74.4081 53.5806L74.5356 53.6885L74.467 54.3709L75.2239 54.8689L75.6768 55.6631L76.3121 55.865L76.7768 56.4258L76.7592 56.7043L76.4945 56.869L76.5161 57.1984L76.7161 57.2357L77.2141 58.5357L77.7573 58.5828L78.0847 58.2828L78.3945 58.3494L78.2259 58.6906L78.4965 59.3063L79.3887 58.8592L79.8456 59.4298L79.5867 60.226L79.7671 60.4044L79.5299 60.9044L79.6985 60.8809L80.2005 62.3888L80.6397 62.175L80.9633 62.8104L81.1593 62.6947L81.1397 63.1947L80.4083 63.6378L81.5829 64.7261L81.0633 65.0712L80.7142 65.6654L80.524 65.5399L80.1319 65.8928L79.6671 65.5751L78.9083 66.3418L78.4789 66.085L78.1494 66.1516L78.1102 65.885L77.6788 66.3713L77.22 66.5497L77.0592 66.8948L76.1925 66.5164L76.0376 66.6595L75.6062 66.4889L75.4474 66.6517L75.0238 66.3889L75.0905 66.8281L74.7611 66.6222L74.4728 66.9223L74.4513 66.7889L73.8571 66.8791L73.6258 66.7517L73.3826 66.8399L73.4865 67.1595L73.2748 67.1517L72.9748 67.5497L72.7453 67.1458L73.2571 66.683L72.2512 65.2359L71.7708 65.4281L71.1727 64.8045L71.4924 64.4222L71.3571 64.0045L71.5688 63.7947L71.0296 63.1123L70.657 63.2006L70.4747 62.8888L70.0374 62.8202L69.8178 62.9849L69.7492 60.8515L68.9648 60.224L68.7276 59.5299L68.3256 59.273L68.2785 58.8632L67.8746 58.8318L67.7628 58.2122L67.9177 57.5984L68.1844 57.3768L68.1491 57.071L67.8569 56.667L67.0471 56.2043L67.2452 55.1709L67.0961 54.5317L66.8628 54.2748Z" fill="#FFCC00" stroke="white" stroke-width="0.5"/>
<path d="M51.694 39.704L51.8724 39.4981L52.3234 39.4825L53.2705 39.7001L53.8587 39.3452L54.6411 39.4334L54.7745 39.6942L55.6196 39.357L56.0529 39.606L56.3784 39.5256L56.6157 39.0785L56.953 38.9785L57.0588 39.606L56.8981 39.8276L57.1412 40.1668L57.1569 40.5962L57 42.2669L57.1667 42.5375L57.5491 42.7198L57.7255 42.5237L58.2059 42.5551L58.3197 42.2845L58.6746 42.4492L59.7197 42.1433L60.0962 42.6453L60.4315 42.6904L60.4707 42.9218L59.7687 43.3179L59.455 43.9493L59.0628 44.0336L59.0922 44.5316L58.255 44.6101L58.053 45.3611L57.602 45.1415L57.3706 45.2572L57.5804 46.0376L58.3118 46.665L58.255 47.0729L57.2157 47.1553L56.4784 47.7357L57.0824 49.3945L57.1981 51.3672L57 51.4946L56.2902 51.4044L55.6372 51.7868L54.8647 51.6829L54.6646 51.8868L54.1313 51.6181L53.9509 51.7672L52.8901 51.675L52.3489 51.9946L52.1116 51.9319L51.7626 52.4515L51.4057 52.4593L51.0567 52.7947L49.9665 52.8201L49.537 53.0574L48.7272 52.6456L47.486 52.6064L46.8507 52.8005L46.5938 52.5907L45.882 52.6535L45.2271 53.1711L44.7447 53.2378L44.2329 53.8574L43.7878 53.9633L43.7859 53.8398L44.1349 53.7339L44.0565 52.8692L43.8682 52.3633L43.5447 52.0731L43.678 51.6574L44.031 51.4103L43.8584 51.177L43.9976 50.7416L43.2682 50.0946L43.2349 49.5848L43.3702 49.171L43.878 48.969L44.0623 48.6024L44.331 48.518L43.7761 48.0612L43.929 47.7239L44.6526 47.316L45.0212 47.3925L45.284 46.2297L45.0506 46.0395L45.1938 45.7572L45.0741 45.6493L46.1252 45.5101L46.3977 45.0532L46.7664 44.8336L46.6703 44.4787L46.8134 44.1003L46.5565 43.9316L47.0919 43.3473L48.0017 43.3493L48.4958 44.1414L48.5076 43.8571L49.0154 43.5493L48.9272 43.1767L49.2723 42.7159L49.1978 42.5433L49.5939 42.2845L49.9233 41.7041L50.3704 41.6708L51.1508 41.2766L51.1939 41.106L50.8488 40.8276L51.0606 40.3119L50.9508 40.1472L51.694 39.704Z" fill="#FFCC00" stroke="white" stroke-width="0.5"/>
<path d="M37.0215 17.805L38.0667 17.2383L38.5784 17.4226L38.5941 17.6108L39.7667 17.8069L39.9177 18.0873L40.2001 18.0677L40.2295 18.3187L40.8628 18.3834L41.3099 18.6599L42.9158 18.9344L44.0022 18.5658L44.3179 18.7403L44.4865 19.1619L44.8296 19.1893L44.7983 19.5403L45.4179 19.554L46.0022 19.3109L46.4728 19.4972L45.9003 20.5168L46.1787 21.2345L45.3571 20.6698L45.2159 21.0678L44.9943 21.1757L44.9002 21.009L44.0669 21.6404L43.7433 22.1365L43.8159 22.3894L43.4355 22.6875L42.9041 22.3816L42.7237 22.8463L41.9805 22.9169L42.1786 23.4953L42.157 23.6856L41.8648 23.7346L41.9237 24.0816L41.2295 24.0993L41.7727 24.7248L41.9256 25.2856L41.7236 25.3425L41.7786 25.5209L41.404 25.9582L40.9021 25.9307L40.8236 26.0758L40.9844 26.1072L40.6118 26.2503L40.6373 26.4268L40.4648 26.468L40.6158 26.7778L40.0256 27.4602L39.8687 27.3896L39.5883 27.5916L39.3687 27.3876L39.1118 27.4327L38.7059 26.5111L38.4432 26.6739L38.5392 27.7778L38.2726 28.1935L37.749 28.1386L37.0627 28.4877L36.7156 28.3504L36.9215 27.7994L36.5862 27.5347L36.2705 27.9661L36.1646 27.5739L35.9293 27.8092L35.794 27.4974L35.3313 27.5974L34.9783 27.3739L34.7881 26.9523L34.4842 26.817L34.4646 26.2484L34.6215 26.0366L34.2195 25.9327L33.9626 25.568L33.0469 25.7484L32.2469 25.6386L32.2018 24.9679L31.8939 25.0542L31.7586 24.8248L31.0959 24.7385L30.7703 24.2013L30.3586 24.2993L30.0546 23.6561L30.2037 23.4385L29.8723 23.1091L29.784 22.5718L29.4664 22.56L29.3232 22.3698L29.5585 22.1561L29.6684 21.5012L29.9821 21.307L30.0723 19.9031L30.7723 19.6109L30.7743 19.2658L30.9762 19.2972L31.2566 18.7775L31.6998 18.7226L32.1116 18.2128L33.1547 18.0422L33.4057 18.2991L33.8293 17.8658L34.4469 18.2148L34.7999 18.1344L34.6901 18.5128L34.9626 18.5226L35.2136 19.0246L35.4705 19.1638L35.9352 18.9442L36.4784 19.1207L37.1725 18.303L37.0215 17.805Z" fill="#FFCC00" stroke="white" stroke-width="0.5"/>
<path d="M37.9031 4.70117L38.2129 5.1306L38.9012 5.22472L39.16 5.08942L39.4718 5.6012L39.3345 5.94043L40.0404 6.26593L39.9953 6.59927L40.8483 6.94635L41.0424 7.20517L41.2895 7.17576L41.5052 7.43263L42.1268 7.57381L42.6798 8.05226L42.9602 8.03461L43.3092 8.83464L43.7504 9.01896L43.9661 9.50133L43.5759 9.90722L43.3366 9.83075L42.8954 10.6641L41.8817 11.0935L41.5248 11.4661L40.5993 11.0798L40.2326 11.172L39.3738 10.7955L39.1228 10.8563L38.7541 11.6916L38.8443 12.1877L39.5012 12.1151L39.6738 12.3936L40.115 12.4014L40.466 12.9152L40.6248 12.8054L40.7503 12.9367L40.0052 13.6191L39.5365 13.6936L39.3816 15.3662L38.9992 15.378L38.5855 14.9799L38.1365 14.8584L37.5835 14.0701L36.4443 15.3858L36.3482 16.6055L35.905 16.5525L35.7168 16.7565L35.3246 16.6604L35.356 17.5506L35.9952 17.8134L36.756 17.4761L37.0207 17.8036L37.1717 18.3016L36.4776 19.1193L35.9344 18.9428L35.4697 19.1624L35.2128 19.0232L34.9619 18.5212L34.6893 18.5114L34.7991 18.133L34.4461 18.2134L33.8285 17.8643L33.4049 18.2977L33.154 18.0408L32.1108 18.2114L31.699 18.7212L31.2558 18.7761L30.9754 19.2958L30.7735 19.2644L30.3068 18.8016L30.1891 18.3546L29.8048 18.3055L29.6421 17.8447L29.2028 17.6271L28.546 17.9094L28.2361 17.6526L27.6224 17.7741L27.3204 16.7859L27.5028 16.6349L26.7439 16.2819L26.7459 15.6702L26.3126 15.6604L26.3733 15.2035L26.1106 15.1172L25.9125 14.5721L25.4321 14.3427L25.9439 12.8191L26.3322 12.6622L26.4086 12.0661L27.0714 11.8308L27.0792 11.3798L27.5655 11.7112L28.5126 11.8681L28.7479 10.6916L29.1734 10.5602L30.0303 11.2818L30.8009 11.2896L31.6912 10.9916L32.0931 10.1033L32.899 9.96409L32.6657 9.0268L33.1088 9.05229L33.7677 8.72287L34.303 7.91696L35.1285 7.61303L34.9991 7.02085L34.7638 6.86399L34.8736 6.62673L35.4285 6.76791L35.9756 7.16988L36.2031 6.90516L36.9482 6.86791L37.1502 6.30514L37.1129 5.71885L37.3423 5.50316L37.2266 5.3208L37.9031 4.70117Z" fill="#FFCC00" stroke="white" stroke-width="0.5"/>
<path d="M74.9119 7.28158L75.4531 8.27573L76.1845 8.52083L76.2041 9.04634L76.3786 9.21301L76.7571 8.89928L77.2924 9.34047L77.4316 9.73656L77.5845 9.60714L77.7885 9.88558L77.6846 10.1425L77.9787 10.2228L77.9042 10.5366L78.5983 11.3797L79.0042 11.566L78.8042 11.8523L78.8767 12.0641L79.1728 12.1974L79.1552 12.3504L79.5336 12.3425L79.665 12.8229L79.7964 12.7288L79.765 12.8896L80.0297 13.0033L79.9944 13.3582L80.7964 13.772L80.6494 13.8524L80.867 14.4053L80.6827 14.6053L80.7337 14.8975L80.9572 14.972L81.1866 15.7838L81.5219 15.8426L81.5121 16.0583L80.865 16.3034L81.3592 16.6231L81.3788 17.2231L82.4886 16.9839L82.3474 17.7643L82.4769 18.0231L82.0259 18.28L82.4573 18.68L82.3161 18.8859L82.4416 19.0702L81.62 19.1192L81.0866 18.6859L80.6964 18.7035L80.4984 18.2878L80.1062 18.4604L80.3513 19.5643L80.5082 19.4996L81.0337 19.9055L81.1768 20.2546L80.5631 20.9781L79.5885 20.0957L79.4297 19.6075L78.9846 19.4075L77.6728 20.233L77.2669 20.1702L77.0375 20.531L76.2747 20.1232L76.1492 20.3251L75.3139 20.2349L74.7256 20.5761L73.5746 20.3624L73.002 20.5702L72.7413 20.8761L72.5314 20.8408L71.7706 19.9036L70.9804 19.731L70.8588 19.8506L71.6824 21.0859L71.353 21.6664L70.498 21.7389L70.2196 22.0703L70.3137 22.4978L70.0176 22.6409L69.9765 23.1252L69.6157 23.5586L69.5215 24.1213L69.0686 24.0037L68.7941 24.3547L67.9411 24.2057L67.8725 23.688L67.0666 23.2546L66.445 23.4311L66.1822 24.0566L65.09 23.5135L64.1782 24.0919L63.3606 23.3213L62.9566 23.5488L62.3762 23.5037L62.0233 23.186L61.9056 22.035L61.6585 21.8703L61.9115 20.8506L61.6095 20.3232L62.137 19.88L61.9389 19.1251L62.0213 18.8192L61.6625 18.6702L61.2468 18.1094L61.2526 17.8466L61.3958 17.6054L61.6095 17.7839L61.9232 17.6702L62.0193 17.2446L61.7566 17.0015L62.3154 16.5152L61.7056 16.1132L61.3566 15.5505L61.484 15.2524L60.7507 14.6504L60.4997 14.6289L61.2624 13.9308L61.8174 13.8112L61.8997 13.6504L60.9154 12.7367L60.5369 12.6092L60.4585 12.0857L61.1409 12.1523L61.2742 11.9837L61.6762 12.1523L61.8683 11.7445L62.037 11.8425L62.6546 11.5974L62.8605 11.1288L63.2841 10.9013L63.3017 10.568L63.9841 9.63068L64.1135 9.00908L64.6037 8.99144L65.1528 8.5875L69.3921 7.92277L71.0098 8.12474L72.0961 7.54825L72.4785 7.72277L72.7981 7.40903L73.2648 7.5306L74.6805 7.19922L74.9119 7.28158Z" fill="#FFCC00" stroke="white" stroke-width="0.5"/>
<path d="M63.8629 72.0656L64.3413 72.6891L65.0061 72.4852L64.9492 72.3715L65.8179 71.5773L65.6022 70.8381L66.1532 70.7832L66.4669 71.0067L66.7002 70.9636L66.914 71.1028L66.6845 71.4499L66.9806 71.6205L67.2552 71.9852L67.0434 72.4362L67.6532 72.8774L67.3081 73.2539L67.4277 73.4049L67.1532 73.7617L67.1061 74.2284L68.416 74.4872L68.6513 74.3716L69.1297 74.6029L69.018 74.8539L69.3748 75.0853L69.4768 74.7598L69.6317 74.8088L69.6474 75.2186L69.965 75.4677L69.5788 76.2736L69.469 77.0403L70.2082 77.6854L69.869 77.7972L69.718 78.254L69.5219 77.8874L69.4709 78.2187L69.2866 78.1285L68.9807 78.6246L69.1591 79.0501L68.714 79.1678L68.8278 80.3384L68.9925 80.5404L68.8336 80.6325L69.0768 81.0169L68.9866 81.9973L68.7532 82.1777L69.0493 82.6287L69.0121 82.9228L69.4317 83.0777L69.6748 85.3739L68.2473 86.1759L67.3003 86.1916L66.0198 86.6131L65.5375 86.47L64.4335 85.5268L63.4923 85.2229L62.5295 85.4758L61.9687 85.3621L61.1001 84.7111L60.3804 84.7268L59.5627 85.119L58.7 85.0229L57.8117 85.4837L56.7411 84.768L56.7921 84.2836L57.1627 84.164L57.2803 83.7503L57.6666 83.6621V83.3483L58.0705 83.1267L57.1685 83.0816L57.6588 82.8346L56.8548 81.8483L56.8136 81.4914L56.4999 81.109L56.6901 80.96L56.5097 80.8953L56.4705 80.5776L56.2117 80.5129L55.9058 79.8698L56.8881 79.3835L57.7097 79.2286L57.5588 78.8756L59.298 78.256L59.1667 77.6109L58.6706 77.156L58.5529 76.5912L59.1078 75.9677L58.8235 75.85L58.9529 75.7618L58.9921 74.4833L59.2372 74.3265L59.0059 74.1029L58.751 73.25L59.1 73.1245L59.3216 73.3421L60.6647 73.2421L61.102 72.8068L62.0628 72.8735L63.8629 72.0656Z" fill="#FFCC00" stroke="white" stroke-width="0.5"/>
<path d="M43.7851 53.8388L43.787 53.9624L44.2321 53.8565L44.7439 53.2369L45.2263 53.1702L45.8812 52.6525L46.593 52.5898L46.8499 52.7996L47.4852 52.6055L48.7264 52.6447L49.5362 53.0564L49.9657 52.8192L51.0559 52.7937L51.4049 52.4584L51.7618 52.4505L52.1108 51.9309L52.3481 51.9937L52.8893 51.674L53.9501 51.7662L54.1305 51.6172L54.6639 51.8858L54.707 52.6329L53.9952 53.7624L54.3933 55.3742L54.7168 55.5565L54.6521 56.1173L54.4521 56.2801L54.6815 56.3232L54.7933 56.8625L54.3874 58.0625L55.056 58.941L55.0168 59.2743L54.8168 59.4057L55.058 59.7782L54.9482 60.2273L54.6521 60.2096L54.6403 60.4783L54.8305 60.4724L54.9168 60.6861L54.6031 60.9763L54.9619 61.3234L54.7109 62.0371L54.8501 62.2646L54.3795 63.1293L54.6344 63.1038L54.3619 63.7627L54.4913 64.0313L53.9011 64.8902L53.8344 64.1549L53.6128 64.0137L53.4266 64.249L52.6971 64.5196L52.803 64.8568L52.4461 65.1451L52.4363 66.1098L52.1559 66.1451L52.0108 66.5687L51.9265 67.5236L52.405 68.0981L52.6344 69.7158L52.0579 69.3138L52.0991 69.6766L51.5226 69.7256L51.4598 70.0923L50.9657 70.1511L50.6853 69.9099L50.2245 70.006L49.5715 71.21L49.1794 71.2021L48.9382 70.9531L48.995 70.6629L48.797 70.7943L48.8284 70.5864L48.4833 70.4629L47.5499 70.5864L47.3558 69.7217L47.1028 69.5825L47.1871 68.906L46.1106 68.6315L45.9146 68.4275L45.7694 68.7511L45.6675 68.2511L45.4851 68.1569L45.6008 67.7432L45.4596 67.3824L45.6969 66.7373L45.6067 65.5647L45.8832 65.2039L45.6145 64.5549L45.3636 64.5274L45.5381 63.0921L45.3518 62.3548L45.3753 62.143L45.7165 61.9509L46.1342 60.9057L46.1106 59.9214L46.6283 59.5743L45.8773 57.5605L46.495 56.3173L45.8087 55.9095L44.9812 56.3487L44.4518 56.2683L43.9008 55.9016L43.6655 56.2036L43.2478 55.8644L43.3968 55.2408L43.2831 54.633L43.0635 54.5506L43.3282 53.7624L43.7851 53.8388Z" fill="#FFCC00" stroke="white" stroke-width="0.5"/>
<path d="M79.4086 43.3435L81.0302 43.7161L82.1557 42.7102L83.1518 42.418L84.2401 42.8573L84.9342 42.5984L85.695 42.9514L86.4245 42.0415L87.5598 42.5474L87.6559 42.0259L88.2755 42.2455L88.4128 42.1219L88.2951 41.9984L88.4049 41.7337L88.1245 41.6807L88.099 41.465L88.7089 41.0513L88.7304 40.8337L89.0363 41.0356L89.2599 40.6905L89.7285 40.918L89.956 40.7729L89.8618 40.4199L90.3148 40.5533L90.5423 40.4356L90.6462 40.9905L91.2384 41.2474L91.505 40.6376L91.9639 40.6356L92.2247 40.7415L92.3658 41.2141L92.6462 41.4592L92.658 41.7298L92.5541 42.0572L91.9697 41.6258L91.8678 41.7082L91.9384 42.52L90.3501 42.7278L90.0932 43.1024L90.1285 43.4004L89.4403 43.773V44.1887L89.6912 45.122L90.3579 46.475L90.7266 47.9064L91.0874 48.3751L91.1462 49.0869L91.9227 50.1653L92.2482 50.0104L92.456 50.7595L92.7109 50.6908L92.7757 50.9987L93.0659 51.0595L92.8678 51.3046L93.0874 51.3438L93.3502 51.7575L93.0208 51.8536L92.96 52.1281L93.2659 52.3889L93.1659 52.7635L93.4247 53.089L93.2247 53.2674L93.4776 53.2576L93.5855 53.4949L92.809 54.238L92.7619 54.5733L92.005 54.9263L92.0599 55.1243L91.6423 55.4263L90.4717 55.4871L90.3854 55.64L90.003 55.3557L89.9167 54.6714L90.0873 54.0557L89.6246 54.4851L89.3893 54.5302L89.1285 54.2812L88.5932 54.6969L88.1167 54.2713L87.9049 54.3008L88.1245 53.8576L87.9382 53.7635L87.4618 54.1596L86.948 54.0027L86.195 52.6223L85.8695 52.736L85.3833 52.5948L85.2264 52.785L84.4479 52.8595L83.9165 52.3144L83.3401 52.2987L82.7498 51.6046L82.3439 51.6654L81.9635 50.8222L81.4106 51.032L81.1439 50.7908L80.7615 50.8477L79.8046 49.5516L79.8635 49.2594L79.3752 48.9163L79.4478 48.2084L78.8066 47.7692L78.5752 47.428L78.7517 46.3691L78.6125 45.9024L78.8419 45.5632L78.8046 44.9024L79.4086 44.322V43.3435Z" fill="#FFCC00" stroke="white" stroke-width="0.5"/>
<path d="M89.0508 27.9197L89.3528 28.1354L90.292 28.0844L90.4587 28.3393L90.7234 28.2099L90.7352 28.004L91.4391 27.8315L91.7313 28.0923L92.4627 28.0746L92.696 28.357L92.7313 28.0217L93.3255 27.9648L93.2098 27.6079L94.1588 27.7707L94.7294 27.5589L94.5275 27.1589L94.351 27.2118L94.3079 26.4863L94.5608 25.9922L95.1569 26.3804L96.0942 27.8432L96.9589 27.8746L96.9687 28.2138L97.3236 28.2452L98.3472 29.0766L98.5629 29.0472L98.2452 28.4727L98.4649 28.3413L98.9747 28.3982L99.1531 28.6982L99.4276 28.7472L100.704 28.6178L100.708 29.0923L100.82 29.0433L100.916 29.4001L101.471 29.8492L101.287 29.9198L101.587 30.2159L101.449 30.3806L101.543 30.6708L101.714 30.6825L101.61 30.8649L101.898 31.0943L101.883 31.559L102.034 31.4767L102.149 31.7924L102.228 31.661L102.453 32.9336L102.204 33.4081L102.316 33.4964L102.087 33.5317L102.249 34.0258L101.998 34.2944L102.187 34.4415L101.926 34.8807L102.187 35.0905L102.11 35.3886L102.332 35.3807L102.375 35.6729L102.53 35.6905L102.31 35.8866L102.567 36.1415L102.422 36.5533L102.171 36.6043L102.275 36.7318L102.106 36.8455L102.33 36.9357L102.01 36.9298L102.087 37.071L101.777 37.3239L101.885 37.6141L101.587 37.6965L101.777 37.8455L101.61 38.0651L101.908 38.2867L101.836 38.471L101.522 38.6652L101.536 38.9318L101.463 38.7005L101.396 38.9789L101.149 38.7985L101.188 39.0416L101.008 38.9475L100.863 39.3632L101.106 39.5652L100.645 39.7005L100.655 40.426L100.818 40.2848L100.739 40.628L100.971 40.5789L101.039 40.7986L100.916 40.8103L101.075 40.879L100.881 40.8888L101.053 41.1339L100.845 41.2986L100.955 41.7594L100.724 42.1123L100.232 42.0006L99.5021 42.23L99.3198 41.9809L98.9963 42.1535L98.8198 41.5731L98.4864 41.6731L98.1296 41.3515L97.6707 41.5417L97.655 41.1025L97.3276 41.2613L97.3393 41.6221L97.0883 41.9868L96.3942 42.1241L96.1511 41.7319L95.6118 41.7849L95.3079 41.6182L95.0275 41.8437L94.0412 41.4201L93.9726 41.7045L94.1745 41.9123L93.998 41.9555L94.5157 43.03L94.2353 43.1535L94.2255 43.8065L93.8588 44.0477L93.4176 43.732L93.1 43.1418L93.3196 42.9163L93.1431 42.6241L93.2039 42.0398L92.9961 41.7476L92.6568 41.728L92.6451 41.4574L92.9784 40.6829L92.7215 40.5005L92.5117 39.6671L92.3725 38.522L92.596 38.1279L92.247 36.8102L91.8921 36.3592L91.396 34.7611L90.7117 33.412L90.045 32.6944L90.5372 32.1767L90.3077 31.7924L90.5293 31.3649L89.0234 30.1806L89.2783 29.9962L89.3352 29.1139L89.2881 28.5276L88.9155 28.0923L89.0508 27.9197Z" fill="#FFCC00" stroke="white" stroke-width="0.5"/>
<path d="M78.8069 47.7676L79.4481 48.2068L79.3755 48.9147L79.8638 49.2578L79.8049 49.55L80.7618 50.8461L81.1442 50.7892L81.4109 51.0304L81.9638 50.8206L82.3442 51.6638L82.7501 51.603L83.3404 52.2971L83.9168 52.3128L84.4482 52.8579L85.2267 52.7834L85.3836 52.5932L85.8698 52.7344L86.1953 52.6207L86.9483 54.0011L87.4621 54.158L87.9385 53.7619L88.1248 53.856L87.9052 54.2992L88.117 54.2697L88.5935 54.6953L89.1288 54.2796L89.3896 54.5286L89.6249 54.4835L90.0876 54.0541L89.917 54.6698L90.0033 55.3541L90.3857 55.6384L90.472 55.4855L91.6426 55.4247L92.0602 55.1227L92.1426 55.4561L91.6308 55.6894L91.7367 56.0561L91.3641 56.2894L91.4896 57.0365L91.2485 57.1424L91.2877 57.3836L90.7484 57.6071L90.9484 57.7091L90.8073 57.9385L90.9818 58.0679L90.7857 58.3248L90.6131 58.1777L90.1406 58.6248L88.6405 57.8483L87.4346 59.2797L87.7013 59.5719L88.4444 59.1248L88.6954 60.3994L89.166 60.5268L89.0543 61.6896L89.5876 61.7445L89.6347 62.2759L90.0347 62.3171L90.068 62.9798L89.6523 62.9994L89.5406 63.3857L89.8249 63.4799L89.5288 64.5466L89.2072 64.4387L89.1641 64.5662L89.4268 64.7701L89.2425 65.5858L88.9013 65.5976L89.1739 65.8799L88.4974 65.9917L88.4346 66.3858L89.019 66.6172L88.8503 66.9957L88.3189 66.7898L88.2621 66.9133L87.8072 66.7466L87.966 66.1191L86.8032 65.4858L86.4934 65.9035L86.5405 66.1486L85.1208 65.4564L84.9561 65.7642L84.5424 65.7937L84.3345 66.0741L83.8972 65.9093L83.6306 65.5093L81.858 65.5407L81.5834 64.725L80.4089 63.6367L81.1403 63.1936L81.1599 62.6936L80.9638 62.8092L80.6403 62.1739L80.201 62.3877L79.6991 60.8798L79.5304 60.9033L79.7677 60.4033L79.5873 60.2248L79.8461 59.4287L79.3892 58.8581L78.4971 59.3052L78.2265 58.6895L78.3951 58.3483L78.0853 58.2816L77.7578 58.5817L77.2147 58.5346L76.7166 57.2345L76.5166 57.1973L76.495 56.8679L76.7597 56.7032L76.7774 56.4247L76.3127 55.8639L75.6774 55.662L75.2244 54.8678L74.4675 54.3698L74.5361 53.6874L74.4087 53.5795L75.0067 52.9109L75.5754 52.8305L76.1166 51.9128L76.2029 51.2893L76.5519 51.0481L76.9617 51.0736L77.399 51.6795L77.797 51.2638L78.0245 50.8794L78.2971 49.1872L78.7539 48.9598L78.8069 47.7676Z" fill="#FFCC00" stroke="white" stroke-width="0.5"/>
<path d="M46.4728 19.4967L46.3395 19.2594L46.6336 18.8594L46.9944 18.8516L47.2473 19.1437L48.4533 18.8927L48.7356 19.0163L48.8043 19.7339L48.218 20.2065L47.8062 19.9398L47.5376 20.1849L47.6415 22.0791L47.816 22.3713L48.2984 22.4144L48.4788 22.687L48.4905 22.4831L48.6768 22.4438L48.9141 22.8321L48.867 23.1772L49.116 23.4399L49.7004 23.3321L50.1827 24.2106L49.7082 25.2498L49.9337 25.4086L49.7729 25.742L49.8965 26.4538L50.3592 26.5361L50.4984 27.0597L50.9161 27.0283L50.9259 27.2852L51.4945 27.8107L51.1671 27.8891L51.1181 28.7597L50.8416 28.9146L50.7553 29.4088L50.8435 29.597L49.2749 30.6206L49.4494 31.0029L49.9984 31.2775L49.9729 31.503L49.7533 32.0187L49.2533 32.0814L48.7239 32.5952V32.8344L49.3376 33.0148L48.8474 33.9462L48.8297 34.356L48.3376 34.207L47.9336 34.658L47.9885 35.7855L46.6865 36.0443L46.3669 35.9913L46.2787 35.6992L46.0453 35.6345L44.9708 35.9051L44.6139 35.8306L44.2355 36.1129L44.3355 36.3815L44.0335 36.3502L44.3512 36.7306L43.8374 36.8443L43.2315 36.6737L43.1237 36.4933L43.1923 36.0031L43.5708 35.5345L43.2786 35.1305L42.5335 35.358L42.1452 35.1031L41.9276 35.1776L41.5668 34.6854L40.6511 34.1325L40.2981 34.1815L40.0393 34.5383L38.7804 35.2207L38.1588 35.1011L38.0921 34.8423L37.8215 34.8756L37.1352 35.1815L36.947 35.6129L36.3842 35.6011L36.4666 35.1227L36.2489 35.0188L36.1646 34.4148L35.9097 34.0893L34.9842 33.9991L34.2293 34.3442L33.5783 34.1717L33.3214 33.8442L33.4587 33.1324L33.2939 32.5952L33.0508 32.6716L33.0135 32.401L32.5331 32.0559L32.1096 31.9853L31.7096 32.2932L31.3096 31.9775L31.7429 31.7128L32.1684 31.8481L32.5488 31.4912L32.0488 30.5696L32.1116 30.2323L31.3998 29.8911L31.5586 29.4558L32.2586 29.1852L32.9606 27.7146L31.7037 26.8754L31.7057 26.3165L32.2469 25.6381L33.0469 25.7479L33.9626 25.5675L34.2195 25.9322L34.6214 26.0361L34.4646 26.2479L34.4842 26.8165L34.7881 26.9518L34.9783 27.3734L35.3313 27.5969L35.794 27.4969L35.9293 27.8087L36.1646 27.5734L36.2705 27.9656L36.5862 27.5342L36.9215 27.7989L36.7156 28.3499L37.0627 28.4872L37.749 28.1381L38.2725 28.193L38.5392 27.7773L38.4431 26.6734L38.7059 26.5106L39.1118 27.4322L39.3687 27.3871L39.5883 27.5911L39.8687 27.3891L40.0255 27.4597L40.6158 26.7773L40.4648 26.4675L40.6373 26.4263L40.6118 26.2498L40.9844 26.1067L40.8236 26.0753L40.902 25.9302L41.404 25.9577L41.7785 25.5204L41.7236 25.342L41.9256 25.2851L41.7727 24.7243L41.2295 24.0988L41.9236 24.0811L41.8648 23.7341L42.157 23.6851L42.1786 23.4949L41.9805 22.9164L42.7237 22.8458L42.9041 22.3811L43.4355 22.687L43.8159 22.3889L43.7433 22.136L44.0668 21.6399L44.9002 21.0085L44.9943 21.1752L45.2159 21.0673L45.3571 20.6693L46.1787 21.234L45.9002 20.5163L46.4728 19.4967Z" fill="#FFCC00" stroke="white" stroke-width="0.5"/>
<path d="M93.5853 53.4947L93.7166 53.3535L94.1735 53.4888L94.3206 53.8869L94.903 53.3653L94.9422 53.7163L95.3088 53.5476L95.2343 53.8869L95.6344 53.9261L95.5579 54.1379L95.8187 54.0712L95.8344 54.2437L96.0657 54.1516L95.9677 54.7516L96.4677 54.6104L96.5089 54.8653L96.8932 55.1006L97.5305 55.0614L97.4442 54.9634L97.7854 54.6398L99.0423 55.1712L99.1619 54.9908L99.611 54.9438L99.5874 55.7477L99.2051 57.0242L99.9874 57.6341L100.462 57.7223L100.721 57.5713L100.909 58.0027L100.423 58.7968L101.76 59.7635L101.407 60.0008L101.484 60.391L100.976 60.3949L101.186 61.5655L100.878 61.944L101.166 62.6832L100.821 63.7558L101.05 64.1597L100.529 64.6362L100.189 65.7363L99.6815 66.4402L99.2247 66.4775L98.6227 66.1245L97.7089 66.4618L97.6599 66.2343L97.1128 66.1559L95.5932 66.4049L93.9088 66.0618L93.1833 66.0716L93.1617 66.2755L92.9127 66.2579L92.0264 66.1206L91.9911 65.9677L91.5401 66.2167L91.0342 65.9226L91.1009 65.7245L90.5656 65.6853L89.9597 66.754L89.2694 66.2461L89.1734 65.8814L88.9008 65.599L89.242 65.5873L89.4263 64.7715L89.1636 64.5676L89.2067 64.4402L89.5283 64.548L89.8244 63.4813L89.54 63.3872L89.6518 63.0009L90.0675 62.9813L90.0342 62.3185L89.6342 62.2773L89.5871 61.7459L89.0537 61.691L89.1655 60.5283L88.6949 60.4008L88.4439 59.1263L87.7008 59.5733L87.4341 59.2812L88.64 57.8497L90.1401 58.6262L90.6126 58.1792L90.7852 58.3262L90.9813 58.0694L90.8067 57.9399L90.9479 57.7105L90.7479 57.6086L91.2871 57.385L91.2479 57.1438L91.4891 57.038L91.3636 56.2909L91.7362 56.0575L91.6303 55.6909L92.1421 55.4575L92.0597 55.1242L92.0048 54.9261L92.7617 54.5732L92.8088 54.2379L93.5853 53.4947Z" fill="#FFCC00" stroke="white" stroke-width="0.5"/>
<path d="M82.9815 2.31569L83.8227 2.42943L84.1345 2.20589L84.4286 2.73924L84.6874 2.60002L85.1168 3.19612L85.4031 3.20004L85.209 3.3824L85.3463 3.58829L85.5639 3.5628L85.4914 3.2471L85.862 3.31769L85.7326 3.88242L86.4561 4.14909L86.309 4.28831L85.9914 4.14713L86.0483 4.48832L86.5738 4.70205L86.8012 4.39812L86.8679 4.65891L87.0483 4.5491L87.062 5.05696L86.8855 5.3256L87.5679 6.00601L87.6228 6.30995L87.8758 6.36289L87.7248 6.84525L88.1209 6.708L88.1424 7.11585L88.6209 7.10605L88.364 7.62175L88.8131 8.02373L88.4699 8.51198L89.0895 8.87081L89.2268 9.86692L89.7209 10.1728L89.5366 10.3473L89.3797 10.2062L89.3033 10.4689L89.6268 10.512L89.5131 10.8493L89.7268 10.9179L89.7758 11.2297L89.9347 11.1944L89.919 11.567L90.1111 11.4827L90.1131 11.7631L90.3445 11.767L90.1249 12.0003L90.2562 12.2807L89.9307 12.0925L89.7347 12.3297L90.1504 12.6945L90.0249 12.8945L90.3151 13.0631L90.2935 13.3945L90.5582 13.7867L91.1229 14.2004L91.5151 14.769L90.6347 14.9651L90.2033 15.2945L89.8347 15.1632L89.719 15.2926L89.915 15.7769L89.417 15.9554L88.6993 15.973L88.6621 15.6632L88.366 15.9475L87.7973 15.4828L87.5326 16.3789L87.566 17.0985L87.364 17.026L87.0777 17.5554L86.5287 16.5926L84.5933 16.524L83.307 16.0358L83.0756 16.1985L83.1678 16.5809L82.7266 16.5711L82.4893 16.9848L81.3795 17.224L81.3599 16.624L80.8657 16.3044L81.5128 16.0593L81.5226 15.8436L81.1873 15.7848L80.9579 14.973L80.7344 14.8985L80.6834 14.6063L80.8677 14.4063L80.65 13.8533L80.7971 13.7729L79.9951 13.3592L80.0304 13.0043L79.7657 12.8906L79.7971 12.7298L79.6657 12.8239L79.5343 12.3435L79.1559 12.3513L79.1735 12.1984L78.8774 12.065L78.8049 11.8533L79.0049 11.567L78.599 11.3807L77.9048 10.5375L77.9794 10.2238L77.6852 10.1434L77.7892 9.88653L77.5852 9.60809L77.4323 9.73751L77.2931 9.34142L76.7578 8.90023L76.3793 9.21396L76.2048 9.04729L76.1852 8.52178L75.4538 8.27668L74.9126 7.28253L75.2459 7.37861L76.3283 6.98055L76.5734 6.01386L77.3578 5.42168L77.6617 4.44126L78.1245 3.95693L78.0323 3.58436L78.2833 3.36475L78.446 3.46279L78.6617 3.23338L78.7676 3.44122L78.9421 3.41181L79.6598 3.0765L79.8343 2.80591L80.5794 3.00984L80.8736 2.70198L81.1324 2.80983L81.1991 2.35883L81.7481 2.42746L81.6932 2.21961L81.8697 2.27844L81.9207 2.07647L82.156 2.25883L82.305 2.04118L82.3403 2.35688L82.7952 2L82.9815 2.31569Z" fill="#FFCC00" stroke="white" stroke-width="0.5"/>
<path d="M118.983 65.9874L118.61 66.0913L119.218 65.7364L118.983 65.9874ZM119.289 65.6697L119.689 65.005L119.708 64.3579L119.73 64.9932L119.289 65.6697ZM102.908 54.5105L102.857 55.0341L103.69 56.4126L106.406 57.7106L107.38 57.8067L108.286 58.1499L109.314 57.8283L108.8 57.1028L109.447 56.7459L109.229 56.238L109.663 56.1478L111.208 57.1498L111.524 56.2263L113.886 55.1909L115.002 54.3811L115.632 54.487L116.069 54.1046L116.432 54.3086L117.406 54.2007L118.926 54.8105L119.555 55.2419L120.289 56.1714L120.553 57.3047L120.34 57.791L120.618 58.4028L119.955 58.3048L119.961 58.1499L119.977 58.7656L120.206 59.297L120.595 59.3832L121 59.2303L120.589 59.5754L120.281 60.4244L119.822 64.2461L119.553 64.2403L119.659 64.9658L118.932 65.3756L116.336 65.656L116.194 65.4874L115.857 65.5952L116.159 65.6795L113.773 66.2286L112.949 66.7286L112.039 67.7227L111.743 67.3717L111.569 66.7266L112.232 66.6874L113.518 66.0325L113.808 65.3913L113.122 64.4599L113.012 64.7011L113.2 65.0854L112.816 65.3227L112.492 64.8246L112.428 63.4187L112.512 63.2187L113.196 62.9696L113.222 62.5814L112.483 62.1951L112.086 62.1912L112.02 61.8833L111.432 61.9539L111.504 62.3265L111.302 62.4873L111.071 62.499L111.241 62.1186L111.004 62.352L110.941 62.1676L110.902 62.4951L110.565 61.7657L110.777 62.5069L110.184 62.9383L110.067 63.7755L110.169 64.3265L111.332 65.3246L110.786 65.6972L110.998 65.758L110.843 66.1188L111.194 66.5403L110.384 66.6992L110.559 66.5011L109.755 67.0345L109.196 67.1953L109.486 66.9815L109.208 67.0305L109.077 67.3776L108.639 67.2776L108.312 66.9521L108.429 67.3227L109.145 67.4266L109 67.6365L109.484 67.7502L109.1 67.9796L108.812 68.0443L108.553 67.6894L108.188 67.7776L108.214 68.1522L106.161 68.209L106.116 68.5659L105.472 68.7051L105.31 68.1894L105.045 68.2267L105.008 68.409L104.659 68.3502L104.61 68.5149L104.233 68.4267L104.367 68.0345L103.543 67.9286L103.416 67.6561L102.517 67.1992L102.539 66.4011L102.043 66.3874L101.796 66.5952L101.537 66.4247L101.69 66.1207L101.192 65.7756L100.7 65.9011L100.178 65.7423L100.517 64.6422L101.039 64.1658L100.808 63.7618L101.155 62.6892L100.865 61.95L101.172 61.5696L100.961 60.399L101.468 60.395L101.394 60.0048L101.745 59.7676L100.41 58.8028L100.894 58.0067L100.706 57.5753L100.447 57.7263L99.9723 57.6381L99.1899 57.0283L99.5703 55.7518L99.5939 54.9478L100.449 54.287L100.976 54.3595L101.633 54.7752L101.731 54.1164L102 53.8203L102.719 54.0615L102.908 54.5105Z" fill="#FFCC00" stroke="white" stroke-width="0.5"/>
<path d="M5.25504 41.4074L5.78643 41.8172L5.9982 41.3721L6.26488 41.5055L6.50998 41.2329L6.74136 41.2584L6.89039 41.5349L7.45315 41.5388L7.55512 41.8761L8.23161 42.5192L9.30223 42.7937L9.62577 43.4428L10.1395 43.3349L10.6827 43.5918L11.2297 43.4153L11.4258 44.1526L11.7474 44.5232L12.1494 44.233L12.2239 43.8977L12.4219 43.884L12.7729 44.384L13.4926 44.6859L13.7063 44.1291L14.124 44.0212L14.0396 43.784L14.575 44.0918L14.7514 44.5467L14.924 44.5369L15.1044 44.0801L15.875 43.7192L16.7319 42.8957L17.0535 43.3565L17.0025 43.933L18.4182 44.6252L18.4045 45.1075L18.7555 45.2997L18.8594 45.8468L19.1398 45.6938L19.1614 45.3036L19.5673 44.7252L19.7143 45.0879L20.183 45.1389L20.181 45.3546L20.4634 45.3938L20.8693 44.8664L21.0987 45.082L21.4007 44.8134L21.685 45.0173L22.0105 44.7761L22.1654 44.3742L23.0537 44.1683L23.1164 44.6291L24.6792 45.2879L24.7263 45.637L25.2479 45.4448L25.7969 45.6723L26.1106 45.0291L26.8871 45.3526L27.1107 44.6428L27.3499 44.6291L27.4793 45.1428L28.2499 45.6134L28.2205 45.8801L27.8381 46.2017L28.3146 46.8625L28.5931 46.7762L29.1048 47.1311L29.1637 48.0037L29.4049 48.0763L29.7127 47.8625L30.001 48.1802L29.6343 48.8881L29.0362 49.0469L28.9754 49.5194L28.4734 50.1881L28.1754 50.4881L28.0166 50.2803L27.4146 50.4999L27.1107 50.2861L26.4597 51.7195L25.1106 50.8822L24.7851 51.4823L24.3851 51.5646L23.987 51.9313L23.8557 51.7744L23.6302 51.9195L23.7556 52.9823L23.4086 53.4411L22.7282 53.4588L22.2968 53.2725L22.4791 52.8529L22.3125 52.5901L21.8124 52.7274L21.685 52.5764L21.8928 52.0744L21.4262 52.1627L21.4046 52.5999L20.9085 52.5137L20.0242 52.6862L19.783 52.2588L19.2888 52.1156L19.1222 51.7783L17.9182 52.0058L17.53 53.1313L16.1966 53.6647L16.3378 54.4471L16.5927 54.3804L16.8084 54.6333L15.9809 54.8079L16.0828 55.3628L16.4338 55.8608L16.8456 56.0628L16.9711 56.5099L17.3652 56.9314L17.3515 57.3315L17.1182 57.4726L16.8201 58.3021L16.8946 58.5884L16.4593 58.7825L15.8534 58.5295L15.4907 58.0884L15.326 58.2727L14.0298 57.8354L13.8161 58.0629L13.1004 57.6864L12.5533 56.3491L12.3788 56.3412L12.1788 56.6883L11.5729 56.853L11.3729 56.4726L11.1239 56.4883L11.1415 56.2157L10.5689 56.3471L10.4925 56.0412L9.85323 55.5961L9.70225 55.2569L9.48459 55.2392L9.34537 54.702L8.62574 54.4373L8.84928 54.1902L8.67476 53.8549L8.23945 53.5804L7.44727 53.5784L7.41982 53.2196L8.23161 52.5764L7.75316 51.6352L7.46492 51.7313L7.38256 51.194L7.88258 50.394L7.85513 48.941L8.11592 48.2469L7.61198 48.0488L7.49433 48.6253L6.55312 48.6939L6.3492 47.8429L6.08448 47.9037L5.92957 47.588L6.05115 47.2704L5.43152 46.635L5.04719 46.537L4.89228 45.788L4.21187 46.1193L3.80009 44.9958L3.34321 44.684L2.81378 44.7761L2.06082 44.1448L2.18435 44.0153L2.00788 43.2447L1.02549 42.1643L1.24903 42.0172L1 41.9212L1.3255 41.4604L2.16278 41.025L2.32749 41.378L2.50005 41.2113L3.55695 41.4662L3.95108 41.0192L4.00794 40.6152L5.25504 41.4074Z" fill="#FFCC00" stroke="white" stroke-width="0.5"/>
</svg>
