<?xml version="1.0" encoding="utf-8"?>
<svg width="74" height="74" viewBox="0 0 74 74" fill="none" xmlns="http://www.w3.org/2000/svg">
<path d="M1.23323 53.0315V20.9648L20.6064 33.6583L1.23323 53.0315Z" fill="#F1C692"/>
<path d="M36.9999 44.4L53.3934 33.6602L72.7666 53.0334H1.23326L20.6065 33.6602L36.9999 44.4Z" fill="#F1C692"/>
<path d="M72.7666 20.9648V53.0315L53.3934 33.6583L72.7666 20.9648Z" fill="#F1C692"/>
<path d="M71.0912 21.4648H2.90871L20.8805 33.2401L36.9999 43.8004L53.1194 33.2401L53.1194 33.2401L71.0912 21.4648Z" fill="#F1C692" stroke="white"/>
<path d="M0 20.9677C0 20.931 0.0186691 20.8985 0.02108 20.8617C0.0283051 20.778 0.045166 20.6949 0.0704575 20.6148C0.0921402 20.5353 0.122849 20.4582 0.161392 20.3854C0.178856 20.3535 0.181267 20.3167 0.201141 20.2854C0.228241 20.2553 0.257141 20.2264 0.287254 20.1993C0.340248 20.133 0.399864 20.0722 0.46611 20.0192C0.523926 19.9716 0.586555 19.9307 0.652199 19.8958C0.721451 19.8578 0.794319 19.8271 0.869598 19.8036C0.949692 19.7789 1.03279 19.7633 1.1159 19.7555C1.15504 19.7458 1.19418 19.7392 1.23333 19.7344H72.7667C72.81 19.7344 72.8468 19.7555 72.8901 19.7591C73.0509 19.7753 73.2069 19.8229 73.349 19.8994C73.414 19.9349 73.4761 19.9759 73.5339 20.0228C73.6001 20.077 73.6604 20.1379 73.7139 20.2041C73.7398 20.2366 73.7754 20.2559 73.7989 20.2908C73.8223 20.3251 73.8211 20.3583 73.8386 20.3908C73.8771 20.4637 73.9079 20.5401 73.9295 20.6196C73.9548 20.7003 73.9717 20.7828 73.9789 20.8665C73.9789 20.9039 74 20.9358 74 20.9725V53.0344C74 53.7155 73.4478 54.2677 72.7667 54.2677H1.23333C0.552223 54.2677 0 53.7155 0 53.0344V20.9677ZM71.5333 23.2507L55.3374 33.8575L71.5333 50.057V23.2507ZM37 42.9208L68.6325 22.201H5.36271L37 42.9208ZM53.2309 35.2372L37.6757 45.4284C37.6612 45.4381 37.645 45.4405 37.6305 45.4495C37.5637 45.4874 37.4938 45.52 37.4216 45.5459C37.3884 45.5579 37.3565 45.5742 37.3222 45.5838C37.2216 45.6109 37.1186 45.6259 37.0151 45.6271L37 45.6344H36.9861C36.8826 45.6332 36.7796 45.6187 36.6796 45.591C36.6447 45.5814 36.6128 45.5651 36.5797 45.5531C36.5074 45.5272 36.4375 45.4953 36.3713 45.4567C36.3562 45.4483 36.34 45.4459 36.3255 45.4356L20.7691 35.2426L4.21068 51.801H69.7893L53.2309 35.2372ZM18.6626 33.8563L2.46667 23.2507V50.057L18.6626 33.8563Z" fill="#5D5360"/>
</svg>
