<?xml version="1.0" encoding="utf-8"?>
<!-- Generator: Adobe Illustrator 23.0.3, SVG Export Plug-In . SVG Version: 6.00 Build 0)  -->
<svg version="1.1" id="Layer_1" xmlns="http://www.w3.org/2000/svg" xmlns:xlink="http://www.w3.org/1999/xlink" x="0px" y="0px"
	 viewBox="0 0 470.3 234.1" enable-background="new 0 0 470.3 234.1" xml:space="preserve">
<g>
	<polygon fill="#FFDC01" points="128.1,3.9 126.3,2.5 121.4,4.6 125.7,5.4 	"/>
	<polygon fill="#FFDC01" points="421.1,64.6 422,63.3 424.9,63.3 426.2,61.2 419.6,58.4 419.8,63.8 	"/>
	<polygon fill="#FFDC01" points="411.5,44.8 409.5,44.8 415,51.6 417.7,56.5 419.7,56.5 416.4,51.8 418.3,51.8 	"/>
	<polygon fill="#FFDC01" points="426.1,69.6 424.1,66.2 422.2,65.6 423.3,70.8 419.3,74.4 413.9,75.8 413.4,77.5 419.9,76.5 
		420.4,79 421.8,78.4 422,76.4 426.3,75.3 	"/>
	<polygon fill="#FFDC01" points="419,77.9 416.3,78.3 417.8,80 	"/>
	<polygon fill="#FFDC01" points="414.5,153.9 417.5,153.5 417.5,152.4 413.4,152.4 410.9,155.1 412.8,155.4 	"/>
	<polygon fill="#FFDC01" points="422.7,142.3 419,142.3 418.5,143.8 422.7,143.3 	"/>
	<polygon fill="#FFDC01" points="419.5,134.8 420.6,133.4 419.9,132.5 418.5,133.9 418,137.3 419.9,137.8 	"/>
	<polygon fill="#FFDC01" points="134.1,28.3 134.1,23.6 137.7,24.9 139.8,23.5 138.6,21.4 136.5,20.6 136.4,17.3 124.9,12.6 
		123.2,12.6 119.1,15.9 120.5,12.5 118.5,12.5 113.9,17.5 125.2,16.9 132.2,23.1 127.5,23 125.1,24.9 119.9,24.9 119.9,26.4 
		125.2,26.4 129.8,30.2 131,29.7 129.9,27.3 133.1,28.8 	"/>
	<polygon fill="#FFDC01" points="216.1,68.7 218.3,68.7 218.3,66.9 	"/>
	<polygon fill="#FFDC01" points="428.9,138.7 424.3,139.3 429.4,141.7 	"/>
	<polygon fill="#FFDC01" points="401.6,96.2 403.7,98.2 405,94.5 403.7,93.1 	"/>
	<polygon fill="#FFDC01" points="210.2,43.5 208.5,44.4 210,46.6 207,49.5 211,48.7 215.1,48.1 215.3,46.6 216.1,46.6 216.3,44.9 
		213.7,44.4 210.4,36.8 207.9,36.7 207.9,40.8 210.2,41 	"/>
	<polygon fill="#FFDC01" points="130.9,9.5 122.5,9.5 119.7,8.3 116.9,10.7 128,11.6 	"/>
	<polygon fill="#FFDC01" points="201.1,43.2 201.1,47.6 202.8,47.6 202.8,46.1 206,46.5 205.8,43.3 207,42.8 207,41.2 204.1,41 	"/>
	<polygon fill="#FFDC01" points="139.5,53.7 137.5,50.5 137.5,50.5 137.4,50.5 135.7,50.1 135.7,47.9 135.7,47.9 135.7,47.8 
		129.9,53.6 130,53.6 130,53.7 	"/>
	<polygon fill="#FFDC01" points="129.9,7.5 123.9,7.5 124.8,8.3 131.3,8.3 132.4,9.2 141.9,4.8 149.5,3.3 155.3,0 132.3,1.7 
		132.3,3 140.1,2.8 139,4.2 130.9,4.4 132,6.3 128.5,5.7 	"/>
	<polygon fill="#FFDC01" points="404.2,154.5 405,155.4 406.7,155.4 406.1,154.1 	"/>
	<polygon fill="#FFDC01" points="382.4,150.3 398.5,153 398.3,151.9 392.5,149.1 388.8,149.9 384.8,148.3 	"/>
	<polygon fill="#FFDC01" points="403.1,138.4 403.1,129.5 403.1,129.4 403.1,126.2 400.2,126.4 396.8,131 388.8,134.7 388.8,134.7 
		388.8,134.7 388.9,139 391.4,143.3 399.2,143.3 	"/>
	<polygon fill="#FFDC01" points="385.6,104.6 386.7,105.9 388.2,104 388.2,102.5 385.6,103.1 	"/>
	<polygon fill="#FFDC01" points="409.9,152.7 408.6,151.9 406.1,151.9 406.6,153.5 408.9,153.5 	"/>
	<polygon fill="#FFDC01" points="407.9,139.3 407.2,138.2 408.7,136.5 411.4,137.5 412.8,137.4 414.9,135 413.1,134.9 411.9,135.7 
		408,134.8 405.5,137.1 405.6,140.7 404.1,142.7 405.1,147.5 406.9,146.9 406.4,143.6 407.5,142.4 408.4,144.8 410.6,145.6 
		410.6,143.9 409.3,141.1 411.7,139.1 	"/>
	<polygon fill="#FFDC01" points="440,142.5 440,142.5 435.6,140.2 431.4,143.5 427,141.8 426.5,144.2 429.1,144.1 435.5,146.8 
		436.7,150.1 434.5,151.4 440,153.3 440,153.3 442,154 445.8,150.5 450.8,155.3 455.3,156.2 449.7,150.7 450,147.7 	"/>
	<polygon fill="#FFDC01" points="457.9,145.4 452.5,148.2 454.5,149.4 457.9,147.5 	"/>
	<polygon fill="#FFDC01" points="407.1,105.2 404.7,105.1 404.1,110.1 407.5,114.1 411.3,114.6 411.9,113 408.3,112.6 407,111 
		408.3,108 	"/>
	<polygon fill="#FFDC01" points="413.8,118.3 415.5,118.3 413.8,115.6 412.1,116.2 	"/>
	<polygon fill="#FFDC01" points="411,120.9 410.2,119.6 409.3,120.7 410.2,121.9 	"/>
	<polygon fill="#FFDC01" points="415.8,79.9 415.1,78.7 412.7,79 415,82.5 	"/>
	<polygon fill="#FFDC01" points="405,117.9 400.7,121.8 402.3,122.1 405.1,119.8 	"/>
	<polygon fill="#FFDC01" points="411,118.6 412.3,120.6 413.1,119.6 412.1,118 	"/>
	<polygon fill="#FFDC01" points="414.8,120 413.6,123.1 409.7,123.1 413,125.4 413,127.6 415.3,126.9 414.5,125.5 416.4,125 	"/>
	<polygon fill="#FFDC01" points="410.2,117.1 408.5,116.9 407.7,118.3 408.9,119.1 	"/>
	<polygon fill="#FFDC01" points="405.9,115.6 407.2,116.9 407.7,115.9 406.1,114.3 	"/>
	<polygon fill="#FFDC01" points="194.2,24 190.5,23.9 189.7,25 187.5,24.9 187.5,27 195.1,28 199.6,25.8 199.6,25.2 197.4,22.9 	"/>
	<polygon fill="#FFDC01" points="383.2,146 383.2,142.7 370.3,129.3 365.9,127.6 380.8,148 	"/>
	<polygon fill="#FFDC01" points="283,168.3 282.2,174.1 280.8,178 282.5,182 286.6,182.2 293.5,160 291,160 	"/>
	<path fill="#FFDC01" d="M140,142.2l0.2-2.2l-3.7-1.6l-3.7,2.2l1.2-3.3l-2.5-1.1l-3.5,2.7l2.5-3.8l-2.2-4.9l-1.3-2.8l-2.7-0.2
		l-4.8-0.4l-5.1-4.9l0,0l-1.7-1.6l-6.5-0.6l-3.7-2.6L94,117l-1.7,0l-3.6,4.9l-1.8,0.1l-0.5-1.9l-3.9,0.3l-1.4,1.1l-1.8-1l0,0l-1-0.6
		l0-2.4l0,0l-0.2-8.4l-8,0.1l0,0l0.5-1l2.6-4.8l0.1-0.1l0.1-3.4L70,99.9l-2.7,4.5l-7.5,0L56,96.5l3-3.8l0,0l7.1-8.9l16.8,0.1
		l1.1,8.4l2.7,0.1L86.8,82l27.2-23.2l1.8-0.3l0-0.1l5.1-0.9l-3.4,1.6l0.3,1.4l9.2-3.2l-4.5-0.2l-2.1-1.9l2.1-3.2l-1-1l-6.5,2.9v-1.7
		l6.2-3l9.9-0.4l7.5-4l0-1.8l-5.5-0.9l-0.7-8.9l-7.1,2.8l0-4.2l-3.4-2.9h-4.7l-12.6,18.4l-3.1,0l0.1-6l-10.9-5.9l10.9-8.1l6.2-1.1
		l-1.3-1.9l9.5-1l3.9-4l-3.6-0.4l-5,3.3l0.6-2.8l-2.3-0.2l-0.6-3.4l-4,1.8l1,2.2l-5.4,2.6l-9.4-1.8l-5,2.3l-12.1-4.8l-23.1,0.5l0,0
		l0,0l-3.7-1.5l-19.1,0.1l-7.7,3.1v3.4l-8.7-0.1l-1.6,2.3l7.3-0.3L8.2,29l-4.6,6.2l3.9-0.1L0,40l2.7,0.2l14.4-6.9l16.6-0.6l5,5l0,0
		l-1.9,8.8l3.5,3.1v1.7l0.4,0h-0.4L27.5,65v10.4l4.7,4.7l0,0l0,0l0.7,7.3l5,9.5l2.1-1.6l-4-8.4v-4.8h2.3l0.1,4.4l7.5,17.6l12.2,5.1
		l3.1-0.8l2.6,2.7l0,0l0,0l0,0l0,0l3.9,2l2.8,1.3l0.7,0.3l2.5,3.4l0,0l2.9,3.9l1,0.4l0,0l4.3,1.5l1-1.6l2.5,0.2l0.7,2.4h0l0.7,2.5
		l-0.7,4.6l-2.1,2.6l0,0l-3.1,3.9l-0.4,5.9l0,0l-0.1,1.8l10.8,18.4l9.3,6.2l0,0l1.6,38.2l4.1,3.3l0.2,6.9l7.2,9.3l2.3,0.2l0,0l0,0
		l1.9,0.2l-1-20.1l10.9-4.7l-4.9-6.9l0,0l5.9,2.2l2.4-4.1l0,0l4.8-8.4l1.1-7.2l11.7-5.2l2.2-16.1l5-6.6v-4l-8.2-5.4L140,142.2z
		 M83.6,53.6L83.6,53.6l7.8-1.6l1,3.4l1.6,1.2l2.6-0.2l1,3.1l0.1,0h-1.6L94,61.1l-2.2,0.2l0.4-3.7h-1.7l-1.9,1.3L85,64.2h-2.1
		l4.1-6.6l4.8-1l-0.3-0.9l-3.2-0.1l-1.5-0.9L85,55.6h-2.2L83.6,53.6L83.6,53.6z"/>
	<path fill="#FFDC01" d="M369.1,110.5l1.3,4.9l-0.3,5l-0.1,2l3.5,3l0.3,1.1l2.1-0.3l-3.4-5.1l0.8-7.8l3.9,3.8v0l1.9,1.9l2.2-0.3
		l0.1,3.5l6.2-4.1l-0.2-6.1l-6.5-6.8l0.3-3.7l2.3-1.3l0,0l2.1-1.2l0.1,2l12.5-4.5l4.1-9.1l-7.3-12l3.7-4.1h-4.3l-1.4,0.9l-2.7-4.4
		l3.4-3l2.4,4.5l3.3-2.3l0,0l1.9,3.5l2.5,0.7l2.6,5.6l3.1-0.2l0.5-3.6l-4.3-3.5l-1.9-1.6l2.5-0.3l-0.4-4.9l4.6-0.8l2.5-3.7v-6.9
		l-7.1-8.1l-6.9-0.1l1.2-8.5l14.2,0.1l1.5-4.8l6,2.3l0-2.2l1.5,0.2l2.6,2.5l-2.5,1.7l-0.3,5.1l10.1,9.6v-9.2l-5.7-5.5l13.5-4.3
		l0.2-1.4l-6.8-1.8l2.6-2.1l6.1,1.3l4.1,0.1l-3.3-3.5l-21.2-4.2L390,17.3l-1.8-2.5l-11.4-1.9l-3.2,2.9h-9.3l-3.9-2.9h-20.9l-1.3-4.6
		h-19.3l-17,7.6l3.7,4.6l-3.2,3.3l-2.9-9.5l-5.1-0.4l2.5,5.6l-19.9,0.5l-18.6,7.6l-2.5-4.7l7.1,0.3l3.4-1.7l-13.5-4.3l-2.9,0.1l0,0
		l-2.9,0.1v0l-5.7,0.3l-19.7,13.6l2,4.6l5.9-1l0.4,0.5l0,0l3.8,4.4l6.2-5.5l-2.9-3.6l6.5-7.1h1.3v0h1l-3.1,7.1l3.7,1.9h5.6l0,0
		l-0.8,0.7l0,0l-0.9,0.8l-4.6,0.1l-0.4,1l1.4,1l0.3,0.2l-0.3,1.5l-3.2-1.5l0,1.9l0,2.2l0,0l0,0l0,1.6l0,0l-3.2,0.1l-0.7-0.7
		l-4.6,1.1l-0.4,0l0,0l0,0l-5.9-0.1l-0.3-1.1l-0.1-0.4l0.7-3.8l-1.9,0l-1.3,3l0.5,1.3l0.4,1l-3.1,1.9l0,0l-3.1,1.9l-1.8,1.1
		l-7.7,4.6H208v1.2l3.3,1.8l0.4,5.9L200.4,61l-0.1,2.2l0,0l0,0l-0.2,6.4l1.6,2.8l0.9,0.1l0,0l7,0.5l5.4-6.9l0,0l1.2-1.5l0.4-0.6l0,0
		l1.5-2l7.2,0.1l0.2-3h0.2h2.6l8,8l0.4,3.4l1.5-0.9l0.5-2.4l1.8-0.4l-9.8-8.4l2.8-0.2l0,0l0.4,0h0l0,0l0,0l0.7,0l3.4,3.9l0.7,0.2
		l0,0l0,0l1.1,0.3l0,0l2.2,4.2l0.2,0.3l0,0l1.4,1.6l2.7,0.8l-1.7,0.7l2.2,2.8l1.4-2.2l-1.5-3.4l3.1-1.5h2.5h3.1l-1.2-2.7l1-3l0,0
		l0.8-2.5l0.1,0l0.4-1.2h5.8l-1.3,1.3l1.8,1l2.4-0.2l-2.3-2.9l6-1.3l0,0l0.7,1.7l-1.8,0.5l0.3,2.8l6.4,2.2l0,0v3l-0.1,0l-17.2,0.6
		l-1.5,1.8l-3.3,0l2.7,5.5l12.6,0.7l0,0l0,0l-0.6,2.7l0,0l-0.6,2.7l-1.1,4.1l0,0l-14-1.9l0,0l-5.9-0.8l-2.4,3.7l-5.4-1.1l-2.1-2.6
		l-4.6-1.1l0,0l-1.7-0.4l0.2-5.8l-5.1-0.1l0,0l-5.9-0.2l-7.9,3v0l-9,0.9l-8.7,11.3h0l-7.3,9.6l-0.1,2.3h0l-0.2,6.4l0.1,0.8l-0.1-0.8
		l-0.2,6.2l0,1.4l-0.1,2.4h0l0,0.1l2.3,2.4l0,0l2.9,3.1l2.8,3l0,0l5.8,6.3l8.5-2.5v0l5.8-1.7l3-0.8l4.7,0.7l0.6,2.9h4.5h1.6
		l-0.1,3.6h0l-0.1,2.7l-0.1,4.3l3.6,4.8l1.8,2.4l0,0l1,1.3l0,0h0v11.7l-3,4.9l0.3,3.2l6.6,18.6h0.1l-0.1,0l3.9,10.6h12.7l9.8-11.3
		l0.4-3v0l0.1-0.9l3.8-2.7l-0.3-8l8.9-7.3l-0.9-8.4l0,0l-1.1-12l2.9-3.4v0l17.3-20.2l-0.7-3.5l-12.1,1.8l-0.6-1.1l-1.4-2.5l-7-12
		l0,0l0,0l-4.1-7.1l0,0l-6.4-11l3.5,2.8l1-2.2l0-0.1l0,0l0-0.1v0l0.3,0l-0.3,0l12.5,21.7l0.2,0.8l0,0l2.2,7.2l16.3-7.3l8.2-10.2
		l-4.5-4l-1.7-1.5l-2.7,3l-3.4-0.7l-1-0.7l0,0l0.9-0.9L293,91l-0.7,2.2l-0.4-0.3l-3.5-5.8l-1.8-2.9l1.5-0.1l0.3,0.2l2.4,0.2l5.5,5.7
		l10.1,3h2.8l0,0h8.8l2.3,2.6l0.3,0.4l3.2,1l-1.5,1.5l1.4,1.8l2.5,0.3l0.5-2.1l1,0l8.1,23.4l5.2-3.2l0.8-9.4l11.8-11.4l1.2-1.2
		l5.6,4.7l2.5,2.1l1,5l1.8,0.5l1.3-1.6L369.1,110.5z M213.2,126.9l2.1-0.6l0.9-0.2L213.2,126.9z"/>
	<polygon fill="#FFDC01" points="115,13.3 114,12 109.4,13 109.8,14.7 	"/>
	<polygon fill="#FFDC01" points="230.6,39.2 229.5,39.6 229.2,41.2 231.1,41.2 231.7,40.3 	"/>
	<polygon fill="#FFDC01" points="197.6,4.9 203,3.8 204.8,2 189.5,0.4 176.2,2 160.1,2 150.8,5.2 143.4,7.4 143.4,9.7 154.7,9.8 
		157.6,14.8 157.6,19.3 152.2,22.4 152.4,28.5 155.8,32 159.8,32 165.9,25.5 174.6,22.9 177.8,20.4 184.4,20 189,18.7 	"/>
	<polygon fill="#FFDC01" points="235.7,70.3 231.8,70.3 231.8,71.3 233.3,72.3 235.7,72.6 	"/>
	<polygon fill="#FFDC01" points="233.1,75.4 235.5,76 235.5,73.8 233.1,73.8 	"/>
	<polygon fill="#FFDC01" points="261.6,76 264.1,76.7 265.2,74.7 	"/>
	<polygon fill="#FFDC01" points="227.8,62.1 226.5,62.1 226.5,63.8 227.4,64.1 	"/>
	<polygon fill="#FFDC01" points="225.6,68.8 227.4,68.8 227.4,65.4 225.6,64.9 	"/>
	<polygon fill="#FFDC01" points="373.9,126.4 375.3,130.9 380.9,135.7 381.4,134 376,126.1 	"/>
	<polygon fill="#FFDC01" points="114.4,28 115,26.4 111.5,24.9 108.5,27.3 	"/>
	<polygon fill="#FFDC01" points="38.6,50.3 36,48.1 34.9,49.1 36.7,51.5 38.6,51.5 	"/>
	<polygon fill="#FFDC01" points="86.1,12.4 83.8,11.4 74.3,13.8 76.1,15.9 	"/>
	<polygon fill="#FFDC01" points="107.7,14.6 108.7,12 102.2,14.1 103.9,15.9 	"/>
	<polygon fill="#FFDC01" points="103.9,18.8 103.1,17.5 100.1,18.8 101.2,20.2 	"/>
	<polygon fill="#FFDC01" points="85.2,16.3 80.2,17.5 86.4,19.9 90.7,18.1 95.4,19.2 99,18.4 95.5,16.8 98.2,13.3 95.5,13.3 
		93.9,15.4 93.3,13.3 90.4,14.4 87.4,13.1 82,14.9 	"/>
	<polygon fill="#FFDC01" points="85.6,96.3 81.3,96.3 79.6,97.9 84.5,97.9 88.5,100.6 87,102.2 93.9,102.2 	"/>
	<polygon fill="#FFDC01" points="117.5,231.8 119.7,233.8 126.5,234.1 119.1,230.3 	"/>
	<polygon fill="#FFDC01" points="105.9,105.5 106.5,104.5 104.8,104.5 104.2,105.5 	"/>
	<polygon fill="#FFDC01" points="455.3,142.5 459.3,145.4 460.9,144.9 456.8,142.4 	"/>
	<polygon fill="#FFDC01" points="86.5,105.3 87.5,106.2 90.5,106.2 90.5,105.1 89.5,104.1 86.5,104.1 	"/>
	<polygon fill="#FFDC01" points="99.3,104.1 101.9,104.1 102.6,103.1 97.7,102.6 94.7,102.6 95.7,104 93.9,104 93.9,104.6 
		97.7,104.6 97.7,105.3 	"/>
	<polygon fill="#FFDC01" points="468.2,203.3 468.2,200.1 467,200.6 467,205.1 464,208.1 463,211.3 470.3,206.1 	"/>
	<polygon fill="#FFDC01" points="448.3,220.6 460,212.9 460,210.9 444.8,218.6 	"/>
	<polygon fill="#FFDC01" points="433,159.3 430.8,158.6 430.8,165.3 426,170.1 418.8,163.9 421,159.9 412.3,160.1 410,164.9 
		404.8,162.6 395.3,173.1 382.5,179.1 382.5,193.3 380.5,198.1 382,199.9 406.3,194.6 410.3,198.1 414.5,196.3 416,204.6 
		428.3,205.3 442.5,190.6 443.3,182.3 435.5,171.3 	"/>
</g>
</svg>
